<?xml version="1.0" encoding="utf-8"?>
<!-- Generator: Adobe Illustrator 15.0.0, SVG Export Plug-In . SVG Version: 6.00 Build 0)  -->
<!DOCTYPE svg PUBLIC "-//W3C//DTD SVG 1.1//EN" "http://www.w3.org/Graphics/SVG/1.1/DTD/svg11.dtd">
<svg version="1.1" id="Logo_Foundation_5" xmlns="http://www.w3.org/2000/svg" xmlns:xlink="http://www.w3.org/1999/xlink" x="0px"
	 y="0px" width="400px" height="400px" viewBox="-74.5 325.5 400 400" enable-background="new -74.5 325.5 400 400"
	 xml:space="preserve">
	<g id="image">
		<path opacity="0.5" fill="#CCCCCC" enable-background="new    " d="M310.016,696.862c0,15.816-82.611,28.638-184.517,28.638
			c-101.906,0-184.515-12.821-184.515-28.638c0-15.818,96.906-28.639,184.517-28.639C229.789,668.224,310.016,681.042,310.016,696.862
			z"/>
		<g>
			<path fill="#028CB9" d="M-49.789,627.642l48.281-62.815c23.881,22.322,56.587,34.264,89.813,34.264
				c37.897,0,56.587-18.689,56.587-39.976c0-23.359-18.17-39.974-53.991-39.974c-27.515,0-49.319,7.788-68.527,25.957l-61.777-15.055
				V325.5h251.267v77.872H49.887v66.971c16.613-16.097,43.608-27.516,74.237-27.516c59.183,0,111.616,42.568,111.616,112.652
				C235.74,630.238,179.152,678,89.342,678C28.083,678-18.121,658.792-49.789,627.642z"/>
		</g>
		<g opacity="0.05">
			<g>
				<g>
					<path d="M282.809,617.83c-3.077,0-6.389-1.418-8.756-12.303c-2.366-10.884-5.914-22.003-5.914-22.003
						c3.786,0,5.914-1.657,5.914-1.657c-2.601-1.183-8.279-5.206-12.065-10.175c-3.783-4.967-13.486-13.012-13.486-13.012
						s0-5.203,0-16.088s6.981-19.399,6.981-19.399c-4.73,0-6.981,4.256-6.981,4.256s0-0.235,0-22.948
						c0-22.715,11.474-32.886,11.474-32.886c-3.547-0.236-5.913,1.418-5.913,1.418c1.658-16.797,6.802-21.768,6.802-21.768
						c-18.927-4.968-29.486,6.152-29.486,6.152c-2.13-10.173,6.196-16.092,6.196-16.092c-9.7-2.13-17.723,0.711-17.723,0.711
						c0-14.905,5.925-19.877,5.925-19.877c-29.573,0-46.365,22.237-46.365,22.237c-1.184-9.463,1.421-17.754,1.421-17.754
						c-28.628,12.066-36.197,38.79-36.197,38.79c-1.893-4.495-2.128-14.699-2.128-14.699s-11.829,19.815-13.959,33.536
						c-2.131,13.725,1.893,53.116,1.893,53.116s-1.893-2.366-5.915-2.838c0,0,4.259,4.731,4.259,15.378c0,0-1.656-1.418-4.496-0.708
						c0,0,4.495,4.021,4.969,10.883c0,0-5.206,3.55-8.044,7.098c0,0-4.497,0.234-6.863,0.945c0,0,3.787,2.129,4.497,4.021
						c0,0-11.119,11.358-16.797,20.585c0,0,4.968-3.075,8.517-2.13c0,0-7.808,9.464-10.411,25.081c0,0,3.785-1.895,5.441-0.947
						c0,0-4.733,9.935-4.968,20.346l-5.206,3.075l4.021,2.839c0,0-3.075,12.776-3.785,20.113c0,0,2.364-2.367,4.259-3.077
						c0,0,2.603,6.151,6.151,10.884c3.549,4.731,11.595,8.755,16.324,8.755l8.894-0.348c-1.101,4.76-3.278,8.795-7.864,9.007
						l-0.51,0.816c-0.095-0.006-0.19-0.011-0.283-0.013c-0.09,1.39-2.896,1.64-3.668,2.602c-2.345,2.926-4.132,6.946-5.324,10.529
						c-0.871,2.624-0.459,2.624-1.064,5.323c-0.197,0.885-1.113,1.826-1.419,2.722c2.555-0.859,9.635-1.431,13.364-1.707l0.063,3.303
						c0,0,0.614,0.571,1.633,0.984c0.035-0.007,0.069-0.017,0.112-0.014c0.346,0.03,0.681,0.081,1.007,0.161
						c5.596-0.502,9.494,0.443,15.979-0.096c1.262-0.15,2.444-0.328,3.55-0.956c0.315-0.938,0.357-0.995,0.505-2.209
						c0.032-0.216,0.032-0.438,0.084-0.702c0.104-0.017,0.201-0.031,0.3-0.044c0.038-0.017,0.1-0.028,0.231-0.033
						c0.027-0.008,0.051-0.022,0.082-0.024c0.102-0.008,0.204-0.017,0.308-0.027c0.071-0.025,0.138-0.035,0.199-0.018
						c1.175-0.104,3.06-0.204,4.233-0.267c3.814-0.007,8.834,0.434,8.834,0.434c0.311-4.277,0.621-10.914,7.543-30.254l1.716-1.064
						c0,0,21.255,7.491,40.979-0.304c1.561,3.843,6.61,16.754,7.405,24.893c0.679,0.956,0.603,2.165,0.625,3.447
						c0.02,1.086,0.109,2.171,0.141,3.254c0.709-0.094,3.269-0.41,6.501-0.405c1.175,0.064,3.06,0.162,4.234,0.267
						c0.06-0.018,0.129-0.008,0.199,0.018c0.104,0.011,0.204,0.017,0.309,0.027c0.031,0.002,0.055,0.017,0.083,0.024
						c0.133,0.005,0.192,0.017,0.229,0.033c0.1,0.013,0.197,0.028,0.299,0.044c0.056,0.265,0.056,0.484,0.086,0.702
						c0.147,1.212,0.188,1.27,0.505,2.209c0.099,0.058,0.203,0.107,0.305,0.159c3.534-0.449,7.111-0.531,10.666-0.362
						c2.795,0.132,5.541,0.658,8.293,1.159c0,0.024,0.003,0.051,0.003,0.077c0.276,0.03,0.549,0.05,0.818,0.067
						c1.478,0.264,2.958,0.51,4.446,0.671c0.028-1.862,0.019-3.491-0.021-4.923c2.963,0.141,7.251,0.732,9.052,0.994
						c0.714,0.17,1.293,0.276,1.902,0.407c0.083,0.023,0.17,0.051,0.244,0.074c-0.004-0.007-0.006-0.015-0.008-0.021
						c0.61,0.136,1.27,0.31,2.138,0.612c-0.131-1.601-0.121-1.566-0.331-3.574c-0.163-1.552-1.276-6.265-3.356-8.21
						c0,0,2.267,0.979,2.958,1.371c-2.235-3.029-3.322-7.362-10.349-10.349c0,0,1.283-0.605,2.455-0.757
						c-1.226-0.757-2.162-1.055-3.403-0.963c0.422-1.198,2.28-4.219,3.835-4.608c0,0-0.956-0.664-2.519-0.149
						c-0.581,0.305-1.145,0.631-1.692,1.018c-0.209,0.146-0.511-0.005-0.569-0.232c-0.494-1.817-0.812-3.664-1.102-5.519
						c14.158-0.512,16.141-7.775,16.141-7.775c1.186,0.944,1.183,3.076,1.183,3.076c6.151-8.045,5.444-16.091,5.444-16.091
						c1.42,0.237,2.6,1.185,2.6,1.185c0.713-12.304-3.072-33.36-3.072-33.36c1.893,0.944,3.072-0.237,3.072-0.237
						c-2.127-0.946-2.362-3.313-2.362-3.313C282.335,620.671,282.809,617.83,282.809,617.83z"/>
				</g>
				<path d="M147.451,707.097c0,0,0.554-5.982-1.397-10.302c0,0,3.696,0.251,4.317,10.01
					C150.371,706.805,147.784,707.106,147.451,707.097z"/>
				<path d="M128.901,686.918l0.022-0.184C128.937,686.825,128.937,686.896,128.901,686.918z"/>
				<path d="M132.362,706.633c-0.023-0.003-0.034-0.006-0.034-0.006s0.015-0.042,0.044-0.113L132.362,706.633z"/>
				<path d="M179.41,444.397c-1.182-9.463,1.423-17.754,1.423-17.754c-28.629,12.066-36.199,38.79-36.199,38.79
					c-1.893-4.495-2.128-14.699-2.128-14.699s-11.829,19.815-13.959,33.536c-2.131,13.725,1.893,53.116,1.893,53.116
					s-1.893-2.366-5.915-2.838c0,0,4.259,4.731,4.259,15.378c0,0-1.656-1.418-4.496-0.708c0,0,4.495,4.021,4.969,10.883
					c0,0-5.206,3.55-8.044,7.098c0,0-4.497,0.234-6.863,0.945c0,0,3.787,2.129,4.497,4.021c0,0-11.119,11.358-16.797,20.585
					c0,0,4.968-3.075,8.517-2.13c0,0-7.808,9.464-10.411,25.081c0,0,3.785-1.895,5.441-0.947c0,0-4.733,9.935-4.968,20.346
					l-5.206,3.075l4.021,2.839c0,0-3.075,12.776-3.785,20.113c0,0,2.364-2.367,4.259-3.077c0,0,2.603,6.151,6.151,10.884
					c3.549,4.731,11.595,8.755,16.324,8.755l0.6-0.082c-0.265,1.632-0.562,3.256-0.994,4.857c-0.062,0.226-0.363,0.379-0.57,0.232
					c-0.55-0.388-1.112-0.715-1.693-1.018c-1.563-0.515-2.518,0.149-2.518,0.149c1.557,0.39,3.411,3.41,3.833,4.608
					c-1.241-0.092-2.178,0.206-3.403,0.963c1.173,0.151,2.456,0.757,2.456,0.757c-7.025,2.986-8.114,7.319-10.351,10.349
					c0.692-0.392,2.961-1.371,2.961-1.371c-2.082,1.945-3.195,6.658-3.357,8.21c-0.211,2.008-0.199,1.974-0.332,3.574
					c1.863-0.646,2.768-0.709,4.276-1.072c2.328-0.341,8.84-0.948,11.231-0.698l-0.377,4.884c0,0,0.047,0,0.116,0
					c1.229-1.604,2.229-0.59,3.323-0.709c0.016-1.267,0.083-2.675,0.187-3.937c-0.073-2.161,0.194-4.197,0.637-6.388
					c0.014-0.076,0.033-0.187,0.047-0.261c0.868-2.992,2.38-4.714,3.36-5.76c0.328-0.347,0.608-0.77,0.852-1.191
					c0.584-0.778,1.195-1.799,1.664-3.08c0.974-2.653,0.556-8.487-1.398-14.178c2.063,2.966,3.938,5.567,4.827,6.457l-0.06-7.247
					c0,0,3.786,3.783,7.173,6.642c1.632,1.425,3.645,3.129,5.074,3.863c0.103,0.068,0.196,0.267,0.309,0.267l0,0
					c0.015,0,0.029-0.054,0.042-0.046c1.919,1.077,3.896,2.006,5.742,3.201c0.198,0.127,0.4,0.229,0.594,0.36
					c0.856,0.59,2.359,1.266,3.713,1.978l1.28,15.121c1.152-15.881,10.202-31.085,10.202-31.085l-0.332-0.097
					c-2.801-0.866-23.289-7.956-35.394-33.265c-0.799-1.667,4.495,1.894,4.495,1.894c-4.969-12.067-6.861-31.469-6.861-31.469
					c1.654,1.418,3.313,1.655,3.313,1.655c-3.549-9.938-4.967-22.239-4.967-33.359c-0.946-59.858,21.174-73.582,21.174-73.582
					c-3.783-1.419-7.808-1.302-7.808-1.302c4.378-10.526,18.927-25.195,18.927-25.195c-3.901,0.236-19.164,4.376-19.164,4.376
					c12.658-33.006,25.436-41.758,25.436-41.758c-0.946,7.924,2.13,16.323,2.13,16.323c27.446-33.951,49.496-32.367,49.496-32.367
					c1.636-3.406,3.493-5.729,3.493-5.729C196.205,422.16,179.41,444.397,179.41,444.397z"/>
				<path d="M256.989,706.91c0,0-0.268-8.577-2.221-12.894c0,0,5.087,3.136,5.062,13.042
					C259.83,707.059,257.322,706.92,256.989,706.91z"/>
				<path d="M124.639,662.796c3.351-32.815,4.263-97.017,4.263-97.017c-7.276,14.372-13.132,40.457-13.132,40.457l1.42,5.678
					l-3.194-1.418c-5.133,17.815-1.66,41.665-0.509,48.384C116.751,661.465,120.641,662.338,124.639,662.796z"/>
				<path d="M117.775,662.088c1.039,5.252,2.119,10.31,3.317,15.529c0.887,0.133,1.885,0.065,1.885,0.065
					c0.815-3.173,0.95-8.085,1.583-14.125C122.229,663.284,119.939,662.868,117.775,662.088z"/>
				<path d="M228.968,690.365c-0.192,0.058-0.338-0.028-0.414-0.159c-0.366,0.072-0.65,0.139-0.84,0.188l0,0
					c4.88-3.553,5.33-7.309,5.33-7.309c-3.238,1.46-6.676,2.006-8.347,2.196c11.282-9.779,13.157-27.938,13.157-27.938
					c-4.623,5.672-11.181,10.466-16.248,13.684l0.011-0.021c0,0-3.394,1.899-6.532,3.377c-0.14-0.022-0.278,0.016-0.381,0.176
					c-1.611,0.745-3.114,1.356-4,1.505c0,0,2.612,4.822,3.704,7.427l-0.215,0.172c0,0,3.781,8.936,5.156,17.591
					c0.145,1.464,0.258,2.745,0.335,3.724c0.067,1.265,0.158,2.141,0.158,2.141c4.997-0.74,12.059-0.021,12.059-0.021
					c-0.035,0.814,0.413,2.77,0.496,3.125c2.373-0.321,4.769-0.461,7.163-0.479C239.528,701.35,239.161,687.409,228.968,690.365z"/>
				<path d="M124.376,665.329c-7.839-1.327-14.951-10.335-14.951-10.335c5.714,6.076,12.83,6.892,12.83,6.892
					c0.939-6.942-4.797-22.828-4.797-22.828c4.248,5.293,6.572,11.413,7.843,16.419L124.376,665.329z"/>
				<path d="M142.165,653.039c0,0,6.166,10.87,11.577,15.571c5.84,5.075,11.268,12.243,13.576,16.592c0,0,2.928-6.801,4.524-9.168
					C171.843,676.034,154.543,670.961,142.165,653.039z"/>
				<path d="M222.651,674.236c0.858-1.206,1.84-2.326,2.777-3.473c1.532-1.878,3.286-3.701,4.574-5.748
					c-2.225,1.665-4.701,3.107-7.231,4.63c-7.346,4.977-12.468,6.389-12.468,6.389c1.6,2.367,4.526,9.168,4.526,9.168
					c1.396-2.631,3.94-6.298,7.021-9.905C222.111,674.937,222.398,674.593,222.651,674.236z"/>
				<path d="M139.826,491.186c-0.674,0.047-2.825,0.104-2.825,0.104c-19.508,1.362-33.847-13.757-33.847-13.757
					s-1.282,11.803,7.191,22.141c8.478,10.34,25.653,12.11,25.653,12.11c0.558,2.418-0.651,7.811-0.651,7.811
					s5.022-5.558,6.299-16.083C142.542,496.135,140.242,491.155,139.826,491.186"/>
				<path d="M139.826,491.186c-0.646,0.035-2.825,0.104-2.825,0.104c-19.508,1.362-33.847-13.757-33.847-13.757
					s8.913,25.791,38.674,23.753C141.828,501.285,142.651,496.516,139.826,491.186"/>
				<path d="M237.222,491.186c0.673,0.047,2.825,0.104,2.825,0.104c19.51,1.362,33.847-13.757,33.847-13.757s1.283,11.803-7.19,22.141
					c-8.478,10.34-25.653,12.11-25.653,12.11c-0.559,2.418,0.652,7.811,0.652,7.811s-5.024-5.558-6.301-16.083
					C234.507,496.135,236.805,491.155,237.222,491.186"/>
				<path d="M237.222,491.186c0.646,0.035,2.825,0.104,2.825,0.104c19.51,1.362,33.847-13.757,33.847-13.757
					s-8.912,25.791-38.675,23.753C235.219,501.285,234.396,496.516,237.222,491.186"/>
				<path d="M129.799,578.554c0,0-14.834,50.396,0,82.692V578.554z"/>
				<path d="M269.263,658.271c-6.921,5.28-14.122,5.617-14.122,5.617c-0.319-6.901,7.222-21.984,7.222-21.984
					c-1.717,1.015-3.095,2.237-4.229,3.583l-0.051-5.061l5.441-4.496l-4.377-3.55l5.561-22.358l-5.323,3.551
					c0,0-1.657-31.822-0.474-45.546c0,0-6.742-6.742-10.057-9.463c0,0,0.625,9.796,1.34,25.451c3.021,12.56,7.717,38.546,1.877,61.404
					c0.067,4.633,0.118,9.337,0.145,14.088c0,0,2.911,10.108,3.856,17.207c0,0,0.947,0.265,2.366,0.029l-0.108-10.87
					C265.641,663.665,269.263,658.271,269.263,658.271z"/>
				<path d="M211.356,550.956c4.245,0,7.687,4.359,7.687,9.733c0,5.376-3.441,9.732-7.687,9.732c-4.248,0-7.691-4.356-7.691-9.732
					C203.665,555.315,207.108,550.956,211.356,550.956z"/>
				<ellipse cx="211.474" cy="558.09" rx="7.569" ry="9.582"/>
				<path d="M209.464,553.149c-0.063,0.234-0.104,0.479-0.104,0.739c0,1.35,0.882,2.442,1.966,2.442c0.964,0,1.762-0.863,1.928-2.001
					c0.618,0.81,1,1.903,1,3.106c0,2.5-1.63,4.525-3.638,4.525c-2.01,0-3.639-2.025-3.639-4.525
					C206.978,555.441,208.02,553.75,209.464,553.149z"/>
				<ellipse cx="174.446" cy="560.689" rx="7.688" ry="9.733"/>
				<ellipse cx="174.564" cy="558.09" rx="7.57" ry="9.582"/>
				<path d="M173.973,553.149c-0.062,0.234-0.104,0.479-0.104,0.739c0,1.35,0.883,2.442,1.968,2.442c0.962,0,1.76-0.863,1.928-2.001
					c0.618,0.81,0.998,1.903,0.998,3.106c0,2.5-1.629,4.525-3.638,4.525s-3.639-2.025-3.639-4.525
					C171.488,555.441,172.53,553.75,173.973,553.149z"/>
				<path d="M237.365,549.002c-3.429-0.501-9.413-1.068-16.596-0.701c-9.35,0.481-17.358,1.779-22.145,2.553
					c-1.429,0.232-2.552,0.414-3.408,0.528l-0.934,0.127c-1.049,0.145-1.738,0.235-2.324,0.266c-0.586-0.03-1.274-0.121-2.324-0.266
					l-0.934-0.127c-0.856-0.114-1.979-0.296-3.408-0.528c-4.785-0.773-12.795-2.071-22.145-2.553
					c-7.182-0.367-13.167,0.2-16.596,0.701c0,0-3.66,0.468-6.789,1.79l0.595,3.979c0,0,3.309-0.788,6.539-1.22
					c0.599,5.61,1.768,12.819,1.768,12.819l0.019,0.224c0.089,0.36,0.171,0.714,0.262,1.101c0.666,2.834,1.324,4.499,3.981,5.499
					c2.613,0.984,8.789,1.896,15.019,2.219c2.315,0.118,4.945-0.023,7.603-0.411c3.942-0.574,7.51-1.637,8.875-2.646
					c1.98-1.465,3.042-5.153,3.745-7.593l0.209-0.72c0.25-0.833,0.462-1.705,0.672-2.554c0.301-1.215,0.608-2.473,0.872-2.909
					c0.049-0.073,0.271-0.335,1.139-0.462c0.269-0.039,0.571-0.061,0.901-0.064c0.331,0.004,0.633,0.025,0.901,0.064
					c0.867,0.127,1.09,0.389,1.138,0.462c0.264,0.437,0.573,1.694,0.872,2.909c0.21,0.849,0.422,1.721,0.673,2.554l0.209,0.72
					c0.702,2.439,1.762,6.128,3.745,7.593c1.361,1.008,4.929,2.068,8.872,2.646c2.66,0.388,5.289,0.529,7.604,0.411
					c6.23-0.322,12.405-1.234,15.016-2.219c2.657-1,3.318-2.665,3.985-5.499c0.087-0.385,0.17-0.738,0.259-1.101l0.018-0.224
					c0,0,1.169-7.209,1.769-12.819c3.231,0.434,6.538,1.22,6.538,1.22l0.597-3.979C241.025,549.468,237.365,549.002,237.365,549.002z
					 M185.791,557.64l-0.009,0.066c-0.155,1.29-1.002,7.828-2.381,10.056c-1.336,2.149-1.809,2.688-5.959,3.39
					c-0.178,0.029-0.363,0.059-0.557,0.086c-4.479,0.654-12.655,0.769-17.229-0.107l-0.319-0.062c-4.668-0.905-6.307-1.289-6.79-2.743
					c-0.652-1.963-1.902-11.032-1.995-12.978c-0.071-1.478,1.316-2.149,1.694-2.251c0.236-0.063,0.615-0.133,1.129-0.208
					c3.277-0.479,10.443-0.95,13.823-0.803c4.284,0.194,14.734,1.669,17.089,2.724C186.038,555.595,185.958,556.277,185.791,557.64z
					 M231.373,568.325c-0.483,1.452-2.122,1.838-6.79,2.739l-0.317,0.062c-4.575,0.88-12.753,0.764-17.23,0.11
					c-0.193-0.03-0.379-0.057-0.557-0.088c-4.152-0.702-4.624-1.239-5.96-3.39c-1.377-2.227-2.228-8.767-2.381-10.055l-0.009-0.066
					c-0.166-1.362-0.246-2.045,1.503-2.828c2.355-1.055,12.806-2.529,17.087-2.724c3.382-0.147,10.55,0.323,13.826,0.803
					c0.514,0.075,0.893,0.145,1.128,0.208c0.379,0.102,1.766,0.773,1.695,2.251C233.276,557.293,232.024,566.361,231.373,568.325z"/>
				<path d="M176.818,538.93c0,0-8.552-4.079-13.447,3.496c0,0-0.506-7.532,6.401-8.374C176.68,533.208,176.818,538.93,176.818,538.93
					z"/>
				<path d="M173.611,527.864c0,0-7.929-3.743-11.541,3.448c0,0-1.182-6.283,4.479-7.8
					C172.208,521.995,173.611,527.864,173.611,527.864z"/>
				<path d="M207.457,543.547c0,0,6.642-3.169,10.444,2.717c0,0,0.393-5.852-4.971-6.507
					C207.563,539.105,207.457,543.547,207.457,543.547z"/>
				<path d="M212.18,533.073c0,0,6.723-1.088,7.872,5.054c0,0,2.23-4.437-1.664-6.782C214.49,528.995,212.18,533.073,212.18,533.073z"
					/>
				<path d="M176.225,598.597c0,0,4.692-3.152,7.464-3.588c0,0,0.605,5.953,3.357,8.884c0,0,5.94-5.354,11.814-5.735
					c0,0,1.517,3.264,3.98,4.474l-0.014,0.038c0.889,0.555,1.976,1.116,3.03,1.35c0,0,3.371-2.041,4.35-5.767
					c0,0,0.325,7.867-4.614,12.154c0,0-3.766-1.838-6.48-4.782c-0.814-0.793-1.66-1.713-2.073-2.466c0,0-8.714,6.162-9.03,9.679
					c0,0-6.289-6.13-8.435-10.856c0,0-4.198,1.327-5.363,2.18c0,0-3.374-5.517-4.058-10.495
					C170.153,593.665,174.211,597.54,176.225,598.597z"/>
			</g>
			<path d="M180.398,587.732c0,0,5.009-1.944,5.981-3.741c0,0,12.903,0.93,21.202-5.28
				C207.587,578.711,199.104,599.32,180.398,587.732z"/>
		</g>
		<g>
			<g>
				<g>
					<path fill="#EAF7FE" d="M287.618,616.228c-3.076,0-6.39-1.418-8.755-12.302c-2.366-10.885-5.914-22.005-5.914-22.005
						c3.786,0,5.914-1.654,5.914-1.654c-2.602-1.186-8.28-5.206-12.065-10.174c-3.783-4.969-13.486-13.015-13.486-13.015
						s0-5.204,0-16.089c0-10.883,6.981-19.399,6.981-19.399c-4.732,0-6.981,4.257-6.981,4.257s0-0.236,0-22.949
						c0-22.714,11.474-32.886,11.474-32.886c-3.549-0.234-5.914,1.42-5.914,1.42c1.657-16.799,6.802-21.768,6.802-21.768
						c-18.926-4.97-29.485,6.149-29.485,6.149c-2.13-10.172,6.196-16.09,6.196-16.09c-9.701-2.13-17.724,0.712-17.724,0.712
						c0-14.905,5.925-19.878,5.925-19.878c-29.572,0-46.365,22.237-46.365,22.237c-1.184-9.464,1.421-17.751,1.421-17.751
						c-28.628,12.064-36.196,38.787-36.196,38.787c-1.894-4.494-2.129-14.7-2.129-14.7s-11.829,19.815-13.959,33.537
						c-2.129,13.723,1.893,53.117,1.893,53.117s-1.893-2.365-5.915-2.838c0,0,4.259,4.732,4.259,15.378c0,0-1.656-1.419-4.495-0.71
						c0,0,4.494,4.021,4.968,10.885c0,0-5.206,3.547-8.044,7.097c0,0-4.497,0.236-6.862,0.944c0,0,3.786,2.133,4.496,4.023
						c0,0-11.119,11.356-16.797,20.584c0,0,4.968-3.075,8.517-2.129c0,0-7.808,9.461-10.411,25.079c0,0,3.785-1.893,5.441-0.946
						c0,0-4.732,9.936-4.968,20.346l-5.206,3.078l4.022,2.836c0,0-3.076,12.778-3.786,20.112c0,0,2.365-2.365,4.259-3.075
						c0,0,2.603,6.15,6.151,10.884c3.549,4.732,11.595,8.754,16.325,8.754l8.894-0.348c-1.102,4.761-3.279,8.796-7.865,9.008
						l-0.509,0.815c-0.097-0.007-0.191-0.01-0.283-0.014c-0.091,1.392-2.896,1.643-3.669,2.604c-2.345,2.926-4.132,6.945-5.324,10.528
						c-0.871,2.624-0.459,2.624-1.064,5.322c-0.197,0.884-1.113,1.827-1.419,2.722c2.555-0.859,9.635-1.431,13.364-1.706l0.063,3.302
						c0,0,0.615,0.571,1.634,0.986c0.034-0.008,0.069-0.018,0.111-0.014c0.348,0.026,0.682,0.079,1.007,0.158
						c5.596-0.499,9.494,0.445,15.979-0.095c1.263-0.149,2.445-0.326,3.55-0.956c0.315-0.938,0.357-0.996,0.505-2.208
						c0.032-0.215,0.032-0.439,0.084-0.702c0.104-0.017,0.201-0.03,0.3-0.047c0.038-0.014,0.1-0.024,0.231-0.032
						c0.027-0.006,0.052-0.019,0.082-0.022c0.102-0.01,0.204-0.019,0.308-0.027c0.07-0.026,0.139-0.033,0.199-0.018
						c1.175-0.105,3.061-0.205,4.233-0.267c3.815-0.007,8.834,0.434,8.834,0.434c0.312-4.278,0.621-10.914,7.543-30.254l1.717-1.064
						c0,0,21.254,7.488,40.979-0.305c1.561,3.844,6.609,16.754,7.403,24.894c0.679,0.954,0.604,2.165,0.626,3.447
						c0.02,1.086,0.109,2.171,0.141,3.254c0.71-0.097,3.269-0.412,6.502-0.405c1.175,0.063,3.059,0.163,4.233,0.267
						c0.061-0.016,0.128-0.009,0.199,0.018c0.104,0.009,0.205,0.017,0.31,0.027c0.03,0.004,0.055,0.017,0.081,0.022
						c0.134,0.008,0.193,0.019,0.23,0.032c0.1,0.017,0.198,0.03,0.3,0.047c0.055,0.263,0.055,0.484,0.086,0.702
						c0.147,1.212,0.188,1.271,0.503,2.208c0.1,0.058,0.205,0.108,0.307,0.16c3.532-0.449,7.11-0.532,10.665-0.362
						c2.795,0.131,5.54,0.657,8.294,1.157c0,0.026,0.003,0.054,0.003,0.079c0.276,0.03,0.548,0.049,0.816,0.067
						c1.478,0.264,2.959,0.511,4.446,0.671c0.03-1.862,0.021-3.492-0.021-4.924c2.963,0.144,7.252,0.732,9.053,0.993
						c0.714,0.173,1.293,0.279,1.901,0.409c0.082,0.024,0.169,0.049,0.243,0.073c-0.004-0.006-0.007-0.016-0.008-0.022
						c0.611,0.139,1.269,0.312,2.137,0.615c-0.132-1.602-0.118-1.567-0.331-3.573c-0.163-1.556-1.275-6.269-3.357-8.213
						c0,0,2.27,0.98,2.961,1.371c-2.236-3.028-3.323-7.362-10.35-10.348c0,0,1.281-0.605,2.456-0.758
						c-1.227-0.755-2.163-1.054-3.404-0.963c0.421-1.198,2.277-4.218,3.835-4.607c0,0-0.957-0.664-2.521-0.151
						c-0.579,0.306-1.143,0.632-1.692,1.018c-0.206,0.147-0.509-0.004-0.57-0.231c-0.491-1.816-0.812-3.663-1.102-5.517
						c14.16-0.514,16.146-7.777,16.146-7.777c1.182,0.947,1.182,3.075,1.182,3.075c6.15-8.044,5.442-16.089,5.442-16.089
						c1.419,0.236,2.603,1.183,2.603,1.183c0.711-12.303-3.076-33.358-3.076-33.358c1.893,0.946,3.076-0.237,3.076-0.237
						c-2.131-0.944-2.366-3.313-2.366-3.313C287.146,619.065,287.618,616.228,287.618,616.228z"/>
				</g>
				<path fill="#CDEAF5" d="M152.261,705.495c0,0,0.554-5.983-1.397-10.303c0,0,3.696,0.25,4.317,10.012
					C155.181,705.204,152.594,705.503,152.261,705.495z"/>
				<path fill="#CDEAF5" d="M133.711,685.314l0.022-0.184C133.746,685.221,133.743,685.292,133.711,685.314z"/>
				<path fill="#CDEAF5" d="M137.171,705.029c-0.021-0.004-0.033-0.007-0.033-0.007s0.015-0.042,0.044-0.112L137.171,705.029z"/>
				<path fill="#CDEAF5" d="M184.22,442.795c-1.182-9.464,1.423-17.751,1.423-17.751c-28.627,12.064-36.198,38.787-36.198,38.787
					c-1.894-4.494-2.129-14.7-2.129-14.7s-11.829,19.815-13.959,33.537c-2.129,13.723,1.893,53.117,1.893,53.117
					s-1.893-2.365-5.913-2.838c0,0,4.26,4.732,4.26,15.378c0,0-1.659-1.419-4.498-0.71c0,0,4.494,4.021,4.968,10.885
					c0,0-5.206,3.547-8.044,7.097c0,0-4.497,0.236-6.862,0.944c0,0,3.786,2.133,4.496,4.023c0,0-11.119,11.356-16.797,20.584
					c0,0,4.968-3.075,8.517-2.129c0,0-7.808,9.461-10.411,25.079c0,0,3.785-1.893,5.441-0.946c0,0-4.732,9.936-4.968,20.346
					l-5.206,3.078l4.022,2.836c0,0-3.076,12.778-3.786,20.112c0,0,2.365-2.365,4.259-3.075c0,0,2.603,6.15,6.151,10.884
					c3.549,4.732,11.595,8.754,16.325,8.754l0.598-0.084c-0.263,1.633-0.56,3.259-0.993,4.859c-0.062,0.225-0.362,0.379-0.57,0.231
					c-0.549-0.387-1.112-0.714-1.693-1.017c-1.562-0.514-2.519,0.15-2.519,0.15c1.558,0.39,3.412,3.409,3.834,4.607
					c-1.241-0.091-2.178,0.208-3.403,0.963c1.173,0.15,2.456,0.758,2.456,0.758c-7.025,2.985-8.113,7.319-10.351,10.348
					c0.692-0.391,2.962-1.371,2.962-1.371c-2.082,1.944-3.195,6.659-3.358,8.213c-0.211,2.006-0.199,1.972-0.332,3.573
					c1.863-0.648,2.768-0.71,4.276-1.073c2.329-0.339,8.84-0.971,11.232-0.723l-0.378,4.861c0,0,0.047,0,0.117,0
					c1.228-1.648,2.229-0.566,3.322-0.687c0.017-1.268,0.082-2.665,0.187-3.927c-0.073-2.161,0.193-4.189,0.637-6.381
					c0.015-0.074,0.033-0.184,0.047-0.258c0.869-2.99,2.382-4.71,3.36-5.756c0.328-0.348,0.608-0.771,0.852-1.191
					c0.585-0.779,1.196-1.8,1.664-3.081c0.975-2.652,0.556-8.486-1.398-14.177c2.063,2.965,3.938,5.566,4.828,6.457l-0.061-7.248
					c0,0,3.786,3.783,7.173,6.642c1.633,1.424,3.645,3.127,5.074,3.863c0.103,0.067,0.196,0.266,0.31,0.266l0,0
					c0.016,0,0.028-0.053,0.041-0.046c1.919,1.076,3.896,2.006,5.744,3.203c0.196,0.127,0.398,0.229,0.592,0.36
					c0.856,0.589,2.359,1.262,3.714,1.977l1.279,15.12c1.153-15.881,10.202-31.085,10.202-31.085l-0.332-0.097
					c-2.801-0.865-23.288-7.955-35.394-33.264c-0.798-1.667,4.495,1.892,4.495,1.892c-4.968-12.065-6.861-31.468-6.861-31.468
					c1.655,1.42,3.313,1.655,3.313,1.655c-3.55-9.938-4.968-22.238-4.968-33.358c-0.947-59.859,21.176-73.583,21.176-73.583
					c-3.785-1.419-7.81-1.3-7.81-1.3c4.379-10.527,18.927-25.197,18.927-25.197c-3.901,0.237-19.164,4.376-19.164,4.376
					c12.658-33.006,25.436-41.759,25.436-41.759c-0.946,7.925,2.13,16.325,2.13,16.325c27.447-33.952,49.497-32.368,49.497-32.368
					c1.635-3.405,3.492-5.728,3.492-5.728C201.014,420.558,184.22,442.795,184.22,442.795z"/>
				<path fill="#CDEAF5" d="M261.799,705.306c0,0-0.268-8.577-2.22-12.893c0,0,5.086,3.134,5.061,13.04
					C264.64,705.453,262.131,705.316,261.799,705.306z"/>
				<path fill="#ACDBE3" d="M129.447,661.192c3.35-32.818,4.262-97.018,4.262-97.018c-7.275,14.372-13.131,40.457-13.131,40.457
					l1.42,5.679l-3.194-1.419c-5.134,17.817-1.661,41.666-0.51,48.386C121.561,659.862,125.449,660.734,129.447,661.192z"/>
				<path fill="#ACDBE3" d="M122.584,660.483c1.04,5.254,2.121,10.312,3.319,15.53c0.886,0.132,1.884,0.063,1.884,0.063
					c0.814-3.17,0.95-8.083,1.584-14.123C127.039,661.681,124.749,661.267,122.584,660.483z"/>
				<path fill="#CDEAF5" d="M233.777,688.764c-0.191,0.056-0.337-0.029-0.414-0.159c-0.367,0.071-0.649,0.139-0.841,0.188l0,0
					c4.882-3.552,5.332-7.309,5.332-7.309c-3.238,1.461-6.676,2.006-8.348,2.197c11.282-9.779,13.157-27.939,13.157-27.939
					c-4.622,5.673-11.181,10.468-16.247,13.686l0.011-0.022c0,0-3.395,1.898-6.534,3.376c-0.139-0.021-0.275,0.019-0.38,0.178
					c-1.611,0.747-3.114,1.357-4,1.504c0,0,2.612,4.823,3.703,7.428l-0.213,0.173c0,0,3.781,8.934,5.155,17.591
					c0.145,1.462,0.259,2.742,0.337,3.723c0.066,1.268,0.156,2.14,0.156,2.14c4.998-0.74,12.06-0.02,12.06-0.02
					c-0.035,0.814,0.412,2.77,0.495,3.123c2.373-0.319,4.769-0.46,7.164-0.479C244.339,699.747,243.972,685.809,233.777,688.764z"/>
				<path fill="#85C1CE" d="M129.186,663.726c-7.839-1.326-14.951-10.336-14.951-10.336c5.715,6.076,12.83,6.892,12.83,6.892
					c0.94-6.942-4.797-22.826-4.797-22.826c4.248,5.29,6.572,11.412,7.844,16.419L129.186,663.726z"/>
				<path fill="#ACDBE3" d="M146.975,651.438c0,0,6.167,10.868,11.577,15.571c5.84,5.074,11.268,12.242,13.575,16.592
					c0,0,2.929-6.802,4.525-9.168C176.652,674.43,159.353,669.358,146.975,651.438z"/>
				<path fill="#ACDBE3" d="M227.46,672.633c0.858-1.205,1.841-2.327,2.777-3.472c1.533-1.879,3.287-3.702,4.574-5.749
					c-2.225,1.665-4.699,3.107-7.229,4.63c-7.348,4.977-12.468,6.388-12.468,6.388c1.599,2.367,4.524,9.169,4.524,9.169
					c1.397-2.63,3.941-6.298,7.022-9.904C226.92,673.335,227.208,672.99,227.46,672.633z"/>
				<path fill="#5C5B5D" d="M144.636,489.583c-0.673,0.048-2.825,0.103-2.825,0.103c-19.508,1.362-33.847-13.753-33.847-13.753
					s-1.282,11.8,7.192,22.139c8.477,10.34,25.653,12.11,25.653,12.11c0.557,2.419-0.651,7.809-0.651,7.809s5.021-5.555,6.298-16.081
					C147.351,494.529,145.051,489.551,144.636,489.583"/>
				<path fill="#747F83" d="M144.636,489.583c-0.646,0.035-2.825,0.103-2.825,0.103c-19.508,1.362-33.847-13.753-33.847-13.753
					s8.913,25.788,38.674,23.751C146.637,499.683,147.461,494.911,144.636,489.583"/>
				<path fill="#5C5B5D" d="M242.03,489.583c0.672,0.048,2.826,0.103,2.826,0.103c19.506,1.362,33.846-13.753,33.846-13.753
					s1.281,11.8-7.192,22.139c-8.477,10.34-25.652,12.11-25.652,12.11c-0.561,2.419,0.651,7.809,0.651,7.809
					s-5.022-5.555-6.298-16.081C239.313,494.529,241.615,489.551,242.03,489.583"/>
				<path fill="#747F83" d="M242.03,489.583c0.646,0.035,2.826,0.103,2.826,0.103c19.506,1.362,33.846-13.753,33.846-13.753
					s-8.911,25.788-38.675,23.751C240.027,499.683,239.205,494.911,242.03,489.583"/>
				<path fill="#CDEAF5" d="M134.744,576.952c0,0-14.835,50.396,0,82.69V576.952z"/>
				<path fill="#CDEAF5" d="M274.072,656.668c-6.922,5.281-14.121,5.615-14.121,5.615c-0.321-6.899,7.22-21.981,7.22-21.981
					c-1.715,1.013-3.095,2.236-4.228,3.583l-0.05-5.063l5.441-4.497l-4.377-3.548l5.559-22.358l-5.323,3.549
					c0,0-1.655-31.821-0.473-45.544c0,0-6.743-6.742-10.056-9.464c0,0,0.624,9.798,1.339,25.453
					c3.021,12.559,7.717,38.546,1.877,61.403c0.068,4.633,0.118,9.336,0.145,14.089c0,0,2.909,10.108,3.854,17.207
					c0,0,0.947,0.263,2.366,0.028l-0.105-10.871C270.451,662.061,274.072,656.668,274.072,656.668z"/>
				<ellipse fill="#CDEAF5" cx="216.166" cy="559.085" rx="7.688" ry="9.732"/>
				<ellipse fill="#FFFFFF" cx="216.283" cy="556.486" rx="7.57" ry="9.583"/>
				<path fill="#4F4E51" d="M214.272,551.546c-0.061,0.235-0.103,0.48-0.103,0.74c0,1.349,0.882,2.443,1.965,2.443
					c0.964,0,1.764-0.864,1.929-2.002c0.617,0.812,1,1.902,1,3.107c0,2.499-1.629,4.525-3.638,4.525c-2.01,0-3.638-2.026-3.638-4.525
					C211.789,553.838,212.828,552.146,214.272,551.546z"/>
				<ellipse fill="#CDEAF5" cx="179.256" cy="559.085" rx="7.688" ry="9.732"/>
				<ellipse fill="#FFFFFF" cx="179.375" cy="556.486" rx="7.569" ry="9.583"/>
				<path fill="#4F4E51" d="M178.782,551.546c-0.062,0.235-0.104,0.48-0.104,0.74c0,1.349,0.883,2.443,1.968,2.443
					c0.963,0,1.76-0.864,1.929-2.002c0.617,0.812,0.997,1.902,0.997,3.107c0,2.499-1.629,4.525-3.638,4.525s-3.638-2.026-3.638-4.525
					C176.298,553.838,177.339,552.146,178.782,551.546z"/>
				<path fill="#5C5B5D" d="M242.176,547.399c-3.43-0.503-9.414-1.068-16.597-0.702c-9.35,0.48-17.359,1.778-22.145,2.554
					c-1.428,0.229-2.551,0.413-3.408,0.527l-0.933,0.126c-1.05,0.145-1.739,0.236-2.325,0.266c-0.585-0.029-1.274-0.121-2.324-0.266
					l-0.934-0.126c-0.856-0.114-1.979-0.299-3.407-0.527c-4.786-0.775-12.796-2.073-22.145-2.554
					c-7.184-0.366-13.168,0.199-16.596,0.702c0,0-3.661,0.467-6.79,1.789l0.597,3.978c0,0,3.307-0.787,6.537-1.219
					c0.599,5.611,1.768,12.819,1.768,12.819l0.02,0.222c0.09,0.361,0.17,0.717,0.261,1.101c0.666,2.835,1.324,4.499,3.983,5.498
					c2.611,0.988,8.788,1.899,15.017,2.222c2.315,0.118,4.945-0.024,7.604-0.413c3.941-0.574,7.509-1.635,8.874-2.645
					c1.981-1.466,3.042-5.152,3.746-7.592l0.209-0.72c0.249-0.834,0.462-1.707,0.671-2.556c0.301-1.215,0.608-2.472,0.872-2.906
					c0.049-0.076,0.271-0.339,1.139-0.464c0.269-0.04,0.571-0.061,0.901-0.065c0.332,0.005,0.633,0.025,0.901,0.065
					c0.867,0.125,1.09,0.388,1.138,0.464c0.264,0.435,0.573,1.691,0.873,2.906c0.208,0.849,0.422,1.722,0.672,2.556l0.21,0.72
					c0.702,2.439,1.762,6.126,3.745,7.592c1.361,1.007,4.928,2.069,8.872,2.645c2.659,0.389,5.287,0.53,7.604,0.413
					c6.229-0.322,12.403-1.233,15.014-2.222c2.658-0.999,3.32-2.663,3.987-5.498c0.085-0.384,0.17-0.735,0.259-1.101l0.018-0.222
					c0,0,1.169-7.208,1.771-12.819c3.229,0.432,6.535,1.219,6.535,1.219l0.598-3.978C245.835,547.866,242.176,547.399,242.176,547.399
					z M190.601,556.037l-0.008,0.064c-0.156,1.291-1.003,7.829-2.381,10.056c-1.337,2.151-1.81,2.688-5.959,3.392
					c-0.179,0.028-0.364,0.056-0.558,0.083c-4.479,0.655-12.655,0.77-17.229-0.107l-0.318-0.062c-4.669-0.902-6.307-1.289-6.79-2.741
					c-0.654-1.964-1.902-11.032-1.996-12.977c-0.071-1.478,1.316-2.152,1.694-2.255c0.237-0.06,0.615-0.131,1.129-0.205
					c3.277-0.48,10.443-0.949,13.824-0.802c4.283,0.193,14.732,1.668,17.089,2.724C190.849,553.991,190.765,554.674,190.601,556.037z
					 M236.182,566.722c-0.482,1.452-2.121,1.839-6.789,2.741l-0.317,0.062c-4.575,0.879-12.752,0.763-17.229,0.107
					c-0.193-0.027-0.38-0.055-0.558-0.083c-4.15-0.704-4.625-1.24-5.959-3.392c-1.378-2.227-2.228-8.765-2.382-10.056l-0.008-0.064
					c-0.166-1.363-0.247-2.046,1.503-2.83c2.355-1.054,12.806-2.53,17.087-2.722c3.382-0.149,10.548,0.319,13.826,0.8
					c0.513,0.077,0.893,0.146,1.128,0.209c0.378,0.101,1.766,0.774,1.694,2.251C238.086,555.689,236.834,564.758,236.182,566.722z"/>
				<path fill="#A1D4E9" d="M181.628,537.326c0,0-8.552-4.079-13.447,3.494c0,0-0.506-7.531,6.401-8.374
					C181.49,531.604,181.628,537.326,181.628,537.326z"/>
				<path fill="#A1D4E9" d="M178.42,526.26c0,0-7.928-3.743-11.542,3.448c0,0-1.18-6.281,4.479-7.798
					C177.015,520.392,178.42,526.26,178.42,526.26z"/>
				<path fill="#A1D4E9" d="M212.267,541.945c0,0,6.643-3.167,10.444,2.715c0,0,0.393-5.851-4.972-6.504
					C212.373,537.502,212.267,541.945,212.267,541.945z"/>
				<path fill="#A1D4E9" d="M216.989,531.468c0,0,6.722-1.088,7.871,5.057c0,0,2.232-4.437-1.664-6.783
					C219.298,527.391,216.989,531.468,216.989,531.468z"/>
				<path fill="#B2DEEF" d="M181.034,596.993c0,0,4.692-3.153,7.464-3.587c0,0,0.605,5.95,3.357,8.883c0,0,5.94-5.355,11.815-5.736
					c0,0,1.517,3.265,3.979,4.476l-0.013,0.037c0.889,0.555,1.976,1.114,3.028,1.35c0,0,3.372-2.04,4.35-5.768
					c0,0,0.325,7.867-4.612,12.155c0,0-3.767-1.839-6.48-4.781c-0.814-0.794-1.661-1.716-2.074-2.467c0,0-8.713,6.163-9.03,9.679
					c0,0-6.289-6.132-8.435-10.856c0,0-4.198,1.326-5.364,2.18c0,0-3.373-5.518-4.056-10.496
					C174.961,592.063,179.02,595.938,181.034,596.993z"/>
			</g>
			<path fill="#5C5B5D" d="M185.208,586.13c0,0,5.009-1.946,5.981-3.742c0,0,12.903,0.93,21.203-5.28
				C212.393,577.107,203.913,597.719,185.208,586.13z"/>
		</g>
	</g>
</svg>
