<?xml version="1.0" encoding="utf-8"?>
<!-- Generator: Adobe Illustrator 15.0.0, SVG Export Plug-In . SVG Version: 6.00 Build 0)  -->
<!DOCTYPE svg PUBLIC "-//W3C//DTD SVG 1.1//EN" "http://www.w3.org/Graphics/SVG/1.1/DTD/svg11.dtd">
<svg version="1.1" id="Logo_HTML_5" xmlns:sketch="http://www.bohemiancoding.com/sketch/ns"
	 xmlns="http://www.w3.org/2000/svg" xmlns:xlink="http://www.w3.org/1999/xlink" x="0px" y="0px" width="400px" height="400px"
	 viewBox="-50.5 410.5 400 400" enable-background="new -50.5 410.5 400 400" xml:space="preserve">
	<g id="image">
		<path id="Shape" fill="#E44F26" d="M33.597,778.374L7.807,489.11h283.386l-25.816,289.217L149.327,810.5L33.597,778.374z"/>
		<path id="Shape_1_" fill="#F1662A" d="M149.5,785.909l93.773-25.998l22.063-247.15H149.5V785.909z"/>
		<path id="Shape_2_" fill="#EBEBEB" d="M149.5,620.046h-46.945l-3.244-36.329H149.5v-35.479h-0.123H60.541l0.85,9.519l8.719,97.765
			H149.5V620.046z"/>
		<path id="Shape_3_" fill="#EBEBEB" d="M149.5,712.182l-0.155,0.043l-39.512-10.669l-2.526-28.294H88.109H71.695l4.97,55.703
			l72.672,20.174l0.163-0.045V712.182z"/>
		<path id="Shape_4_" fill="#010101" d="M34.174,410.5h18.03v17.813h16.492V410.5h18.03v53.941H68.697V446.38H52.205v18.062H34.174
			V410.5L34.174,410.5z"/>
		<path id="Shape_5_" fill="#010101" d="M110.434,428.388H94.561V410.5h49.781v17.888h-15.879v36.054h-18.029L110.434,428.388
			L110.434,428.388L110.434,428.388z"/>
		<path id="Shape_6_" fill="#010101" d="M152.243,410.5h18.8l11.563,18.954L194.16,410.5h18.805v53.941H195.01v-26.737
			l-12.404,19.18h-0.31l-12.413-19.18v26.737h-17.641L152.243,410.5L152.243,410.5z"/>
		<path id="Shape_7_" fill="#010101" d="M221.938,410.5h18.035v36.111h25.354v17.829h-43.389V410.5L221.938,410.5z"/>
		<path id="Shape_8_" fill="#FFFFFF" d="M149.378,620.046v35.476h43.685l-4.117,46.01l-39.568,10.681v36.91l72.73-20.157
			l0.533-5.993l8.336-93.399l0.865-9.526h-9.559H149.378z"/>
		<path id="Shape_9_" fill="#FFFFFF" d="M149.378,548.238v22.034v13.356v0.088h85.58h0.113l0.713-7.975l1.615-17.985l0.85-9.519
			H149.378z"/>
	</g>
</svg>
