		<svg width="0" height="0" style="position: absolute; opacity: 0;">
			<defs>
				<filter id="blur" x="-15%" y="-15%" width="125%" height="125%">
					<feGaussianBlur in="SourceGraphic" stdDeviation="1" />
				</filter>
			</defs>
			<defs>
				<filter id="glow" x="-25%" y="-25%" width="150%" height="150%">
					<feOffset in="SourceGraphic" result="OffsetOut" dx="0" dy="0" />
					<feMorphology operator="dilate" in="OffsetOut" result="OffsetOut" radius="1" />
					<feGaussianBlur in="OffsetOut" result="BlurOut" stdDeviation="2" />
					<feBlend in="SourceGraphic" in2="BlurOut" mode="lighten" />
				</filter>
			</defs>
			<defs>
				<filter id="shadow" x="0" y="0">
					<feOffset in="SourceAlpha" result="OffsetOut" dx="2" dy="2" />
					<feGaussianBlur in="OffsetOut" result="BlurOut" stdDeviation="1" />
					<feComponentTransfer in1="BlurOut" result="AlphaOut">
						<feFuncA type="linear" slope="0.5" />
					</feComponentTransfer>
					<feMerge>
							<feMergeNode in="AlphaOut"></feMergeNode>
							<feMergeNode in="SourceGraphic"></feMergeNode>
					</feMerge>
				</filter>
			</defs>
			<defs>
				<filter id="shadow_over" x="-25%" y="-25%" width="150%" height="150%">
					<feGaussianBlur in="SourceAlpha" result="BlurOut" stdDeviation="2" />
					<feComponentTransfer in1="BlurOut" result="AlphaOut">
						<feFuncA type="linear" slope="0.5" />
					</feComponentTransfer>
					<feMerge>
							<feMergeNode in="AlphaOut"></feMergeNode>
							<feMergeNode in="SourceGraphic"></feMergeNode>
					</feMerge>
				</filter>
			</defs>
			<defs>
				<filter id="bevel" x="-25%" y="-25%" width="150%" height="150%">
					<feOffset in="SourceAlpha" result="Darken" dx="0" dy="0" />
					<feGaussianBlur in="Darken" result="Darken" stdDeviation="0.5" />
					<feComponentTransfer in1="Darken" result="Darken">
						<feFuncA type="linear" slope=".75" />
					</feComponentTransfer>
					<feOffset in="SourceGraphic" result="Lighten" dx="1" dy="1" />
					<feGaussianBlur in="Lighten" result="Lighten" stdDeviation="0.5" />
					<feComponentTransfer in1="Lighten" result="Lighten">
						<feFuncR type="linear" slope="1" intercept="1" />
						<feFuncG type="linear" slope="1" intercept="1"/>
						<feFuncB type="linear" slope="1" intercept="1"/>
						<feFuncA type="linear" slope="1" />
					</feComponentTransfer>
					<feBlend in="Lighten" in2="Darken" result="Bevel" mode="multiply" />
					<feOffset in="SourceGraphic" result="OffsetOut" dx="0" dy="0" />
					<feComponentTransfer in1="OffsetOut" result="AlphaOut">
						<feFuncA type="linear" slope=".25" />
					</feComponentTransfer>
					<feMerge>
							<feMergeNode in="Bevel"></feMergeNode>
							<feMergeNode in="OffsetOut"></feMergeNode>
					</feMerge>
				</filter>
			</defs>
			<g id="icon-left">
				<path d="M31.858,12.147L20.005,24l11.853,11.853c0,0,2.256,2.144-0.028,4.428
					c-2.283,2.282-4.426,0.027-4.426,0.027L11.098,24.001L11.099,24l-0.001-0.002L27.404,7.692c0,0,2.143-2.256,4.426,0.028
					C34.114,10.003,31.858,12.147,31.858,12.147z"/>
			</g>
			<g id="icon-right">
				<path d="M14.117,12.147L25.97,24L14.117,35.853c0,0-2.255,2.144,0.028,4.428
					c2.283,2.282,4.427,0.027,4.427,0.027l16.306-16.307L34.876,24l0.001-0.002L18.571,7.692c0,0-2.144-2.256-4.427,0.028
					C11.862,10.003,14.117,12.147,14.117,12.147z"/>
			</g>
			<g id="icon-up">
				<path d="M35.853,33.884L24,22.031L12.147,33.884c0,0-2.144,2.255-4.426-0.028
					c-2.284-2.283-0.028-4.427-0.028-4.427l16.307-16.306L24,13.125l0.002-0.002l16.305,16.306c0,0,2.255,2.144-0.027,4.427
					C37.997,36.139,35.853,33.884,35.853,33.884z"/>
			</g>
			<g id="icon-down">
				<path d="M12.147,14.117L24,25.97l11.853-11.853c0,0,2.144-2.255,4.428,0.028
					c2.282,2.283,0.027,4.427,0.027,4.427L24.001,34.877L24,34.876l-0.002,0.001L7.692,18.571c0,0-2.256-2.144,0.028-4.427
					C10.003,11.862,12.147,14.117,12.147,14.117z"/>
			</g>
			<g id="icon-show">
				<path d="M37.988,19.851l3.844-3.844c0,0,0.469-0.87-0.168-1.507
					c-0.636-0.636-1.507-0.167-1.507-0.167l-4.017,4.017c-1.176-0.877-2.49-1.705-3.918-2.408l2.788-6.731c0,0,0.071-0.915-0.76-1.26
					c-0.831-0.344-1.429,0.354-1.429,0.354l-2.779,6.71c-1.518-0.545-3.139-0.928-4.859-1.048V7.301c0,0-0.283-0.947-1.184-0.947
					c-0.899,0-1.184,0.947-1.184,0.947v6.665c-1.722,0.12-3.343,0.502-4.86,1.045l-2.778-6.707c0,0-0.598-0.697-1.428-0.354
					c-0.832,0.345-0.761,1.26-0.761,1.26l2.787,6.727c-1.431,0.702-2.747,1.53-3.924,2.406l-4.01-4.01c0,0-0.871-0.469-1.508,0.167
					c-0.636,0.637-0.167,1.507-0.167,1.507l3.835,3.835c-3.151,2.766-4.946,5.457-4.946,5.457S12.634,36.646,24,36.646
					s18.943-11.318,18.943-11.318S41.145,22.625,37.988,19.851z M24,34.307c-9.093,0-15.648-9.033-15.648-9.033s6.556-9,15.648-9
					s15.629,9.029,15.629,9.029S33.093,34.307,24,34.307z M24,18.191c-3.925,0-7.107,3.182-7.107,7.107
					c0,3.924,3.183,7.105,7.107,7.105c3.926,0,7.107-3.182,7.107-7.105C31.107,21.373,27.926,18.191,24,18.191z"/>
			</g>
			<g id="icon-hide">
				<path d="M37.997,28.172c3.151-2.75,4.946-5.427,4.946-5.427
					S35.366,11.34,24,11.34S5.057,22.716,5.057,22.716s1.799,2.688,4.954,5.448l-3.843,3.844c0,0-0.469,0.869,0.167,1.504
					c0.637,0.637,1.508,0.17,1.508,0.17l4.021-4.021c1.177,0.873,2.492,1.697,3.922,2.396l-2.796,6.748c0,0-0.071,0.914,0.761,1.26
					c0.83,0.344,1.428-0.354,1.428-0.354l2.788-6.732c1.515,0.541,3.133,0.92,4.851,1.039v6.695c0,0,0.284,0.947,1.184,0.947
					c0.9,0,1.184-0.947,1.184-0.947v-6.695c1.718-0.119,3.336-0.496,4.852-1.035l2.787,6.729c0,0,0.598,0.697,1.429,0.354
					c0.831-0.346,0.76-1.26,0.76-1.26l-2.793-6.744c1.431-0.699,2.748-1.521,3.926-2.395l4.014,4.016c0,0,0.871,0.467,1.507-0.17
					c0.637-0.635,0.168-1.504,0.168-1.504L37.997,28.172z M36.198,26.373l-1.375-1.375c0,0-0.903-0.436-1.507,0.168
					c-0.603,0.602-0.167,1.506-0.167,1.506l1.205,1.205c-0.925,0.686-1.954,1.352-3.07,1.93l-0.952-2.297c0,0-0.641-0.682-1.428-0.354
					c-0.788,0.326-0.761,1.26-0.761,1.26l0.972,2.346c-1.234,0.451-2.548,0.771-3.932,0.891v-3.018c0,0-0.331-0.947-1.184-0.947
					c-0.852,0-1.184,0.947-1.184,0.947v3.018c-1.384-0.119-2.697-0.441-3.932-0.893l0.971-2.344c0,0,0.028-0.934-0.76-1.26
					c-0.787-0.328-1.428,0.354-1.428,0.354l-0.95,2.295c-1.115-0.58-2.144-1.244-3.068-1.932l1.202-1.201c0,0,0.436-0.904-0.168-1.506
					c-0.603-0.604-1.507-0.168-1.507-0.168l-1.371,1.371c-2.182-1.944-3.454-3.678-3.454-3.678S14.907,13.69,24,13.69
					s15.629,9.03,15.629,9.03S38.367,24.44,36.198,26.373z"/>
			</g>
			<g id="icon-expand">
				<path d="M18.158,21.804l-4.708,4.708l-3.981-4.027L9.44,38.561l16.083-0.022
					l-4.055-4.008l4.708-4.709L18.158,21.804z M22.477,9.461l4.055,4.008l-4.709,4.709l8.019,8.018l4.708-4.708l3.98,4.027L38.56,9.439
					L22.477,9.461z"/>
			</g>
			<g id="icon-collapse">
				<polygon points="28.02,11.982 24.011,7.927 23.989,23.99 7.935,24.019 
					11.962,28 6.254,33.708 14.272,41.727 19.98,36.018 23.989,40.073 24.011,24.01 40.065,23.981 36.038,20 41.746,14.292 
					33.729,6.274"/>
			</g>
			<g id="icon-home">
				<path d="M38.235,23.775c0,0,0,10.723,0,12.455s-1.785,1.769-1.785,1.769
					h-8.882V27.323l-7.104,0.008v10.668L11.56,38c0,0-1.758-0.021-1.758-1.77s0-12.461,0-12.461s-1.646-0.001-1.683-0.001
					c-1.92,0-1.848-1.802-1.848-1.802S23.33,6.464,23.58,6.214c0.25-0.25,0.634-0.315,0.94-0.009s17.21,15.762,17.21,15.762
					s-0.064,1.802-1.837,1.802L38.235,23.775z"/>
			</g>
			<g id="icon-search">
				<path d="M10.12,39.876l12.319-12.334c0.724-0.727,0.938-1.778,0.731-2.708
					c4.105,3.023,10.045,2.789,13.754-0.928c4.083-4.098,4.104-10.728,0.012-14.814C34.953,7.112,32.289,5.997,29.483,6
					c-2.803,0.004-5.434,1.099-7.41,3.082c-1.974,1.981-3.063,4.618-3.06,7.425c0.002,2.286,0.832,4.518,2.172,6.313
					c-0.928-0.201-2.013,0.021-2.731,0.744L6.127,35.888c0,0-0.641,1.373,0.985,3.001C8.738,40.516,10.12,39.876,10.12,39.876z
					 M24.33,21.67c-2.854-2.852-2.855-7.492-0.007-10.347c2.845-2.857,7.5-2.848,10.357,0.001c2.854,2.853,2.843,7.481-0.006,10.337
					c-1.378,1.383-3.212,2.145-5.166,2.147C27.552,23.812,25.711,23.051,24.33,21.67z"/>
			</g>
			<g id="icon-mail">
				<path d="M24,28.965l-7.253-4.896L6,34.814c0,0.002,0,0.01,0,0.01
					s-0.001,1.781,1.799,1.781H40.2c1.801,0,1.8-1.786,1.8-1.786v-0.005L31.275,24.054L24,28.965z M6,16.814v16.201l9.672-9.672
					L6,16.814z M42,33.015V16.814l-9.653,6.516L42,33.015z M40.182,11.395H7.785c0,0-1.785,0.013-1.785,1.8v1.819l10.747,7.254
					l0.055-0.055v0.091L24,27.164l7.198-4.858v-0.128l0.076,0.076L42,15.014v-1.819C42,11.433,40.182,11.395,40.182,11.395z"/>
			</g>
			<g id="icon-link">
				<path d="M25.34,28.018l-6.698,6.698l-2.846,2.847
					c-0.647,0.647-1.622,0.722-2.177,0.167l-3.349-3.349c-0.555-0.555-0.479-1.529,0.167-2.177l5.693-5.692
					c0.003-0.003,0.006-0.005,0.009-0.008l3.843-3.843l-0.001-0.001c-1.48-1.479-3.878-1.479-5.358,0l-8.037,8.037
					c-1.48,1.479-1.48,3.879,0,5.358l5.358,5.358c1.479,1.479,3.878,1.479,5.358,0l8.038-8.038
					C26.819,31.896,26.819,29.498,25.34,28.018L25.34,28.018z M41.414,11.944l-5.358-5.358c-1.479-1.48-3.879-1.48-5.358,0
					l-8.037,8.036c-1.479,1.48-1.479,3.879,0,5.359l0.001,0.001l3.843-3.843c0.003-0.003,0.005-0.006,0.008-0.009l5.692-5.693
					c0.648-0.647,1.622-0.722,2.177-0.167l3.349,3.349c0.555,0.555,0.48,1.529-0.167,2.177l-2.847,2.846l-6.698,6.698h0.001
					c1.479,1.479,3.878,1.479,5.357,0l8.038-8.038C42.893,15.822,42.893,13.424,41.414,11.944z M19.979,30.696l10.717-10.717
					c1.373-1.373-1.304-4.048-2.676-2.676c-1.373,1.373-9.411,9.41-10.717,10.717C15.998,29.326,18.607,32.069,19.979,30.696z"/>
			</g>
			<g id="icon-brightness">
				<path d="M24,41.229c-9.515,0-17.229-7.714-17.229-17.229
					S14.485,6.772,24,6.772c9.515,0,17.229,7.713,17.229,17.228S33.515,41.229,24,41.229z M24.089,9.688
					c-0.015,0-0.029,0.001-0.044,0.001V38.4c0.015,0,0.03,0.001,0.044,0.001c7.928,0,14.356-6.428,14.356-14.356
					S32.018,9.688,24.089,9.688z"/>
			</g>
			<g id="icon-textinc">
				<path d="M18.581,6.846L7,39.153h5.25l2.936-10.108h10.934l3.066,10.108h5.411
					L22.692,6.846H18.581z M16.549,24.768l4.017-10.96l4.096,10.96H16.549z M37.62,12.225V6.851h-3.586v5.374h-5.388v3.562h5.388v5.405
					h3.586v-5.405H43v-3.562H37.62z"/>
			</g>
			<g id="icon-textdec">
				<path d="M18.581,6.846L7,39.153h5.25l2.936-10.108h10.934l3.066,10.108h5.411
					L22.692,6.846H18.581z M16.549,24.768l4.017-10.96l4.097,10.96H16.549z M28.646,12.225v3.562H43v-3.562H28.646z"/>
			</g>
			<g id="icon-print">
				<path d="M38.46,20.215c-3.51,0-3.665,3.541-3.665,3.541v1.86H13.199v-1.86
					c0,0-0.142-3.547-3.652-3.547C6.037,20.209,6,20.214,6,20.214v16.203c0,0-0.028,1.784,1.8,1.784h32.371
					c1.8,0,1.829-1.799,1.829-1.799V20.214C42,20.214,41.971,20.215,38.46,20.215z M33.004,5.799H15.001v18.013h18.003V5.799z"/>
			</g>
			<g id="icon-article">
				<path d="M42.507,13.364l-7.871-7.87c-1.448-1.45-3.798-1.45-5.248,0
					l-3.935,3.935c-1.449,1.449-1.449,3.798,0,5.247v0.001l-1.312,1.315l-10.671,2.44L7.593,39.095L18.33,28.359
					c-0.505-1.051-0.333-2.344,0.537-3.215c1.102-1.102,2.888-1.102,3.99,0c1.102,1.103,1.102,2.889,0,3.991
					c-0.871,0.87-2.166,1.042-3.216,0.535L8.923,40.389l20.646-5.858l2.439-10.671l1.315-1.312c1.449,1.449,3.798,1.449,5.248,0
					l3.936-3.936C43.955,17.163,43.955,14.814,42.507,13.364z"/>
			</g>
			<g id="icon-author">
				<path d="M19.264,15.466c2.092,0,3.789-0.921,3.789-4.059
					c0-3.139-1.696-7.307-3.789-7.307s-3.789,4.168-3.789,7.307C15.476,14.545,17.172,15.466,19.264,15.466z M31.309,23.003
					c-1.877-2.165-3.364-3.762-7.309-3.762c-3.947,0-5.436,1.599-7.313,3.767c-2.602,3.003-9.737,5.372-9.737,7.806
					c0,2.131,2.399,9.613,5.925,10.882c3.414,1.229,6.492-3.47,11.125-3.47c4.827,0,8.103,4.636,11.548,3.313
					c3.277-1.259,5.502-8.682,5.502-10.725C41.05,28.378,33.912,26.006,31.309,23.003z M9.792,23.044c2.092,0,3.789-0.921,3.789-4.06
					s-1.697-7.307-3.789-7.307c-2.093,0-3.79,4.168-3.79,7.307S7.7,23.044,9.792,23.044z M28.736,15.466
					c2.092,0,3.788-0.921,3.788-4.059c0-3.139-1.696-7.307-3.788-7.307c-2.093,0-3.789,4.168-3.789,7.307
					C24.947,14.545,26.644,15.466,28.736,15.466z M38.208,23.044c2.093,0,3.788-0.921,3.788-4.06s-1.695-7.307-3.788-7.307
					s-3.789,4.168-3.789,7.307S36.115,23.044,38.208,23.044z"/>
			</g>
			<g id="icon-date">
				<path d="M34.199,15.775c1.175,0,2.125-0.952,2.125-2.125V8.975c0-1.173-0.95-2.125-2.125-2.125
					c-1.173,0-2.124,0.952-2.124,2.125v4.676C32.075,14.823,33.026,15.775,34.199,15.775z M13.8,15.775
					c1.174,0,2.125-0.952,2.125-2.125V8.975c0-1.173-0.951-2.125-2.125-2.125c-1.173,0-2.125,0.952-2.125,2.125v4.676
					C11.675,14.823,12.626,15.775,13.8,15.775z M37.601,10.25v3.612c0,1.878-1.523,3.4-3.401,3.4c-1.876,0-3.399-1.522-3.399-3.4V10.25
					H17.2v3.612c0,1.878-1.522,3.4-3.4,3.4c-1.877,0-3.399-1.522-3.399-3.4V10.25C8.522,10.25,7,11.772,7,13.65v22.1
					c0,1.879,1.523,3.399,3.401,3.399h27.2c1.877,0,3.399-1.521,3.399-3.399v-22.1C41,11.772,39.478,10.25,37.601,10.25z M38.875,35.75
					c0,0-0.426,1.275-1.274,1.275H10.4c-0.808,0-1.275-1.275-1.275-1.275v-15.3h29.75V35.75z M20.817,31.687
					c0,2.396,0.926,4.073,3.616,4.073c2.705,0,3.615-1.668,3.615-4.073c0-1.188-0.172-2.303-1.165-3.089
					c0.747-0.736,0.978-1.8,0.978-2.806c0-2.156-1.098-3.635-3.428-3.635c-2.323,0-3.452,1.464-3.452,3.635
					c0,1.006,0.247,2.063,0.986,2.806C20.967,29.384,20.817,30.507,20.817,31.687z M24.434,24.16c0.762,0,0.843,0.925,0.843,1.415
					c0,0.669,0,2.133-0.843,2.133c-0.845,0-0.86-1.457-0.86-2.133C23.574,25.07,23.679,24.16,24.434,24.16z M24.434,29.677
					c0.979,0,1.075,1.354,1.075,2.155c0,0.699,0,1.873-1.075,1.873c-1.069,0-1.083-1.166-1.083-1.873
					C23.35,31.031,23.462,29.677,24.434,29.677z"/>
			</g>
			<g id="icon-tag">
				<path d="M27.335,8.685L5.23,30.73c0,0-1.318,1.317,0,2.637
					c1.319,1.318,8.059,8.059,9.377,9.377c1.319,1.318,2.679,0.041,2.679,0.041L39.354,20.74l0.002-12.081L27.335,8.685z
					 M32.824,19.207c-1.111,1.11-2.909,1.112-4.018,0.002c-1.11-1.108-1.109-2.908,0.002-4.017c1.11-1.111,2.909-1.112,4.018-0.003
					C33.936,16.298,33.935,18.097,32.824,19.207z"/>
			</g>
			<g id="icon-comment">
				<path d="M32.269,27.869C36.919,25.746,40,22.078,40,17.9
					C40,11.328,32.389,6,23,6C13.61,6,6,11.328,6,17.9C6,24.473,13.61,29.8,23,29.8c1.012,0,1.997-0.072,2.961-0.191L38.299,40
					L32.269,27.869z"/>
			</g>
			<g id="icon-reply">
				<path d="M8,11.572v12.252c0,6.167,5,11.169,11.168,11.169h8.641v5.434
					L44,29.582L27.81,18.796v5.405h-6.381c-1.452,0-2.628-1.176-2.628-2.628v-9.984L8,11.572z"/>
			</g>
			<g id="icon-edit">
				<path d="M40.481,9.907l-2.378-2.378c0,0-1.174-1.193-2.359-0.009
					c-1.183,1.184-2.377,2.377-2.377,2.377l4.736,4.737c0,0,1.213-1.212,2.378-2.378C41.647,11.09,40.481,9.907,40.481,9.907z
					 M35.149,12.854c-1.184-1.185-2.369-2.37-2.369-2.37s-0.62-0.562-1.194,0.011c-0.572,0.573,0.003,1.178,0.005,1.18L11.466,31.8
					c-0.549,0.549-2.981,6.49-2.368,7.104c0.613,0.612,6.47-1.734,7.104-2.368c0.458-0.46,15.723-15.724,20.123-20.124l0.001,0
					c0,0,0.578,0.605,1.18,0.004c0.602-0.602,0.012-1.195,0.012-1.195S36.334,14.037,35.149,12.854z M15.61,35.944
					c-0.475,0.476-4.906,2.197-5.328,1.776c-0.421-0.423,1.363-4.916,1.775-5.329c0.497-0.496,0.594-0.593,0.594-0.593
					s0.365,1.567,1.173,2.376c0.82,0.819,2.379,1.176,2.379,1.176S16.012,35.542,15.61,35.944z"/>
			</g>
			<g id="icon-alert">
				<path d="M10.391,7.008c-1.615,0-1.694,1.7-1.694,1.7v30.591
					c0,0,0.036,1.701,1.694,1.701c1.658,0,1.707-1.701,1.707-1.701V8.708C12.098,8.708,12.006,7.008,10.391,7.008z M32.502,10.401
					C28.304,10.401,24.62,7,20.528,7c-4.091,0-6.73,3.401-6.73,3.401v18.703c0,0,2.427-3.399,6.73-3.399
					c4.305,0,7.598,3.399,11.903,3.399s6.872-3.399,6.872-3.399V7C39.303,7,36.699,10.401,32.502,10.401z"/>
			</g>
			<g id="icon-rubric">
				<path d="M24,5.056c-8.491,0-15.675,5.585-18.082,13.282h16.194v-5.884
					L37.238,23.94L22.112,35.584v-5.883H5.933C8.353,37.377,15.524,42.943,24,42.943c10.463,0,18.943-8.48,18.943-18.943
					S34.463,5.056,24,5.056z"/>
			</g>
			<g id="icon-struggles">
				<path d="M38.385,11.594c-1.484,0-2.686,1.201-2.686,2.685v5.146
					c0,1.483,1.201,2.685,2.686,2.685c1.481,0,2.684-1.202,2.684-2.685v-5.146C41.068,12.795,39.866,11.594,38.385,11.594z
					 M31.225,22.109c1.481,0,2.685-1.202,2.685-2.685v-8.949c0-1.483-1.203-2.685-2.685-2.685c-1.483,0-2.685,1.202-2.685,2.685v8.949
					C28.54,20.907,29.741,22.109,31.225,22.109z M16.906,22.109c1.482,0,2.685-1.202,2.685-2.685v-8.949
					c0-1.483-1.202-2.685-2.685-2.685c-1.483,0-2.685,1.202-2.685,2.685v8.949C14.222,20.907,15.423,22.109,16.906,22.109z
					 M24.065,23.899c1.482,0,2.685-1.202,2.685-2.685V8.685C26.75,7.202,25.548,6,24.065,6c-1.483,0-2.685,1.202-2.685,2.685v12.529
					C21.381,22.697,22.582,23.899,24.065,23.899z M38.385,23.619c-1.515,0-2.817-0.845-3.506-2.08c-0.635,1.39-2.027,2.36-3.654,2.36
					c-1.311,0-2.462-0.635-3.197-1.603c-0.307,1.921-1.956,3.392-3.962,3.392c-1.939,0-3.557-1.371-3.939-3.196
					c-0.586,0.785-1.442,1.356-2.44,1.552c2.971,1.805,5.951,5.929,6.91,9.617c-0.758-1.526-1.968-3.183-3.683-4.896
					c-4.892-4.891-8.481-3.095-8.481-6.673c0-3.58,1.715-8.894-0.914-8.894s-4.586,8.901-4.586,12.481s5.519,16.155,12.602,16.155
					c0.417,0,0.81-0.024,1.186-0.065c-0.084,0.053-0.16,0.097-0.221,0.129c0.185-0.053,0.466-0.107,0.845-0.107
					c3.579,0,5.405-1.774,5.405-1.774s1.776,1.774,5.445,1.774c3.668,0,8.875-10.807,8.875-16.102c0-0.902-0.213-1.807-0.558-2.689
					C39.893,23.385,39.168,23.619,38.385,23.619z M20.498,41.896C20.187,41.988,20.169,42.073,20.498,41.896L20.498,41.896z"/>
			</g>
			<g id="icon-ourbody">
				<path d="M39.75,23.983l-3.208-7.429c0,0-0.234-1.604-3.067-2.189
					c1.326-0.783,2.225-2.212,2.225-3.864C35.699,8.015,33.686,6,31.197,6c-2.485,0-4.501,2.015-4.501,4.501
					c0,1.659,0.907,3.091,2.241,3.873c-2.863,0.628-3.031,2.406-3.031,2.406l-1.878,4.153l-1.891-4.378c0,0-0.234-1.604-3.068-2.19
					c1.326-0.783,2.226-2.211,2.226-3.863C21.295,8.015,19.279,6,16.793,6s-4.501,2.015-4.501,4.501c0,1.659,0.906,3.091,2.241,3.872
					c-2.863,0.629-3.03,2.407-3.03,2.407l-3.262,7.21c0,0-0.365,1.8,1.173,1.8s1.991-1.8,1.991-1.8l1.8-4.043l-0.017,2.253L9.98,31.195
					l2.319,0.007c0,0,0,7.987,0,8.999c0,0.867,0.624,1.798,1.802,1.798c1.151,0,1.804-0.931,1.804-1.798c0-1.562,0-9.021,0-9.021h1.798
					c0,0,0,7.419,0,9.021c0,0.539,0.531,1.799,1.805,1.799c1.152,0,1.8-1.221,1.8-1.799c0-3.469,0-8.999,0-8.999l2.73-0.015
					l-3.655-8.998l0.005-2.249l1.816,4.038c0,0,0.126,0.53,0.487,1.016c0.123,0.413,0.418,0.797,1.126,0.797
					c0.078,0,0.142-0.021,0.214-0.031c0.051,0.005,0.094,0.021,0.147,0.021c0.731,0,1.026-0.389,1.142-0.804
					c0.353-0.478,0.489-0.987,0.489-0.987l1.8-4.043l-0.018,2.253l-3.207,8.994l2.319,0.007c0,0,0,7.987,0,8.999
					c0,0.867,0.624,1.798,1.802,1.798c1.151,0,1.804-0.931,1.804-1.798c0-1.562,0-9.021,0-9.021h1.797c0,0,0,7.419,0,9.021
					c0,0.539,0.53,1.799,1.805,1.799c1.152,0,1.801-1.221,1.801-1.799c0-3.469,0-8.999,0-8.999l2.729-0.015l-3.654-8.998l0.006-2.249
					l1.816,4.038c0,0,0.397,1.803,1.974,1.803S39.75,23.983,39.75,23.983z"/>
			</g>
			<g id="icon-intersec">
				<path d="M40.006,8l-7.638,0l-3.185,3.148l5.131-0.003l-3.74,3.739
					c-2.623-1.743-5.958-1.964-8.763-0.664c-1.888-1.616-4.335-2.598-7.016-2.598c-5.966,0-10.803,4.836-10.803,10.804
					c0,5.351,3.896,9.783,9.004,10.642v2.831H9.396v3.602h3.601V44h3.601v-4.499H20.2v-3.602h-3.602v-2.828
					c1.998-0.338,3.81-1.221,5.276-2.496c3.319,1.51,7.364,0.91,10.093-1.819c3.076-3.078,3.461-7.827,1.152-11.322l3.738-3.736
					l0.003,5.126l3.147-3.184L40.006,8z M14.795,29.628c-3.978,0-7.202-3.226-7.202-7.202c0-3.978,3.224-7.202,7.202-7.202
					s7.202,3.224,7.202,7.202C21.998,26.402,18.773,29.628,14.795,29.628z M29.421,26.209c-1.396,1.396-3.36,1.848-5.144,1.396
					c0.842-1.538,1.321-3.302,1.321-5.179c0-1.904-0.495-3.689-1.359-5.242c1.793-0.467,3.775-0.02,5.181,1.386
					C31.528,20.68,31.529,24.099,29.421,26.209z M36.855,11.221l-0.076-0.077h0.076V11.221z"/>
			</g>
			<g id="icon-internat">
				<path d="M42,10.049l-4.396,2.193c-2.804-3.249-6.744-5.479-11.21-6.074
					c-0.233-0.116-0.369-0.169-0.369-0.169h-3.6c0,0-0.077,0.03-0.212,0.095c-4.718,0.467-8.892,2.757-11.822,6.156L6,10.049v2.25
					l3.153,1.581c-1.768,2.596-2.889,5.668-3.096,8.995H6v2.25h0.057c0.206,3.327,1.327,6.399,3.094,8.996L6,35.699v2.25l4.389-2.2
					c2.933,3.406,7.116,5.698,11.843,6.162c0.123,0.058,0.194,0.088,0.194,0.088H23.9c0.033,0,0.067,0.003,0.1,0.003
					c0.034,0,0.067-0.003,0.1-0.003h1.924c0,0,0.127-0.051,0.344-0.161c4.478-0.59,8.43-2.824,11.237-6.08L42,37.949v-2.25
					l-3.154-1.573c1.77-2.598,2.892-5.673,3.098-9.002H42v-2.25h-0.057c-0.207-3.33-1.33-6.404-3.101-9.001L42,12.299V10.049z
					 M35.164,13.459l-1.807,0.901c-0.629-1.576-1.379-2.877-2.159-3.946C32.681,11.212,34.024,12.236,35.164,13.459z M22.875,22.875
					h-7.629c0.067-2.097,0.329-3.946,0.722-5.579l6.908,3.462V22.875z M22.875,25.124v2.116l-6.89,3.454
					c-0.397-1.632-0.665-3.479-0.737-5.57H22.875z M25.125,25.124h8.076c-0.076,2.184-0.363,4.105-0.795,5.79l-7.281-3.631V25.124z
					 M25.125,22.875v-2.158l7.299-3.641c0.427,1.686,0.709,3.61,0.779,5.799H25.125z M28.452,9.264
					c1.221,1.383,2.468,3.284,3.381,5.856l-6.708,3.346V8.632C26.274,8.72,27.387,8.938,28.452,9.264z M22.875,8.636v9.872l-6.34-3.178
					c0.947-2.774,2.279-4.79,3.571-6.218C21.001,8.876,21.925,8.712,22.875,8.636z M17.565,10.025c-0.92,1.183-1.817,2.68-2.542,4.547
					l-2.199-1.102C14.159,12.035,15.77,10.865,17.565,10.025z M11.523,15.068l2.859,1.433c-0.512,1.82-0.857,3.93-0.937,6.374H8.75
					C8.941,19.976,9.944,17.303,11.523,15.068z M8.762,25.124h4.686c0.086,2.438,0.438,4.544,0.955,6.363l-2.768,1.388
					C10.028,30.663,8.993,28.009,8.762,25.124z M12.965,34.458l2.082-1.044c0.665,1.704,1.473,3.099,2.309,4.23
					C15.709,36.843,14.218,35.769,12.965,34.458z M19.905,38.612c-1.219-1.413-2.452-3.35-3.348-5.955l6.318-3.167v9.652
					C21.853,39.063,20.861,38.879,19.905,38.612z M25.125,39.146v-9.612l6.687,3.335c-0.862,2.41-2.016,4.234-3.163,5.597
					C27.525,38.824,26.346,39.056,25.125,39.146z M31.384,37.274c0.704-1.01,1.377-2.218,1.949-3.647l1.689,0.843
					C33.961,35.578,32.734,36.524,31.384,37.274z M36.358,32.885l-2.364-1.18c0.546-1.866,0.919-4.044,1.007-6.581h4.236
					C39.006,28.013,37.969,30.672,36.358,32.885z M39.248,22.875h-4.245c-0.081-2.543-0.447-4.724-0.989-6.592l2.456-1.225
					C38.053,17.295,39.058,19.972,39.248,22.875z"/>
			</g>
			<g id="icon-educult">
				<path d="M30.751,30.304c5.512,0,9.448,1.35,9.448,1.35v-19.8
					c0,0-3.937-1.35-9.448-1.35c-5.513,0-6.301,2.7-6.301,2.7v19.801C24.45,33.004,25.238,30.304,30.751,30.304z M25.802,32.996
					c0,0,0.336,0,5.849,0c5.512,0,8.549,0,8.549,0s-3.059-1.349-8.549-1.349C26.161,31.647,25.802,32.996,25.802,32.996z M23.55,33.004
					V13.203c0,0-0.788-2.7-6.3-2.7c-5.513,0-9.45,1.35-9.45,1.35v19.8c0,0,3.938-1.35,9.45-1.35
					C22.762,30.304,23.55,33.004,23.55,33.004z M22.189,32.996c0,0-0.395-1.349-5.839-1.349S7.8,32.996,7.8,32.996s3.037,0,8.55,0
					C21.862,32.996,22.189,32.996,22.189,32.996z M41.1,13.194v20.702h-34.2V13.194c0,0-0.9-0.07-0.9,0.872c0,0.942,0,22.078,0,22.078
					h0.898v0.002h14.404v0.45c0,0-0.03,0.899,0.884,0.899H25.8c0.97,0,0.902-0.899,0.902-0.899v-0.45h14.399v-0.002H42
					c0,0,0-21.155,0-22.069S41.1,13.194,41.1,13.194z"/>
			</g>
			<g id="icon-ideas">
				<path d="M29.684,33.478l1.868-0.952l-1.834-0.909H29.67
					c1.039-5.032,5.694-10.006,5.694-15.146c0-5.785-3.787-11.453-11.364-11.453c-7.578,0-11.364,5.865-11.364,11.453
					c0,4.968,4.661,10.08,5.698,15.146h-0.049l-1.857,0.945l1.891,0.949l-1.894,0.945l1.894,0.902l-1.894,0.984l1.894,0.91
					l-1.894,0.992l1.894,0.948l-1.897,0.938l1.864,0.957h0.979c0,2.538,9.476,2.519,9.476,0h0.979l1.834-0.947l-1.868-0.879
					l1.895-1.015L29.684,37.3l1.895-0.975l-1.895-0.92l1.895-0.986L29.684,33.478z M28.094,31.634H19.91
					c0-3.907-5.617-10.138-5.617-15.16s3.234-9.8,9.707-9.8c6.474,0,9.707,4.601,9.707,9.8S28.094,27.727,28.094,31.634z M27.787,19.31
					v-0.004l-1.892-1.895l-1.895,1.895l-1.895-1.895l-1.893,1.892l-0.946-2.839h-1.421l3.789,11.364l0,3.791h1.421l0-3.791l-2.487-7.46
					l1.538-1.536l1.915,1.894l1.874-1.894l1.538,1.54l-2.487,7.457l0,3.791h1.42l0.001-3.791l3.79-11.364h-1.421L27.787,19.31z"/>
			</g>
			<g id="icon-undefined">
				<polygon points="29.36,24 40.08,34.72 34.72,40.08 24,29.36 13.28,40.08 7.93,34.72 18.65,24 7.93,13.28 13.28,7.93 
					24,18.65 34.72,7.93 40.08,13.28"/>
			</g>
			<g id="icon-syndicate">
				<path d="M12.471,31.089C10.001,31.089,8,33.032,8,35.43s2.001,4.342,4.471,4.342s4.47-1.944,4.47-4.342
					S14.94,31.089,12.471,31.089z M8.114,18.686l0.015,6.313c8.21,0.35,14.724,5.365,14.828,14.944h6.322
					C29.097,29.044,21.607,19.39,8.114,18.686z M40,39.942C39.86,24.065,28.756,9.019,8.022,8.057l0.184,6.415
					c18.06,0.301,25.573,15.224,25.289,25.379L40,39.942z"/>
			</g>
			<g id="icon-twitter">
				<path d="M42,12.834c-1.324,0.587-2.748,0.984-4.241,1.164c1.524-0.914,2.696-2.361,3.248-4.086
					c-1.428,0.846-3.009,1.461-4.69,1.792c-1.348-1.436-3.268-2.333-5.392-2.333c-4.08,0-7.387,3.307-7.387,7.387
					c0,0.579,0.065,1.142,0.191,1.683c-6.139-0.308-11.581-3.249-15.224-7.717c-0.635,1.091-1,2.36-1,3.713
					c0,2.563,1.304,4.823,3.286,6.147c-1.211-0.039-2.35-0.371-3.346-0.923c0,0.031,0,0.062,0,0.092c0,3.579,2.545,6.564,5.924,7.242
					c-0.619,0.169-1.272,0.26-1.945,0.26c-0.476,0-0.938-0.047-1.39-0.133c0.94,2.934,3.667,5.07,6.9,5.13
					c-2.528,1.98-5.713,3.161-9.173,3.161c-0.597,0-1.184-0.035-1.762-0.104c3.268,2.097,7.151,3.319,11.322,3.319
					c13.585,0,21.014-11.256,21.014-21.015c0-0.32-0.007-0.639-0.021-0.956C39.758,15.617,41.01,14.316,42,12.834z"/>
			</g>
			<g id="icon-facebook">
				<path d="M24.787,42V25.579H30.3l0.825-6.4h-6.338v-4.085c0-1.853,0.515-3.115,3.172-3.115l3.389-0.001V6.252
					C30.762,6.174,28.75,6,26.409,6c-4.886,0-8.23,2.982-8.23,8.46v4.719h-5.526v6.4h5.526V42H24.787z"/>
			</g>
			<g id="icon-googleplus">
				<path d="M24.87,26.41l-1.594-1.238c-0.485-0.402-1.149-0.934-1.149-1.907c0-0.978,0.664-1.599,1.24-2.174
					c1.857-1.462,3.713-3.018,3.713-6.297c0-3.372-2.121-5.145-3.138-5.987h2.741L29.56,7h-8.716c-2.393,0-5.84,0.565-8.364,2.649
					c-1.902,1.641-2.83,3.904-2.83,5.941c0,3.458,2.655,6.963,7.344,6.963c0.442,0,0.927-0.043,1.415-0.089
					c-0.219,0.533-0.44,0.976-0.44,1.73c0,1.373,0.706,2.214,1.327,3.013c-1.992,0.138-5.711,0.357-8.453,2.044
					c-2.61,1.552-3.405,3.811-3.405,5.407c0,3.282,3.095,6.341,9.512,6.341c7.61,0,11.639-4.21,11.639-8.378
					C28.588,29.559,26.817,28.051,24.87,26.41z M19.074,21.312c-3.807,0-5.531-4.921-5.531-7.891c0-1.156,0.219-2.35,0.972-3.282
					c0.709-0.888,1.945-1.465,3.099-1.465c3.67,0,5.574,4.966,5.574,8.16c0,0.799-0.088,2.215-1.105,3.238
					C21.371,20.782,20.18,21.312,19.074,21.312z M19.118,39.143c-4.734,0-7.787-2.265-7.787-5.413s2.83-4.213,3.804-4.566
					c1.857-0.624,4.248-0.712,4.646-0.712c0.442,0,0.663,0,1.016,0.045c3.365,2.396,4.826,3.589,4.826,5.855
					C25.624,37.097,23.367,39.143,19.118,39.143z M36.114,21.315v-4.434h-2.189v4.434H29.5v2.214h4.425v4.46h2.189v-4.46h4.45v-2.214
					H36.114z"/>
			</g>
			<g id="icon-tumblr">
				<path d="M32.614,34.756c-0.669,0.319-1.95,0.597-2.904,0.621c-2.882,0.077-3.442-2.024-3.466-3.549V20.622h7.229V15.17
					H26.27V6c0,0-5.187,0-5.271,0c-0.087,0-0.239,0.076-0.26,0.269c-0.308,2.807-1.621,7.733-7.083,9.703v4.65h3.644v11.762
					c0,4.027,2.971,9.749,10.814,9.614c2.646-0.046,5.585-1.152,6.232-2.109L32.614,34.756"/>
			</g>
			<g id="icon-linkedin">
				<path d="M19.37,38.338h6.432V27.534c0-0.58,0.041-1.156,0.213-1.569c0.464-1.155,1.522-2.352,3.297-2.352
					c2.328,0,3.26,1.773,3.26,4.376v10.349H39V27.244c0-5.943-3.171-8.708-7.404-8.708c-3.469,0-4.992,1.939-5.837,3.261h0.043V18.99
					H19.37C19.455,20.805,19.37,38.338,19.37,38.338L19.37,38.338z"/>
				<path d="M15.81,38.338V18.99H9.379v19.348H15.81z M12.596,16.347c2.243,0,3.639-1.485,3.639-3.342
					c-0.042-1.899-1.396-3.342-3.596-3.342C10.439,9.662,9,11.105,9,13.004c0,1.857,1.396,3.342,3.554,3.342H12.596L12.596,16.347z"/>
			</g>
			<g id="icon-pinterest">
				<path d="M24.887,5.057c-10.339,0-15.552,7.413-15.552,13.595c0,3.743,1.416,7.072,4.456,8.313
					c0.498,0.205,0.944,0.008,1.089-0.544c0.101-0.382,0.338-1.346,0.445-1.746c0.145-0.546,0.088-0.737-0.313-1.213
					c-0.876-1.034-1.437-2.373-1.437-4.268c0-5.5,4.115-10.423,10.715-10.423c5.844,0,9.055,3.571,9.055,8.34
					c0,6.275-2.777,11.571-6.9,11.571c-2.276,0-3.98-1.883-3.435-4.192c0.654-2.756,1.922-5.732,1.922-7.722
					c0-1.782-0.956-3.267-2.935-3.267c-2.328,0-4.198,2.407-4.198,5.633c0,2.054,0.695,3.443,0.695,3.443s-2.382,10.092-2.799,11.858
					c-0.831,3.52-0.125,7.835-0.065,8.271c0.034,0.258,0.367,0.32,0.517,0.125c0.215-0.28,2.987-3.702,3.929-7.121
					c0.267-0.969,1.531-5.982,1.531-5.982c0.755,1.442,2.965,2.712,5.315,2.712c6.996,0,11.742-6.377,11.742-14.914
					C38.665,11.068,33.197,5.057,24.887,5.057z"/>
			</g>
			<g id="icon-stumbleupon">
				<path d="M24,9.129c-4.444,0-8.047,3.603-8.047,8.048v11.435c0,1.053-0.854,1.906-1.906,1.906
					c-1.052,0-1.906-0.854-1.906-1.906v-5.083H6v5.295c0,4.443,3.603,8.046,8.047,8.046s8.047-3.603,8.047-8.046V17.177
					c0-1.053,0.853-1.906,1.906-1.906c1.053,0,1.905,0.853,1.905,1.906v2.33l2.542,1.165l3.6-1.165v-2.33
					C32.047,12.732,28.444,9.129,24,9.129z M25.905,23.636v5.188c0,4.443,3.604,8.046,8.048,8.046S42,33.268,42,28.824v-5.083h-6.142
					v5.083c0,1.051-0.853,1.905-1.905,1.905s-1.906-0.854-1.906-1.905v-5.188l-3.6,1.164L25.905,23.636z"/>
			</g>
			<g id="icon-fullscreen">
				<polygon points="26.32,17.44 30.81,12.95 28.69,10.83 38,10 37.17,19.31 35.05,17.19 30.56,21.68"/>
				<polygon points="17.19,12.95 21.68,17.44 17.44,21.68 12.95,17.19 10.83,19.31 10,10 19.31,10.83"/>
				<polygon points="21.68,30.56 17.19,35.05 19.31,37.17 10,38 10.83,28.69 12.95,30.81 17.44,26.32"/>
				<polygon points="37.17,28.69 38,38 28.69,37.17 30.81,35.05 26.32,30.56 30.56,26.32 35.05,30.81"/>
			</g>
			<g id="icon-external">
				<polygon points="27,10 27,14 33.205,14 18.508,28.67 21.319,31.484 36,16.772 36,23 40,23 40,10"/>
				<polygon points="31,35 11,35 11,19 25.41,19 28.384,16 8,16 8,38 34,38 34,21.745 31,24.745"/>
			</g>
			<g id="icon-stop">
				<path d="M31.69,6H16.796L6,16.675v14.895L16.796,42H31.69L42,31.569V16.675L31.69,6z M34.587,31.06l-3.528,3.528
					L24,27.529l-7.059,7.059l-3.529-3.528L20.47,24l-7.058-7.059l3.529-3.529L24,20.47l7.059-7.058l3.528,3.529L27.528,24L34.587,31.06
					z"/>
			</g>
			<g id="icon-reload">
				<path d="M30.305,9.629l3.02-1.25l-1.74-4.202l-10.51,4.35l4.353,10.51l4.203-1.742l-1.506-3.636
					c4.24,1.654,7.251,5.767,7.251,10.591c0,6.282-5.094,11.373-11.375,11.373c-6.282,0-11.374-5.091-11.374-11.373
					c0-4.358,2.453-8.139,6.052-10.049l-1.742-4.204c-5.246,2.604-8.86,8.001-8.86,14.253c0,8.792,7.131,15.927,15.924,15.927
					c8.794,0,15.924-7.135,15.924-15.927C39.924,17.697,35.963,12.072,30.305,9.629z"/>
			</g>
			<g id="icon-download">
				<path d="M40,34v4c0,1.1-0.9,2-2,2H10c-1.1,0-2-0.9-2-2v-4c0-1.1,0.9-2,2-2h28C39.1,32,40,32.9,40,34z"/>
				<polygon points="36,18 24,30 12,18 18,18 18,4 30,4 30,18"/>
			</g>
			<g id="icon-upload">
				<polygon points="12,30 24,18 36,30 30,30 30,44 18,44 18,30"/>
				<path d="M40,10v4c0,1.1-0.9,2-2,2H10c-1.1,0-2-0.9-2-2v-4c0-1.1,0.9-2,2-2h28C39.1,8,40,8.9,40,10z"/>
			</g>
			<g id="icon-connect">
				<path d="M32,23v-6c0-4.42-3.58-8-8-8s-8,3.58-8,8v6c-1.1,0-2,0.9-2,2v12c0,1.1,0.9,2,2,2h16c1.1,0,2-0.9,2-2V25
					C34,23.9,33.1,23,32,23z M29,23H19v-6c0-2.76,2.24-5,5-5s5,2.24,5,5V23z"/>
			</g>
			<g id="icon-disconnect">
				<path d="M41,17v6h-3v-6c0-2.76-2.24-5-5-5s-5,2.24-5,5v6c2,0,2,0.9,2,2v12c0,1.1-0.4,2-1.5,2h-16c-1.1,0-2.5-0.9-2.5-2
					V25c0-1.1,1.4-2,2.5-2H25v-6c0-4.42,3.58-8,8-8S41,12.58,41,17z"/>
			</g>
			<g id="icon-folder">
				<polygon points="42,22 36,36 8,36 8,16 10,16 14,12 22,12 26,16 36,16 36,20 13,20 12,22.33 12,26.67 14,22"/>
			</g>
			<g id="icon-menu">
				<rect x="8" y="11" width="32" height="6"/>
				<rect x="8" y="21" width="32" height="6"/>
				<rect x="8" y="31" width="32" height="6"/>
			</g>
			<g id="icon-filter">
				<rect x="8" y="11" width="6" height="6"/>
				<rect x="17" y="11" width="23" height="6"/>
				<path d="M8,27h6v-6H8V27z M10,23h2v2h-2V23z"/>
				<polygon points="17,27 21,27 21,25 19,25 19,23 21,23 21,21 17,21"/>
				<polygon points="36,23 38,23 38,25 36,25 36,27 40,27 40,21 36,21"/>
				<rect x="23" y="21" width="4" height="2"/>
				<rect x="30" y="21" width="4" height="2"/>
				<rect x="30" y="25" width="4" height="2"/>
				<rect x="23" y="25" width="4" height="2"/>
				<path d="M8,37h6v-6H8V37z M10,33h2v2h-2V33z"/>
				<polygon points="17,37 21,37 21,35 19,35 19,33 21,33 21,31 17,31"/>
				<polygon points="36,33 38,33 38,35 36,35 36,37 40,37 40,31 36,31"/>
				<rect x="23" y="31" width="4" height="2"/>
				<rect x="30" y="31" width="4" height="2"/>
				<rect x="30" y="35" width="4" height="2"/>
				<rect x="23" y="35" width="4" height="2"/>
			</g>
			<g id="icon-sort">
				<rect x="8" y="11" width="6" height="6"/>
				<rect x="17" y="11" width="23" height="6"/>
				<rect x="8" y="21" width="6" height="6"/>
				<rect x="17" y="21" width="11" height="6"/>
				<rect x="8" y="31" width="6" height="6"/>
				<rect x="17" y="31" width="17" height="6"/>
			</g>
			<g id="icon-add">
				<polygon points="36,21 36,27 27,27 27,36 21,36 21,27 12,27 12,21 21,21 21,12 27,12 27,21"/>
			</g>
			<g id="icon-remove">
				<path d="M35,16c-2,0-20.125,0-22,0s-2,3-2,3l2,18c0,0,0.5,4,4,4s10.5,0,14,0s4-4,4-4l2-18
					C37,19,37,16,35,16z M32,22v12c0,0-0.063,1.5-1.5,1.5S29,34,29,34V22c0,0,0.188-1.5,1.5-1.5S32,22,32,22z M26,22.5v11
					c0,0-0.25,2-2,2s-2-2-2-2v-11c0,0,0.188-2,2-2S26,22.5,26,22.5z M19,22v12c0,0-0.063,1.5-1.5,1.5S16,34,16,34V22
					c0,0,0.188-1.5,1.5-1.5S19,22,19,22z"/>
				<path d="M36,14c0,0,1-1,1-2c0,0-1.188-4-4-4S17.75,8,15,8s-4,4-4,4c0,1,1,2,1,2H36z"/>
			</g>
			<g id="icon-confirm">
				<path d="M37.61,20.113L21,36.723l-10.61-10.61c-0.78-0.779-0.78-2.05,0-2.829l1.42-1.42c0.78-0.781,2.04-0.781,2.83,0
					L21,28.223l12.36-12.36c0.79-0.78,2.05-0.78,2.83,0l1.42,1.42C38.39,18.063,38.39,19.333,37.61,20.113z"/>
			</g>
			<g id="icon-cancel">
				<path d="M36.02,31.78c0.78,0.779,0.78,2.05,0,2.83L34.61,36.02c-0.78,0.78-2.051,0.78-2.83,0L24,28.24l-7.78,7.779
					c-0.78,0.78-2.05,0.78-2.83,0l-1.41-1.409c-0.78-0.78-0.78-2.051,0-2.83L19.76,24l-7.78-7.78c-0.78-0.78-0.78-2.05,0-2.83
					l1.41-1.41c0.78-0.78,2.05-0.78,2.83,0L24,19.76l7.78-7.78c0.779-0.78,2.05-0.78,2.83,0l1.409,1.41c0.78,0.78,0.78,2.05,0,2.83
					L28.24,24L36.02,31.78z"/>
			</g>
			<g id="icon-help">
				<path d="M23.995,9.377c-5.46,0-9.9,4.623-9.99,9.623h4c0.09-3,2.74-5.623,5.99-5.623c3.32,0,6.042,2.784,6.042,6.104
					c0,2.83-8.037,6.934-8.037,10.934C22,30.821,22,32,22,32h4c0,0,0-0.21,0-0.585c0-4,8.037-7.073,8.037-11.934
					C34.037,13.951,29.525,9.377,23.995,9.377z"/>
				<circle cx="24" cy="37" r="3"/>
			</g>
			<g id="icon-info">
				<path d="M24,8C15.164,8,8,15.164,8,24c0,8.837,7.164,16,16,16c8.837,0,16-7.163,16-16C40,15.164,32.837,8,24,8z M22,14
					h4v4h-4V14z M29,34H19v-3h3v-8h-2v-3h6v11h3V34z"/>
			</g>
			<g id="icon-notice">
				<path d="M30.908,8H17.669L8,17.381v13.238L17.669,40h13.239L40,30.619V17.381L30.908,8z M24,34c-1.104,0-2-0.896-2-2
					s0.896-2,2-2s2,0.896,2,2S25.104,34,24,34z M25.5,28h-3l-1-14h5L25.5,28z"/>
			</g>
			<g id="icon-warning">
				<path d="M40.875,35.529L26.252,6.73c0,0-0.563-1.73-2.251-1.73c-1.688,0-2.25,1.723-2.25,1.723L7.125,35.527
					c0,0-1.124,3.473,3.376,3.473c4.5,0,22.5,0,27.001,0C42.001,39,40.875,35.529,40.875,35.529z M24,34c-1.104,0-2-0.896-2-2
					s0.896-2,2-2s2,0.896,2,2S25.104,34,24,34z M25.5,28h-3l-1-14h5L25.5,28z"/>
			</g>
			<g id="icon-anonymous">
				<path d="M24,16c-9.905,0-17.937,3.567-17.937,7.972c0,7.972,9.387,8.948,12.437,7.424
					c1.894-0.945,3.507-4.435,5.5-4.435s3.605,3.489,5.5,4.435c3.051,1.524,12.437,0.548,12.437-7.424C41.937,19.567,33.905,16,24,16z
					 M16.028,25.965c-2.751,0-4.982-0.893-4.982-1.993s2.231-1.993,4.982-1.993c2.752,0,4.983,0.892,4.983,1.993
					S18.78,25.965,16.028,25.965z M31.972,25.965c-2.752,0-4.982-0.893-4.982-1.993s2.23-1.993,4.982-1.993s4.982,0.892,4.982,1.993
					S34.724,25.965,31.972,25.965z"/>
			</g>
			<g id="icon-admin">
				<path d="M29.101,24.18c0,0-2.249,2.249-3.663,3.663s-9.341,10.67-9.341,10.67s-3.122,3.439-6.049,0.513
					c-2.928-2.928,0.486-6.076,0.486-6.076s9.248-7.936,10.662-9.349c1.415-1.415,3.663-3.663,3.663-3.663
					c-1.294-2.949-0.877-6.817,1.626-9.334c2.545-2.545,6.448-2.984,9.362-1.655l-5.509,5.509c0,0-1.782,2.122,0.17,4.073
					c1.951,1.952,4.073,0.17,4.073,0.17l5.508-5.509c1.329,2.914,0.884,6.81-1.662,9.355C35.916,25.057,32.049,25.474,29.101,24.18z"/>
			</g>
			<g id="icon-writer">
				<path d="M42,14.1c0,0-3.15,3.15-5.85,5.85c-2.7,2.7-7.2,4.5-7.2,4.5
					s0.45,0.45,0,0.899l-2.7,2.7c-0.45,0.45-0.9,0-0.9,0L24.45,27.15l-2.7,2.699c0,0,0.45,3.15-2.25,5.851
					C18.6,34.8,6.45,38.85,6.45,38.85L6,38.4L20.85,23.55l-0.9-0.9c0,0-0.45-0.45,0-0.9c0.45-0.45,2.25-2.25,2.7-2.7
					c0.45-0.45,0.9,0,0.9,0s1.8-4.5,4.5-7.2C30.75,9.15,33.9,6,33.9,6L42,14.1z"/>
			</g>
			<g id="icon-reader">
				<path d="M35.52,24.11C34.85,22.85,33.52,22,32,22h-6c-2.21,0-4,1.79-4,4h-4c0-2.21-1.79-4-4-4h-3.83L14,18v-2.83
					c0,0-6.531,6.877-6.53,6.87C5.51,22.3,4,23.97,4,26v2c0,2.21,1.79,4,4,4h6c2.21,0,4-1.79,4-4h4c0,2.21,1.79,4,4,4h6
					c2.21,0,4-1.79,4-4v-1.57L44,18v-2.83L35.52,24.11z M16,28c0,1.1-0.9,2-2,2H8c-1.1,0-2-0.9-2-2v-2c0-1.1,0.9-2,2-2h6
					c1.1,0,2,0.9,2,2V28z M34,28c0,1.1-0.9,2-2,2h-6c-1.1,0-2-0.9-2-2v-2c0-1.1,0.9-2,2-2h6c1.1,0,2,0.9,2,2V28z"/>
			</g>
			<g id="icon-website">
				<path d="M44,21.47v-3.08l-3.52,0.646L25.5,7.852V4h-3v3.848L6.852,19.115L4,18.5v2.98l2.664,0.5l5.321,16.508L8.17,44
					h3.65l1.874-3h20.612l1.874,3h3.65l-3.813-5.513l5.322-16.477L44,21.47z M37.391,19.647l-3.04,0.576L25.5,13.723v-2.791
					L37.391,19.647z M27,23.42L25.85,27h-3.7L21,23.41l3-2.22L27,23.42z M22.5,19.19l-3.53,2.33l-2.925-0.556l6.455-4.423V19.19z
					 M18.67,24.23l1.05,3.08l-2.038,2.945l-2.144-6.612L18.67,24.23z M22.04,29h3.92l2.451,4h-8.822L22.04,29z M28.28,27.3l0.96-2.83
					l3.166-0.644L30.32,30.25L28.28,27.3z M28.17,21.47l-2.67-2.33v-2.596l5.563,4.33L28.17,21.47z M22.5,10.935v2.792l-9.566,6.595
					l-3.042-0.579L22.5,10.935z M9.621,22.534l3.023,0.567l3.243,9.748l-1.956,2.825L9.621,22.534z M15.838,38l2.144-3h12.037l2.144,3
					H15.838z M34.068,35.669l-1.955-2.827l3.184-9.603l3.044-0.619L34.068,35.669z"/>
			</g>
			<g id="icon-blog">
				<path d="M39.998,29.631c-0.013-0.6-0.014-1.139-0.016-1.623c-0.012-2.373-0.019-4.085-1.199-5.593
					c-1.342-1.706-3.406-1.999-5.082-2.047c0.284-1.193,0.364-2.514,0.233-3.942c-0.036-4.758-3.624-8.289-8.605-8.425L25.258,8
					l-7.62,0.116l-0.082-0.002c-2.963,0-5.306,0.873-6.964,2.594c-1.024,1.065-2.187,2.925-2.328,5.933H8.262v0.061
					c-0.011,0.249-0.018,0.502-0.013,0.766L8.058,28.73c-0.018,0.238-0.027,0.483-0.029,0.732c-0.193,3.321,0.593,5.934,2.34,7.771
					C12.116,39.068,14.698,40,18.043,40c0.071,0,0.145-0.003,0.218-0.003H29.93c2.984-0.023,5.505-0.997,7.291-2.811
					c1.783-1.811,2.744-4.389,2.777-7.46L40,29.679L39.998,29.631z M18.256,14.576l6.51-0.008c1.535,0.024,2.759,1.38,2.734,2.894
					c-0.023,1.499-1.264,2.588-2.778,2.588c-0.014,0-6.554,0.008-6.554,0.008c-1.534-0.024-2.734-1.292-2.734-2.784
					C15.434,15.76,16.717,14.56,18.256,14.576z M30.492,32.617h-13.02c-1.479,0-2.684-1.14-2.771-2.576l0.009-0.458
					c0.148-1.377,1.328-2.448,2.762-2.448h13.02c1.535,0,2.779,1.228,2.779,2.742C33.271,31.39,32.027,32.617,30.492,32.617z"/>
			</g>
			<g id="icon-newsletter">
				<path d="M35.61,16.8l-1.341,1.34L38,20v4.25l-8.67,5.42L24,27l-5.33,2.67
					L10,24.25V20l3.73-1.86l-1.34-1.34L8,19v19.75C8,40.41,9.59,42,11.25,42h25.5c1.66,0,3.25-1.59,3.25-3.25V19L35.61,16.8z M10,26.25
					l6.89,4.31L10,34V26.25z M38,38c0,1.1-0.9,2-2,2H12c-1.1,0-2-0.9-2-2v-2l14-7l14,7V38z M38,34l-6.89-3.44L38,26.25V34z"/>
				<path d="M36,13.308l-8.292-1.205L24,4.589l-3.707,7.514L12,13.308l6.001,5.848l-1.417,8.256L24,23.515l7.415,3.896
					L30,19.155L36,13.308z M22.737,10.949h2.526v2.526h-2.526V10.949z M27.158,22.317h-6.315v-1.895h1.894v-3.789h-1.264v-1.896h3.79
					v5.685h1.896V22.317z"/>
			</g>
			<g id="icon-mailinglist">
				<path d="M40.5,17.87L30.07,7.44l-1.41-1.41L28.13,5.5
					c-1.18-1.17-3.43-1.17-4.6,0L5.5,23.53c-1.17,1.17-1.17,3.42,0,4.6l0.53,0.53l1.41,1.41L17.87,40.5c1.18,1.17,3.43,1.17,4.6,0
					l4.94-4.94L26,34.15l-4.41,4.409c-0.78,0.771-2.06,0.771-2.83,0l-9.02-9.02l16.09-3.71l3.71-16.09l9.02,9.02
					c0.771,0.78,0.771,2.05,0,2.83L34.15,26l1.409,1.41l4.94-4.94C41.67,21.3,41.67,19.05,40.5,17.87z M24.41,24.41L8.33,28.13
					l-0.89-0.89c-0.77-0.78-0.77-2.05,0-2.83L24.41,7.44c0.78-0.77,2.05-0.77,2.83,0l0.89,0.89L24.41,24.41z"/>
				<polygon points="40,28.76 40,40 28.76,40 31.55,37.21 23.23,28.89 
					27.83,27.83 28.89,23.23 37.21,31.55"/>
			</g>
		</svg>