<?xml version="1.0" encoding="utf-8"?>
<!DOCTYPE svg PUBLIC "-//W3C//DTD SVG 1.1//EN" "http://www.w3.org/Graphics/SVG/1.1/DTD/svg11.dtd">
<svg version="1.1" xmlns:sketch="http://www.bohemiancoding.com/sketch/ns"
	 xmlns="http://www.w3.org/2000/svg" xmlns:xlink="http://www.w3.org/1999/xlink" x="0px" y="0px" width="400px" height="400px"
	 viewBox="-50.5 410.5 400 400" enable-background="new -50.5 410.5 400 400" xml:space="preserve">
	<g id="logo">
		<path id="Shape" fill="#131313" d="M229.874,425.311h-23.52l24.459,26.54v12.633h-50.379v-14.79h24.454l-24.454-26.542V410.5
			h49.439V425.311L229.874,425.311z M170.449,425.311h-23.52l24.458,26.54v12.633h-50.379v-14.79h24.457l-24.457-26.542V410.5h49.44
			V425.311L170.449,425.311z M111.605,425.912H86.227v23.161h25.378v15.41H68.189V410.5h43.416V425.912L111.605,425.912z"/>
		<path id="Shape_1_" fill="#1572B6" d="M33.605,778.376L7.816,489.128h283.369l-25.813,289.201L149.326,810.5L33.605,778.376z"/>
		<path id="Shape_2_" fill="#33A9DC" d="M149.502,785.91l93.768-25.996l22.061-247.135H149.502V785.91z"/>
		<g id="Group" transform="translate(55.000000, 142.000000)">
			<path id="Shape_3_" fill="#FFFFFF" d="M94.501,475.572h46.942l3.242-36.327H94.501v-35.477h0.123h88.832l-0.852,9.519
				l-8.718,97.759H94.501V475.572z"/>
			<path id="Shape_4_" fill="#EBEBEB" d="M94.713,567.702l-0.155,0.044l-39.508-10.67l-2.527-28.291H33.326H16.913l4.969,55.699
				l72.668,20.173l0.163-0.045V567.702z"/>
			<path id="Shape_5_" fill="#FFFFFF" d="M138.429,509.544l-4.272,47.509l-39.565,10.68v36.908l72.725-20.156l0.534-5.993
				l6.171-68.947H138.429z"/>
			<path id="Shape_6_" fill="#EBEBEB" d="M94.624,403.769v22.033v13.355v0.088H9.048H8.935l-0.712-7.974l-1.616-17.984l-0.848-9.519
				H94.624z"/>
			<path id="Shape_7_" fill="#EBEBEB" d="M94.501,475.575v22.034v13.354v0.087H55.606h-0.113l-0.711-7.973l-1.617-17.984
				l-0.848-9.519H94.501z"/>
		</g>
	</g>
</svg>
