<?xml version="1.0" encoding="utf-8"?>
<!DOCTYPE svg PUBLIC "-//W3C//DTD SVG 1.1//EN" "http://www.w3.org/Graphics/SVG/1.1/DTD/svg11.dtd">
<svg version="1.1" xmlns="http://www.w3.org/2000/svg" xmlns:xlink="http://www.w3.org/1999/xlink" x="0px"
	 y="0px" width="400px" height="400px" viewBox="62.295 264.625 400 400" enable-background="new 62.295 264.625 400 400"
	 xml:space="preserve">
	<g id="logo">
		<g>
			<path fill="#0868AC" d="M140.078,327.976c-24.791,35.635-21.706,81.99-2.769,119.851c0.45,0.907,0.925,1.801,1.39,2.691
				c0.295,0.567,0.575,1.147,0.886,1.706c0.172,0.336,0.368,0.664,0.551,0.982c0.323,0.604,0.654,1.176,0.987,1.766
				c0.587,1.037,1.19,2.067,1.806,3.098c0.343,0.568,0.68,1.135,1.032,1.7c0.683,1.104,1.382,2.193,2.099,3.281
				c0.297,0.466,0.587,0.931,0.893,1.381c0.988,1.473,1.999,2.941,3.038,4.386c0.026,0.038,0.055,0.077,0.086,0.115
				c0.166,0.231,0.345,0.456,0.515,0.69c0.901,1.241,1.83,2.467,2.767,3.683c0.346,0.439,0.695,0.886,1.042,1.326
				c0.841,1.054,1.694,2.101,2.561,3.146c0.324,0.388,0.65,0.785,0.978,1.17c1.165,1.369,2.353,2.734,3.565,4.07
				c0.024,0.022,0.053,0.052,0.072,0.074c0.053,0.059,0.096,0.095,0.139,0.152c1.183,1.291,2.397,2.557,3.622,3.818
				c0.381,0.394,0.771,0.783,1.163,1.172c0.953,0.958,1.917,1.899,2.894,2.836c0.398,0.379,0.791,0.765,1.183,1.125
				c1.305,1.229,2.621,2.435,3.967,3.609c0.022,0.021,0.04,0.04,0.06,0.05c0.23,0.204,0.465,0.396,0.692,0.592
				c1.181,1.022,2.387,2.04,3.601,3.04c0.494,0.4,0.993,0.793,1.49,1.191c0.994,0.793,1.995,1.576,3.004,2.345
				c0.534,0.407,1.069,0.814,1.605,1.222c1.114,0.818,2.237,1.627,3.371,2.415c0.412,0.299,0.812,0.591,1.225,0.872
				c0.117,0.081,0.22,0.162,0.336,0.241c1.076,0.741,2.176,1.452,3.273,2.163c0.471,0.314,0.938,0.64,1.416,0.947
				c1.683,1.063,3.394,2.117,5.121,3.133c0.47,0.271,0.947,0.534,1.416,0.8c1.273,0.736,2.552,1.455,3.846,2.159
				c0.7,0.376,1.42,0.731,2.127,1.095c0.915,0.479,1.822,0.965,2.753,1.43c0.21,0.104,0.426,0.204,0.637,0.307
				c0.371,0.18,0.75,0.355,1.123,0.544c1.44,0.688,2.892,1.365,4.363,2.019c0.311,0.14,0.613,0.276,0.92,0.413
				c1.681,0.735,3.375,1.439,5.084,2.112c0.413,0.169,0.827,0.327,1.241,0.489c1.583,0.608,3.187,1.21,4.799,1.777
				c0.204,0.074,0.4,0.139,0.604,0.211c1.766,0.615,3.552,1.188,5.349,1.751c0.431,0.122,0.861,0.26,1.293,0.386
				c1.83,0.551,3.639,1.21,5.527,1.56c119.89,21.862,154.716-72.047,154.716-72.047c-29.25,38.104-81.168,48.156-130.36,36.966
				c-1.861-0.422-3.669-1.004-5.488-1.539c-0.46-0.137-0.915-0.276-1.368-0.416c-1.772-0.543-3.536-1.113-5.285-1.72
				c-0.242-0.087-0.483-0.175-0.726-0.261c-1.569-0.552-3.121-1.133-4.662-1.728c-0.436-0.175-0.872-0.341-1.308-0.515
				c-1.694-0.669-3.374-1.365-5.034-2.092c-0.339-0.146-0.667-0.3-1.005-0.445c-1.425-0.646-2.836-1.297-4.243-1.974
				c-0.407-0.194-0.814-0.387-1.229-0.59c-1.104-0.536-2.191-1.109-3.281-1.671c-0.729-0.383-1.471-0.746-2.193-1.146
				c-1.332-0.713-2.634-1.452-3.935-2.207c-0.439-0.246-0.886-0.485-1.328-0.742c-1.729-1.016-3.437-2.069-5.126-3.138
				c-0.465-0.298-0.921-0.619-1.382-0.923c-1.227-0.791-2.447-1.594-3.646-2.426c-0.398-0.266-0.784-0.557-1.177-0.824
				c-1.16-0.819-2.306-1.648-3.446-2.491c-0.517-0.384-1.026-0.772-1.529-1.156c-1.042-0.798-2.082-1.604-3.112-2.431
				c-0.464-0.369-0.927-0.74-1.385-1.114c-1.308-1.073-2.599-2.154-3.874-3.263c-0.135-0.118-0.283-0.233-0.425-0.357
				c-1.378-1.212-2.735-2.455-4.076-3.704c-0.389-0.37-0.766-0.731-1.147-1.104c-0.991-0.943-1.966-1.893-2.924-2.87
				c-0.388-0.383-0.771-0.762-1.146-1.145c-1.221-1.248-2.421-2.516-3.595-3.8c-0.057-0.062-0.12-0.12-0.176-0.188
				c-1.241-1.355-2.453-2.744-3.641-4.144c-0.324-0.387-0.635-0.757-0.954-1.134c-0.887-1.069-1.766-2.148-2.622-3.241
				c-0.323-0.39-0.643-0.792-0.961-1.197c-1.033-1.339-2.04-2.676-3.029-4.031c-27.31-37.251-37.122-88.633-15.293-130.828"/>
			<path fill="#0868AC" d="M217.03,297.959c-17.926,25.8-16.954,60.334-2.968,87.619c2.343,4.576,4.98,9.012,7.929,13.241
				c2.688,3.844,5.664,8.428,9.228,11.521c1.292,1.423,2.643,2.808,4.022,4.174c0.35,0.357,0.707,0.697,1.062,1.045
				c1.339,1.3,2.7,2.579,4.108,3.823c0.06,0.041,0.11,0.098,0.169,0.146c0.014,0.013,0.029,0.019,0.037,0.034
				c1.557,1.365,3.167,2.68,4.803,3.972c0.362,0.277,0.724,0.567,1.089,0.851c1.638,1.255,3.308,2.491,5.018,3.667
				c0.053,0.039,0.096,0.072,0.149,0.107c0.757,0.523,1.526,1.012,2.29,1.515c0.365,0.237,0.716,0.493,1.084,0.716
				c1.225,0.786,2.463,1.55,3.721,2.281c0.18,0.11,0.354,0.203,0.53,0.304c1.083,0.624,2.185,1.24,3.289,1.84
				c0.385,0.215,0.776,0.406,1.171,0.609c0.757,0.398,1.521,0.805,2.3,1.189c0.114,0.057,0.232,0.107,0.345,0.157
				c1.582,0.78,3.173,1.528,4.803,2.236c0.348,0.155,0.708,0.292,1.062,0.437c1.297,0.551,2.612,1.093,3.935,1.599
				c0.558,0.211,1.125,0.415,1.682,0.617c1.199,0.443,2.402,0.851,3.611,1.258c0.55,0.174,1.089,0.354,1.637,0.522
				c1.723,0.536,3.426,1.212,5.223,1.511c92.566,15.338,113.939-55.935,113.939-55.935c-19.268,27.746-56.571,40.982-96.382,30.651
				c-1.771-0.465-3.51-0.978-5.239-1.521c-0.531-0.158-1.053-0.333-1.576-0.506c-1.232-0.402-2.455-0.819-3.668-1.265
				c-0.559-0.203-1.112-0.407-1.657-0.618c-1.326-0.506-2.641-1.038-3.945-1.589c-0.354-0.154-0.715-0.291-1.064-0.452
				c-1.634-0.711-3.244-1.456-4.829-2.243c-0.819-0.399-1.62-0.82-2.42-1.235c-0.465-0.238-0.932-0.477-1.396-0.717
				c-1.033-0.561-2.061-1.142-3.064-1.729c-0.241-0.139-0.491-0.266-0.735-0.411c-1.253-0.736-2.486-1.49-3.711-2.267
				c-0.377-0.239-0.74-0.503-1.118-0.75c-0.806-0.521-1.613-1.05-2.405-1.59c-1.703-1.174-3.366-2.41-5.002-3.661
				c-0.374-0.294-0.752-0.584-1.126-0.882c-17.422-13.76-31.236-32.563-37.805-53.881c-6.88-22.11-5.397-46.93,6.525-67.072"/>
			<path fill="#0868AC" d="M281.753,275.528c-10.569,15.555-11.609,34.872-4.275,52.05c7.735,18.234,23.583,32.538,42.078,39.319
				c0.762,0.285,1.525,0.536,2.297,0.798c0.341,0.104,0.673,0.219,1.014,0.32c1.09,0.343,2.173,0.741,3.299,0.954
				c51.109,9.874,64.973-26.23,68.665-31.546c-12.144,17.485-32.556,21.683-57.593,15.607c-1.98-0.483-4.151-1.197-6.061-1.872
				c-2.444-0.872-4.852-1.865-7.194-2.989c-4.448-2.137-8.687-4.729-12.612-7.697c-22.409-17-36.329-49.434-21.707-75.847"/>
		</g>
		<g>
			<path fill="#131B28" d="M176.585,595.958l0.001-0.005l-3.195,11.326L176.585,595.958L176.585,595.958z"/>
			<path fill="#131B28" d="M193.02,620.545l-3.521-0.021L193.02,620.545z"/>
			<path fill="#131B28" d="M192.115,637.459h0.003l-21.098,0.076L192.115,637.459L192.115,637.459z"/>
			<path fill="#131B28" d="M196.538,620.566l-3.523-0.021L196.538,620.566z"/>
			<path fill="#131B28" d="M193.964,636.021l3.675-14.017l-3.675,14.019V636.021L193.964,636.021z"/>
			<path fill="#131B28" d="M271.641,571.476l-6.847,32.185L271.641,571.476z"/>
			<path fill="#131B28" d="M254.043,571.476l-5.197,24.043l5.197-24.045V571.476z"/>
			<path fill="#131B28" d="M270.469,570.026h-14.64c-0.812,0-1.619,0.652-1.792,1.446l-5.197,24.045l-5.198,24.045
				c-0.172,0.793-0.978,1.443-1.79,1.443h-8.882h-1.479c-10.251,0-9.066-7.09-6.967-16.805c0.021-0.099,0.042-0.193,0.063-0.294
				l0.23-1.223c0.014-0.081,0.031-0.159,0.044-0.231l0.467-2.493l0.501-2.672c0.153-0.805,0.384-1.983,0.535-2.723l2.362-11.544
				l2.365-11.545c0.163-0.796-0.37-1.45-1.182-1.45h-15.026c-0.812,0-1.616,0.654-1.783,1.449l-3.23,15.327l-3.231,15.328
				c-0.002,0.006-0.003,0.017-0.004,0.022l-0.3,1.424c-3.722,16.991-2.735,33.193,17.491,33.701c0.33,0.01,0.586,0.012,0.586,0.012
				h31.748c0.812,0,1.617-0.653,1.787-1.447l6.846-32.183l6.846-32.185C271.808,570.68,271.281,570.027,270.469,570.026
				L270.469,570.026z"/>
			<path fill="#131B28" d="M328.87,621.173c0.814,0,1.345,0.651,1.183,1.448l-1.422,6.948"/>
			<path fill="#131B28" d="M327.211,636.52l1.422-6.951l-1.424,6.954C327.209,636.52,327.211,636.52,327.211,636.52L327.211,636.52z"
				/>
			<path fill="#131B28" d="M325.428,637.982c0.001,0,0.005-0.001,0.007-0.001c-4.308,0.033-17.254,0.133-26.985,0.133
				C310.292,638.114,325.427,637.983,325.428,637.982L325.428,637.982z"/>
			<path fill="#131B28" d="M289.717,612.225c-0.013-0.762,0.854-2.072,1.666-2.072l-1.827-0.03
				C288.732,618.408,289.717,612.225,289.717,612.225L289.717,612.225z"/>
			<path fill="#131B28" d="M299.784,638.109c-0.094,0-0.189,0-0.282,0.003C299.595,638.109,299.691,638.109,299.784,638.109z"/>
			<path fill="#131B28" d="M328.87,621.173c0.814,0,1.345,0.651,1.183,1.448l-1.422,6.948l-0.231,1.133"/>
			<path fill="#131B28" d="M306.715,638.095h-0.061H306.715z"/>
			<path fill="#131B28" d="M303.121,638.105h-0.209H303.121z"/>
			<path fill="#131B28" d="M302.025,638.107c-0.117,0-0.23,0-0.345,0.002C301.794,638.107,301.907,638.107,302.025,638.107z"/>
			<path fill="#131B28" d="M300.908,638.109h-0.302H300.908z"/>
			<path fill="#131B28" d="M302.91,638.105c-0.296,0-0.594,0.001-0.886,0.001C302.317,638.106,302.615,638.105,302.91,638.105z"/>
			<path fill="#131B28" d="M306.658,638.095c-1.186,0.004-2.368,0.01-3.533,0.012C304.29,638.105,305.474,638.099,306.658,638.095z"/>
			<path fill="#131B28" d="M325.438,637.98L325.438,637.98c-3.156,0.024-10.953,0.084-18.729,0.113
				C314.482,638.065,322.281,638.005,325.438,637.98z"/>
			<path fill="#131B28" d="M327.211,636.524l1.19-5.822l-1.192,5.825C327.209,636.525,327.211,636.525,327.211,636.524
				L327.211,636.524z"/>
			<path fill="#131B28" d="M301.68,638.109h-0.772H301.68z"/>
			<path fill="#131B28" d="M299.497,638.112h-1.045H299.497z"/>
			<path fill="#131B28" d="M300.603,638.109h-0.823H300.603z"/>
			<path fill="#131B28" d="M86.457,612.399l2.274-10.081l-2.6,11.522l-2.495,11.738l2.187-10.29
				C85.991,614.494,86.278,613.194,86.457,612.399L86.457,612.399z"/>
			<path fill="#131B28" d="M113.674,569.856H97.597c-0.814,0-1.625,0.651-1.806,1.443l-1.524,6.727l-1.524,6.731
				c-0.18,0.792,0.338,1.439,1.152,1.439h16.201c0.813,0,1.621-0.647,1.796-1.442l1.472-6.729l1.474-6.725v-0.001
				C115.01,570.508,114.489,569.856,113.674,569.856L113.674,569.856z"/>
			<path fill="#131B28" d="M110.176,592.239L110.176,592.239l-4.716,21.813L110.176,592.239z"/>
			<path fill="#131B28" d="M63.472,664.521c0,0,8.104,0.104,13.256,0.104c-3.914,0-10.377-0.072-13.262-0.105
				C63.469,664.52,63.47,664.521,63.472,664.521L63.472,664.521z"/>
			<path fill="#131B28" d="M91.004,592.238l-2.276,10.08L91.004,592.238z"/>
			<path fill="#131B28" d="M109.012,590.795H92.809c-0.813,0-1.625,0.651-1.804,1.443l-2.276,10.081L86.454,612.4
				c-0.179,0.794-0.465,2.095-0.634,2.889l-2.187,10.291l-2.185,10.29c-0.17,0.793-0.52,2.075-0.78,2.845c0,0-3.026,9.009-8.115,8.906
				c-0.217-0.006-0.428-0.008-0.636-0.013c-2.465-0.047-4.403-0.081-4.403-0.081H67.51c-0.811-0.012-1.626,0.621-1.816,1.41
				l-1.681,7.063l-1.679,7.062c-0.188,0.789,0.321,1.441,1.129,1.456c2.886,0.033,9.35,0.106,13.263,0.106
				c12.712,0,19.413-7.043,23.709-27.309l5.027-23.262l4.715-21.816c0.17-0.792-0.354-1.443-1.167-1.443H109.012z"/>
			<path fill="#131B28" d="M339.195,637.289c-0.813,0-1.339-0.652-1.169-1.448l12.189-57.095"/>
			<path fill="#131B28" d="M356.135,635.838l4.93-24.368L356.135,635.838z"/>
			<path fill="#131B28" d="M338.203,636.564c-0.099-0.397-0.041-1.372,0.132-2.169l5.785-27.101l-6.095,28.547
				c-0.171,0.795,0.354,1.447,1.168,1.447h1.48C339.861,637.289,338.301,636.963,338.203,636.564L338.203,636.564z"/>
			<path fill="#131B28" d="M355.173,636.963c-0.443,0.179-1.471,0.326-2.285,0.326h1.48c0.813,0,1.61-0.652,1.771-1.451l0.293-1.446
				C356.272,635.188,355.615,636.783,355.173,636.963L355.173,636.963z"/>
			<path fill="#131B28" d="M358.604,623.653l2.177-10.754c-0.001,0.006-0.001,0.015-0.003,0.021L358.604,623.653L358.604,623.653z"/>
			<path fill="#131B28" d="M406.699,582.57l0.672,2.774c0.186,0.794-0.328,1.438-1.139,1.439"/>
			<path fill="#131B28" d="M356.432,634.393l2.169-10.736L356.432,634.393z"/>
			<path fill="#131B28" d="M406.032,579.728l0.664,2.843L406.032,579.728z"/>
			<path fill="#131B28" d="M360.779,612.899c0.161-0.795,0.429-2.086,0.598-2.874l2.324-10.889l-2.632,12.335L360.779,612.899
				L360.779,612.899z"/>
			<path fill="#131B28" d="M350.416,577.81c-0.163,0.77-0.371,1.739-0.507,2.382l-5.785,27.104l6.095-28.548L350.416,577.81
				L350.416,577.81z"/>
			<path fill="#131B28" d="M407.367,585.345l-0.672-2.774l-0.664-2.843l-0.336-1.437c-1.317-5.114-5.181-8.065-13.569-8.065
				l-13.061-0.015l-12.028-0.014h-1.032h-12.502c-0.812,0-1.616,0.649-1.783,1.446h-0.001l-0.599,2.827l-0.706,3.339l-0.197,0.938
				l-6.094,28.548l-5.786,27.101c-0.171,0.797-0.229,1.771-0.131,2.169c0.098,0.398,1.657,0.725,2.471,0.725h12.21
				c0.814,0,1.842-0.147,2.285-0.326c0.442-0.179,1.099-1.775,1.26-2.571l2.17-10.736l2.174-10.734
				c0.001-0.006,0.002-0.015,0.004-0.021l0.289-1.429l2.632-12.334l2.325-10.893c0.173-0.791,0.973-1.439,1.784-1.441l38.42-0.019
				C407.04,586.782,407.554,586.138,407.367,585.345L407.367,585.345z"/>
			<path fill="#131B28" d="M456.826,560.258c-0.813,0.007-2.143,0.013-2.957,0.013h-12.297c-0.813,0-1.854,0.549-2.314,1.22
				l-27.19,39.836c-0.46,0.674-0.985,0.574-1.163-0.217l-2.002-8.778c-0.181-0.793-0.995-1.44-1.807-1.44h-17.481
				c-0.813,0-1.296,0.639-1.072,1.421l7.832,27.439c0.223,0.782,0.239,2.067,0.038,2.855l-3.414,13.28
				c-0.202,0.788,0.299,1.433,1.111,1.433h17.278c0.811,0,1.642-0.645,1.843-1.433l3.416-13.28c0.202-0.788,0.767-1.965,1.258-2.615
				L462.05,561.4c0.488-0.65,0.224-1.178-0.588-1.172L456.826,560.258L456.826,560.258z"/>
			<path fill="#131B28" d="M317.945,594.625v-0.015c-0.103,0.881-0.917,1.528-1.729,1.528h-22.162c-0.767,0-1.156-0.521-1.044-1.164
				c0.008-0.019,0.011-0.034,0.021-0.051c0,0-0.007,0.002-0.014,0.007c0.005-0.025,0.005-0.048,0.012-0.074
				c0,0,0.042-0.156,0.103-0.377c2.115-5.628,6.428-9.322,14.531-9.322C316.783,585.157,318.565,589.614,317.945,594.625
				L317.945,594.625z M311.443,569.044c-28.448,0-35.189,17.268-38.971,34.696c-3.783,17.763-3.457,34.372,25.98,34.372h1.047
				c0.091-0.003,0.188-0.003,0.28-0.003h0.823h0.304h0.772c0.113-0.002,0.228-0.002,0.345-0.002c0.293,0,0.589-0.001,0.886-0.001
				h0.209c1.164-0.001,2.348-0.008,3.532-0.011h0.059c7.774-0.031,15.572-0.091,18.729-0.114c0.81-0.014,1.599-0.664,1.766-1.453
				l1.191-5.825l0.231-1.134l1.422-6.946c0.164-0.799-0.369-1.45-1.182-1.45h-26.467c-10.525,0-13.651-2.796-12.498-11.019h42.305
				l-0.003,0.004c0.01,0,0.02-0.004,0.028-0.004c0.673-0.014,1.295-0.476,1.541-1.094c0.047-0.117,0.086-0.241,0.103-0.369
				l-0.005,0.006c6.282-23.694,4.48-39.65-22.431-39.65L311.443,569.044z"/>
			<path fill="#131B28" d="M176.985,594.536l-0.4,1.417c0,0.005-0.001,0.005-0.001,0.005l-3.194,11.321l-3.194,11.317
				c-0.22,0.783-1.066,1.423-1.88,1.423h-16.908c-12.825,0-15.948-10.03-12.825-24.826c3.122-15.134,9.245-24.541,21.868-25.494
				C177.698,568.398,181.15,580.531,176.985,594.536L176.985,594.536z M188.58,619.149c0,0,7.972-19.357,9.782-30.537
				c2.47-14.967-5.024-36.671-33.968-36.671c-28.777,0-41.274,20.723-46.042,43.25c-4.768,22.69,1.479,42.59,30.094,42.427
				l22.573-0.083l21.098-0.076c0.813-0.008,1.643-0.652,1.851-1.438l3.675-14.019c0.205-0.786-0.292-1.434-1.104-1.438l-3.523-0.021
				l-3.521-0.021c-0.691-0.004-1.087-0.451-1.002-1.045c0.014-0.106,0.039-0.216,0.085-0.329L188.58,619.149z"/>
			<path fill="#131B28" d="M331.043,606.193c0,0.536-0.434,0.971-0.97,0.971s-0.971-0.435-0.971-0.971
				c0-0.534,0.435-0.968,0.971-0.968S331.043,605.659,331.043,606.193z"/>
		</g>
	</g>
</svg>
