<svg width="0" height="0" style="position: absolute; opacity: 0;">
  <defs>
    <filter id="blur" x="-15%" y="-15%" width="125%" height="125%">
      <feGaussianBlur in="SourceGraphic" stdDeviation="1" />
    </filter>
  </defs>
  <defs>
    <filter id="glow" x="-25%" y="-25%" width="150%" height="150%">
      <feOffset in="SourceGraphic" result="OffsetOut" dx="0" dy="0" />
      <feMorphology operator="dilate" in="OffsetOut" result="OffsetOut" radius="1" />
      <feGaussianBlur in="OffsetOut" result="BlurOut" stdDeviation="2" />
      <feBlend in="SourceGraphic" in2="BlurOut" mode="lighten" />
    </filter>
  </defs>
  <defs>
    <filter id="shadow" x="0" y="0">
      <feOffset in="SourceAlpha" result="OffsetOut" dx="2" dy="2" />
      <feGaussianBlur in="OffsetOut" result="BlurOut" stdDeviation="1" />
      <feComponentTransfer in1="BlurOut" result="AlphaOut">
        <feFuncA type="linear" slope="0.5" />
      </feComponentTransfer>
      <feMerge>
          <feMergeNode in="AlphaOut"></feMergeNode>
          <feMergeNode in="SourceGraphic"></feMergeNode>
      </feMerge>
    </filter>
  </defs>
  <defs>
    <filter id="shadow_over" x="-25%" y="-25%" width="150%" height="150%">
      <feGaussianBlur in="SourceAlpha" result="BlurOut" stdDeviation="2" />
      <feComponentTransfer in1="BlurOut" result="AlphaOut">
        <feFuncA type="linear" slope="0.5" />
      </feComponentTransfer>
      <feMerge>
          <feMergeNode in="AlphaOut"></feMergeNode>
          <feMergeNode in="SourceGraphic"></feMergeNode>
      </feMerge>
    </filter>
  </defs>
  <defs>
    <filter id="bevel" x="-25%" y="-25%" width="150%" height="150%">
      <feOffset in="SourceAlpha" result="Darken" dx="0" dy="0" />
      <feGaussianBlur in="Darken" result="Darken" stdDeviation="0.5" />
      <feComponentTransfer in1="Darken" result="Darken">
        <feFuncA type="linear" slope=".75" />
      </feComponentTransfer>
      <feOffset in="SourceGraphic" result="Lighten" dx="1" dy="1" />
      <feGaussianBlur in="Lighten" result="Lighten" stdDeviation="0.5" />
      <feComponentTransfer in1="Lighten" result="Lighten">
        <feFuncR type="linear" slope="1" intercept="1" />
        <feFuncG type="linear" slope="1" intercept="1"/>
        <feFuncB type="linear" slope="1" intercept="1"/>
        <feFuncA type="linear" slope="1" />
      </feComponentTransfer>
      <feBlend in="Lighten" in2="Darken" result="Bevel" mode="multiply" />
      <feOffset in="SourceGraphic" result="OffsetOut" dx="0" dy="0" />
      <feComponentTransfer in1="OffsetOut" result="AlphaOut">
        <feFuncA type="linear" slope=".25" />
      </feComponentTransfer>
      <feMerge>
          <feMergeNode in="Bevel"></feMergeNode>
          <feMergeNode in="OffsetOut"></feMergeNode>
      </feMerge>
    </filter>
  </defs>
  <g id="icon-stumbleupon">
    <path d="M24,9.402c-4.677,0-8.468,3.792-8.468,8.469v12.034c0,1.107-0.898,2.006-2.006,2.006s-2.006-0.898-2.006-2.006
      v-5.349H5.057v5.572c0,4.677,3.792,8.468,8.469,8.468c4.677,0,8.468-3.791,8.468-8.468V17.872c0-1.108,0.897-2.006,2.006-2.006
      c1.107,0,2.005,0.898,2.005,2.006v2.452l2.676,1.226l3.787-1.226v-2.452C32.468,13.194,28.677,9.402,24,9.402z M26.005,24.669v5.46
      c0,4.677,3.792,8.468,8.47,8.468c4.677,0,8.468-3.791,8.468-8.468V24.78h-6.463v5.349c0,1.106-0.897,2.005-2.005,2.005
      c-1.108,0-2.007-0.898-2.007-2.005v-5.46l-3.787,1.226L26.005,24.669z"/>
  </g>
  <g id="icon-pinterest">
    <path d="M24.887,5.057c-10.339,0-15.552,7.413-15.552,13.595c0,3.743,1.416,7.072,4.456,8.313
      c0.498,0.205,0.944,0.008,1.089-0.544c0.101-0.382,0.338-1.346,0.445-1.746c0.145-0.546,0.088-0.737-0.313-1.213
      c-0.876-1.034-1.437-2.373-1.437-4.268c0-5.5,4.115-10.423,10.715-10.423c5.844,0,9.055,3.571,9.055,8.34
      c0,6.275-2.777,11.571-6.9,11.571c-2.276,0-3.98-1.883-3.435-4.192c0.654-2.756,1.922-5.732,1.922-7.722
      c0-1.782-0.956-3.267-2.935-3.267c-2.328,0-4.198,2.407-4.198,5.633c0,2.054,0.695,3.443,0.695,3.443s-2.382,10.092-2.799,11.858
      c-0.831,3.52-0.125,7.835-0.065,8.271c0.034,0.258,0.367,0.32,0.517,0.125c0.215-0.28,2.987-3.702,3.929-7.121
      c0.267-0.969,1.531-5.982,1.531-5.982c0.755,1.442,2.965,2.712,5.315,2.712c6.996,0,11.742-6.377,11.742-14.914
      C38.665,11.068,33.197,5.057,24.887,5.057z"/>
  </g>
  <g id="icon-linkedin">
    <path d="M18.153,42.104h8.122V28.462c0-0.73,0.052-1.46,0.267-1.981c0.587-1.459,1.923-2.97,4.166-2.97
      c2.938,0,4.114,2.24,4.114,5.525v13.068h8.118V28.097c0-7.504-4.006-10.996-9.348-10.996c-4.381,0-6.305,2.449-7.372,4.117h0.055
      v-3.543h-8.122C18.259,19.966,18.153,42.104,18.153,42.104L18.153,42.104z"/>
    <path d="M13.658,42.104V17.674h-8.12v24.431H13.658z M9.599,14.336c2.832,0,4.595-1.876,4.595-4.22
      c-0.053-2.397-1.763-4.222-4.541-4.222s-4.594,1.824-4.594,4.222c0,2.344,1.762,4.22,4.487,4.22H9.599L9.599,14.336z"/>
  </g>
  <g id="icon-tumblr">
    <path d="M33.066,35.321c-0.704,0.336-2.052,0.628-3.057,0.653c-3.033,0.081-3.623-2.131-3.647-3.735V20.444h7.609
      v-5.737h-7.583V5.054c0,0-5.459,0-5.548,0c-0.092,0-0.251,0.08-0.274,0.283c-0.324,2.955-1.707,8.139-7.456,10.212v4.895h3.835
      v12.38c0,4.239,3.127,10.262,11.382,10.119c2.785-0.048,5.879-1.213,6.561-2.22L33.066,35.321"/>
  </g>
  <g id="icon-googleplus">
    <path d="M24.97,26.686l-1.776-1.379c-0.541-0.449-1.281-1.042-1.281-2.125c0-1.089,0.74-1.781,1.382-2.422
      c2.07-1.629,4.137-3.363,4.137-7.017c0-3.757-2.363-5.733-3.497-6.671h3.054l3.206-2.014h-9.713c-2.666,0-6.508,0.63-9.32,2.952
      c-2.12,1.829-3.153,4.35-3.153,6.62c0,3.854,2.958,7.759,8.183,7.759c0.493,0,1.033-0.048,1.576-0.099
      c-0.244,0.594-0.49,1.088-0.49,1.928c0,1.53,0.786,2.467,1.479,3.357c-2.22,0.153-6.364,0.398-9.419,2.277
      c-2.909,1.729-3.795,4.247-3.795,6.025c0,3.658,3.449,7.065,10.599,7.065c8.479,0,12.968-4.691,12.968-9.335
      C29.111,30.194,27.14,28.514,24.97,26.686z M18.511,21.004c-4.242,0-6.164-5.484-6.164-8.792c0-1.289,0.244-2.619,1.083-3.657
      c0.791-0.989,2.168-1.632,3.454-1.632c4.09,0,6.21,5.533,6.21,9.092c0,0.89-0.098,2.468-1.232,3.608
      C21.07,20.415,19.743,21.004,18.511,21.004z M18.561,40.873c-5.275,0-8.677-2.523-8.677-6.032c0-3.508,3.154-4.694,4.239-5.088
      c2.07-0.695,4.733-0.793,5.178-0.793c0.493,0,0.739,0,1.132,0.05c3.75,2.669,5.377,3.999,5.377,6.524
      C25.81,38.594,23.294,40.873,18.561,40.873z M37.499,21.008v-4.94H35.06v4.94h-4.932v2.466h4.932v4.971h2.439v-4.971h4.958v-2.466
      H37.499z"/>
  </g>
  <g id="icon-facebook">
    <path d="M26.933,42.942v-17.28h5.802l0.868-6.736h-6.67v-4.299c0-1.95,0.542-3.278,3.338-3.278l3.566-0.001V5.324
      c-0.616-0.083-2.733-0.266-5.197-0.266c-5.141,0-8.661,3.138-8.661,8.902v4.966h-5.815v6.736h5.815v17.28H26.933z"/>
  </g>
  <g id="icon-twitter">
    <path d="M42.942,12.25c-1.394,0.618-2.892,1.036-4.463,1.224c1.604-0.962,2.837-2.485,3.418-4.3
      c-1.503,0.891-3.166,1.538-4.937,1.886c-1.418-1.511-3.438-2.455-5.674-2.455c-4.293,0-7.773,3.48-7.773,7.773
      c0,0.609,0.069,1.202,0.202,1.771c-6.46-0.324-12.187-3.419-16.021-8.122c-0.668,1.148-1.052,2.483-1.052,3.908
      c0,2.697,1.373,5.076,3.458,6.47c-1.274-0.041-2.473-0.39-3.521-0.972c0,0.032,0,0.064,0,0.097c0,3.766,2.679,6.908,6.234,7.622
      c-0.652,0.178-1.338,0.273-2.047,0.273c-0.5,0-0.987-0.05-1.462-0.141c0.989,3.088,3.86,5.336,7.261,5.399
      c-2.66,2.084-6.012,3.326-9.653,3.326c-0.627,0-1.246-0.037-1.854-0.109c3.439,2.207,7.525,3.493,11.915,3.493
      c14.296,0,22.115-11.845,22.115-22.115c0-0.337-0.008-0.672-0.022-1.006C40.583,15.178,41.9,13.809,42.942,12.25z"/>
  </g>
  <g id="icon-syndicate">
    <path d="M10.908,32.05c-2.804,0-5.077,2.207-5.077,4.93s2.272,4.93,5.077,4.93c2.804,0,5.076-2.207,5.076-4.93
      S13.711,32.05,10.908,32.05z M5.961,17.965l0.017,7.168c9.323,0.396,16.719,6.092,16.838,16.97h7.179
      C29.787,29.728,21.283,18.765,5.961,17.965z M42.169,42.104C42.011,24.075,29.4,6.988,5.856,5.896l0.208,7.284
      C26.573,13.521,35.105,30.468,34.782,42L42.169,42.104z"/>
  </g>
  <g id="icon-undefined">
    <rect x="5.056" y="20.211" transform="matrix(0.7071 0.7071 -0.7071 0.7071 24.0008 -9.9411)" width="37.888" height="7.578"/>
    <rect x="5.056" y="20.211" transform="matrix(0.7071 -0.7071 0.7071 0.7071 -9.941 24.0003)" width="37.888" height="7.579"/>
  </g>
  <g id="icon-ideas">
    <path d="M29.684,33.478l1.868-0.952l-1.834-0.909H29.67c1.039-5.032,5.694-10.006,5.694-15.146
      c0-5.785-3.787-11.453-11.364-11.453c-7.578,0-11.364,5.865-11.364,11.453c0,4.968,4.661,10.08,5.698,15.146h-0.049l-1.857,0.945
      l1.891,0.949l-1.894,0.945l1.894,0.902l-1.894,0.984l1.894,0.91l-1.894,0.992l1.894,0.948l-1.897,0.938l1.864,0.957h0.979
      c0,2.538,9.476,2.519,9.476,0h0.979l1.834-0.947l-1.868-0.879l1.895-1.015L29.684,37.3l1.895-0.975l-1.895-0.92l1.895-0.986
      L29.684,33.478z M28.094,31.634H19.91c0-3.907-5.617-10.138-5.617-15.16s3.234-9.8,9.707-9.8c6.474,0,9.707,4.601,9.707,9.8
      S28.094,27.727,28.094,31.634z M27.787,19.31v-0.004l-1.892-1.895l-1.895,1.895l-1.895-1.895l-1.893,1.892l-0.946-2.839h-1.421
      l3.789,11.364l0,3.791h1.421l0-3.791l-2.487-7.46l1.538-1.536l1.915,1.894l1.874-1.894l1.538,1.54l-2.487,7.457l0,3.791h1.42
      l0.001-3.791l3.79-11.364h-1.421L27.787,19.31z"/>
  </g>
  <g id="icon-educult">
    <path d="M31.104,30.634c5.801,0,9.944,1.421,9.944,1.421V11.216c0,0-4.144-1.42-9.944-1.42
      c-5.802,0-6.631,2.841-6.631,2.841v20.838C24.474,33.476,25.303,30.634,31.104,30.634z M25.896,33.468c0,0,0.354,0,6.155,0
      c5.801,0,8.997,0,8.997,0s-3.22-1.42-8.997-1.42S25.896,33.468,25.896,33.468z M23.526,33.476V12.637c0,0-0.829-2.841-6.63-2.841
      c-5.802,0-9.945,1.42-9.945,1.42v20.838c0,0,4.144-1.421,9.945-1.421C22.697,30.634,23.526,33.476,23.526,33.476z M22.095,33.468
      c0,0-0.416-1.42-6.146-1.42c-5.73,0-8.999,1.42-8.999,1.42s3.196,0,8.999,0C21.75,33.468,22.095,33.468,22.095,33.468z
       M41.996,12.628v21.787H26.844h-2.842h-0.004h-2.837H6.003V12.628c0,0-0.947-0.074-0.947,0.917c0,0.992,0,23.236,0,23.236h0.945
      v0.002h15.159v0.474c0,0-0.032,0.947,0.93,0.947c0.643,0,2.782,0,3.804,0c1.021,0,0.949-0.947,0.949-0.947v-0.474h15.154v-0.002
      h0.945c0,0,0-22.264,0-23.227C42.943,12.593,41.996,12.628,41.996,12.628z"/>
  </g>
  <g id="icon-internat">
    <path d="M42.943,9.318l-4.627,2.308c-2.95-3.419-7.098-5.766-11.797-6.393c-0.246-0.123-0.389-0.178-0.389-0.178
      h-0.947h-0.947h-1.421h-0.474c0,0-0.081,0.032-0.224,0.1c-4.965,0.492-9.358,2.901-12.441,6.479L5.056,9.318v2.368l3.318,1.663
      c-1.86,2.732-3.041,5.965-3.258,9.467h-0.06v2.367h0.06c0.216,3.502,1.396,6.735,3.256,9.468l-3.316,1.662v2.368l4.619-2.315
      c3.087,3.585,7.489,5.997,12.463,6.484c0.129,0.062,0.204,0.093,0.204,0.093h0.474h1.079c0.035,0,0.07,0.003,0.105,0.003
      c0.036,0,0.07-0.003,0.105-0.003h0.131h0.947h0.947c0,0,0.134-0.054,0.361-0.169c4.712-0.621,8.872-2.973,11.826-6.399
      l4.625,2.307v-2.368l-3.319-1.655c1.862-2.734,3.043-5.971,3.26-9.475h0.06v-2.367h-0.06c-0.218-3.504-1.399-6.74-3.263-9.473
      l3.322-1.657V9.318z M35.749,12.906l-1.901,0.948c-0.661-1.659-1.451-3.028-2.272-4.153C33.136,10.542,34.55,11.62,35.749,12.906z
       M22.816,22.815h-8.029c0.071-2.207,0.346-4.153,0.76-5.871l7.27,3.644V22.815z M22.816,25.183v2.228l-7.251,3.635
      c-0.418-1.717-0.7-3.66-0.776-5.862H22.816z M25.184,25.183h8.5c-0.08,2.299-0.383,4.321-0.837,6.094l-7.663-3.821V25.183z
       M25.184,22.815v-2.271l7.682-3.832c0.449,1.774,0.746,3.799,0.82,6.103H25.184z M28.686,8.491
      c1.285,1.456,2.598,3.456,3.559,6.163l-7.061,3.521V7.826C26.394,7.918,27.564,8.148,28.686,8.491z M22.816,7.831V18.22
      l-6.672-3.344c0.996-2.92,2.398-5.041,3.758-6.543C20.844,8.083,21.816,7.911,22.816,7.831z M17.228,9.292
      c-0.969,1.245-1.913,2.82-2.675,4.786l-2.314-1.16C13.644,11.408,15.338,10.176,17.228,9.292z M10.869,14.6l3.009,1.508
      c-0.539,1.916-0.902,4.136-0.985,6.708H7.951C8.152,19.765,9.208,16.952,10.869,14.6z M7.963,25.183h4.932
      c0.09,2.566,0.461,4.782,1.005,6.697l-2.913,1.46C9.295,31.013,8.206,28.219,7.963,25.183z M12.387,35.006l2.191-1.099
      c0.7,1.794,1.55,3.262,2.43,4.452C15.274,37.516,13.706,36.386,12.387,35.006z M19.69,39.378c-1.282-1.486-2.58-3.524-3.523-6.267
      l6.649-3.333v10.158C21.741,39.853,20.697,39.659,19.69,39.378z M25.184,39.939V29.823l7.037,3.51
      c-0.907,2.536-2.121,4.456-3.328,5.89C27.71,39.602,26.469,39.845,25.184,39.939z M31.771,37.971
      c0.741-1.063,1.449-2.334,2.052-3.839l1.778,0.887C34.483,36.185,33.192,37.181,31.771,37.971z M37.006,33.351l-2.488-1.241
      c0.575-1.965,0.968-4.256,1.061-6.927h4.458C39.793,28.223,38.701,31.021,37.006,33.351z M40.048,22.815H35.58
      c-0.086-2.676-0.471-4.972-1.041-6.938l2.584-1.289C38.789,16.944,39.847,19.761,40.048,22.815z"/>
  </g>
  <g id="icon-intersec">
    <path d="M42.942,5.064l-8.035,0l-3.35,3.312l5.397-0.003l-3.935,3.933c-2.76-1.833-6.269-2.066-9.219-0.698
      c-1.986-1.7-4.561-2.733-7.381-2.733c-6.277,0-11.365,5.088-11.365,11.365c0,5.63,4.098,10.292,9.472,11.195v2.979H10.74v3.789
      h3.788v4.733h3.789v-4.733h3.789v-3.789h-3.789v-2.975c2.102-0.355,4.007-1.285,5.55-2.626c3.492,1.588,7.747,0.957,10.619-1.914
      c3.236-3.238,3.641-8.234,1.212-11.911l3.933-3.931l0.003,5.393l3.312-3.349L42.942,5.064z M16.421,27.816
      c-4.185,0-7.576-3.393-7.576-7.577c0-4.185,3.392-7.577,7.576-7.577c4.184,0,7.577,3.392,7.577,7.577
      C23.998,24.423,20.605,27.816,16.421,27.816z M31.807,24.219c-1.469,1.468-3.535,1.944-5.411,1.469
      c0.886-1.618,1.391-3.474,1.391-5.448c0-2.002-0.521-3.881-1.431-5.515c1.887-0.491,3.972-0.021,5.45,1.458
      C34.023,18.403,34.024,22,31.807,24.219z M39.628,8.452l-0.08-0.081h0.08V8.452z"/>
  </g>
  <g id="icon-ourbody">
    <path d="M40.57,23.982l-3.375-7.815c0,0-0.247-1.688-3.228-2.303c1.396-0.824,2.341-2.327,2.341-4.065
      c0-2.616-2.119-4.736-4.736-4.736c-2.615,0-4.735,2.12-4.735,4.736c0,1.745,0.954,3.252,2.357,4.074
      c-3.012,0.662-3.188,2.532-3.188,2.532l-1.977,4.369l-1.989-4.606c0,0-0.247-1.688-3.228-2.304
      c1.396-0.824,2.342-2.327,2.342-4.064c0-2.616-2.121-4.736-4.736-4.736c-2.615,0-4.736,2.12-4.736,4.736
      c0,1.745,0.954,3.252,2.358,4.073c-3.012,0.662-3.188,2.532-3.188,2.532L7.419,23.99c0,0-0.384,1.895,1.234,1.895
      s2.095-1.895,2.095-1.895l1.894-4.253l-0.018,2.371L9.25,31.57l2.439,0.007c0,0,0,8.403,0,9.468c0,0.912,0.656,1.892,1.896,1.892
      c1.211,0,1.898-0.979,1.898-1.892c0-1.643,0-9.49,0-9.49h1.891c0,0,0,7.805,0,9.49c0,0.567,0.559,1.893,1.899,1.893
      c1.212,0,1.894-1.284,1.894-1.893c0-3.649,0-9.468,0-9.468l2.873-0.016l-3.845-9.466l0.005-2.366l1.911,4.248
      c0,0,0.133,0.558,0.512,1.068c0.129,0.435,0.44,0.839,1.186,0.839c0.082,0,0.149-0.023,0.225-0.033
      c0.054,0.005,0.099,0.022,0.155,0.022c0.77,0,1.079-0.409,1.201-0.846c0.371-0.502,0.515-1.038,0.515-1.038l1.894-4.253
      l-0.018,2.371l-3.375,9.463l2.44,0.007c0,0,0,8.403,0,9.468c0,0.912,0.656,1.892,1.896,1.892c1.212,0,1.897-0.979,1.897-1.892
      c0-1.643,0-9.49,0-9.49h1.891c0,0,0,7.805,0,9.49c0,0.567,0.559,1.893,1.899,1.893c1.212,0,1.895-1.284,1.895-1.893
      c0-3.649,0-9.468,0-9.468l2.871-0.016l-3.845-9.466l0.006-2.366l1.911,4.248c0,0,0.419,1.896,2.077,1.896
      S40.57,23.982,40.57,23.982z"/>
  </g>
  <g id="icon-struggles">
    <path d="M23.359,24.838c1.569,0,2.842-1.272,2.842-2.842V8.735c0-1.57-1.273-2.842-2.842-2.842
      c-1.57,0-2.841,1.272-2.841,2.842v13.261C20.518,23.565,21.789,24.838,23.359,24.838z M30.937,22.943
      c1.568,0,2.842-1.272,2.842-2.842v-9.472c0-1.57-1.273-2.841-2.842-2.841c-1.57,0-2.841,1.271-2.841,2.841v9.472
      C28.096,21.671,29.366,22.943,30.937,22.943z M15.782,22.943c1.569,0,2.841-1.272,2.841-2.842v-9.472
      c0-1.57-1.272-2.841-2.841-2.841c-1.57,0-2.842,1.271-2.842,2.841v9.472C12.94,21.671,14.212,22.943,15.782,22.943z
       M38.515,11.814c-1.57,0-2.842,1.271-2.842,2.841v5.446c0,1.569,1.271,2.842,2.842,2.842c1.568,0,2.841-1.272,2.841-2.842v-5.446
      C41.355,13.085,40.083,11.814,38.515,11.814z M38.515,24.541c-1.603,0-2.981-0.895-3.71-2.201
      c-0.672,1.471-2.146,2.498-3.868,2.498c-1.387,0-2.605-0.672-3.384-1.697c-0.324,2.033-2.07,3.591-4.194,3.591
      c-2.053,0-3.764-1.451-4.169-3.384c-0.621,0.831-1.527,1.436-2.583,1.643c3.144,1.911,6.299,6.275,7.313,10.18
      c-0.801-1.615-2.082-3.368-3.897-5.183c-5.177-5.177-8.977-3.275-8.977-7.064s1.815-9.413-0.967-9.413
      c-2.783,0-4.854,9.421-4.854,13.21c0,3.789,5.841,17.1,13.338,17.1c0.441,0,0.856-0.026,1.254-0.069
      c-0.089,0.056-0.169,0.103-0.234,0.137c0.195-0.057,0.493-0.114,0.895-0.114c3.788,0,5.721-1.878,5.721-1.878
      s1.881,1.878,5.764,1.878s9.394-11.438,9.394-17.042c0-0.955-0.226-1.913-0.59-2.847C40.111,24.294,39.344,24.541,38.515,24.541z
       M19.583,43.888C19.253,43.984,19.235,44.074,19.583,43.888L19.583,43.888z"/>
  </g>
  <g id="icon-rubric">
    <path d="M5.089,24.648v-1.296C5.082,23.569,5.056,23.781,5.056,24S5.082,24.431,5.089,24.648z M24,5.056
      c-8.491,0-15.675,5.585-18.082,13.282h16.194v-5.884L37.238,23.94L22.112,35.584v-5.883H5.933
      C8.353,37.377,15.524,42.943,24,42.943c10.463,0,18.943-8.48,18.943-18.943S34.463,5.056,24,5.056z"/>
  </g>
  <g id="icon-alert">
    <path d="M8.837,5.068c-1.799,0-1.887,1.894-1.887,1.894v34.083c0,0,0.04,1.895,1.887,1.895s1.902-1.895,1.902-1.895
      V6.962C10.74,6.962,10.637,5.068,8.837,5.068z M33.472,8.849c-4.677,0-8.781-3.789-13.34-3.789c-4.558,0-7.498,3.789-7.498,3.789
      v20.838c0,0,2.704-3.788,7.498-3.788c4.796,0,8.466,3.788,13.261,3.788c4.796,0,7.656-3.788,7.656-3.788V5.06
      C41.049,5.06,38.148,8.849,33.472,8.849z"/>
  </g>
  <g id="icon-edit">
    <path d="M35.482,12.521c-1.34-1.339-2.681-2.68-2.681-2.68S32.1,9.205,31.451,9.854s0.003,1.333,0.005,1.335
      L8.69,33.954c-0.622,0.621-3.373,7.344-2.679,8.037c0.694,0.692,7.32-1.962,8.037-2.68c0.519-0.52,17.787-17.787,22.764-22.765
      l0.001,0c0,0,0.654,0.685,1.335,0.005c0.681-0.681,0.013-1.352,0.013-1.352S36.821,13.861,35.482,12.521z M13.377,38.644
      c-0.538,0.538-5.55,2.485-6.027,2.009c-0.477-0.478,1.542-5.561,2.008-6.028c0.563-0.562,0.671-0.671,0.671-0.671
      s0.413,1.774,1.327,2.688c0.928,0.928,2.691,1.33,2.691,1.33S13.833,38.188,13.377,38.644z M41.514,9.188l-2.689-2.69
      c0,0-1.328-1.35-2.669-0.011c-1.339,1.34-2.689,2.69-2.689,2.69l5.358,5.358c0,0,1.371-1.372,2.689-2.69
      C42.833,10.527,41.514,9.188,41.514,9.188z"/>
  </g>
  <g id="icon-reply">
    <path d="M5.175,8.911v12.814c0,6.451,5.229,11.681,11.68,11.681h9.038v5.684
      l16.934-11.344l-16.934-11.28v5.653h-6.674c-1.519,0-2.748-1.23-2.748-2.749V8.928L5.175,8.911z"/>
  </g>
  <g id="icon-comment">
    <path d="M34.328,29.426c5.183-2.366,8.615-6.454,8.615-11.108c0-7.324-8.48-13.261-18.943-13.261
      S5.056,10.993,5.056,18.317S13.537,31.578,24,31.578c1.127,0,2.226-0.082,3.299-0.214l13.75,11.579L34.328,29.426z"/>
  </g>
  <g id="icon-tag">
    <path d="M29.335,6.685L7.23,28.73c0,0-1.318,1.317,0,2.637c1.319,1.318,8.059,8.059,9.377,9.377
      c1.319,1.318,2.679,0.041,2.679,0.041L41.354,18.74l0.002-12.081L29.335,6.685z M34.824,17.207
      c-1.111,1.11-2.909,1.112-4.018,0.002c-1.11-1.108-1.109-2.908,0.002-4.017c1.11-1.111,2.909-1.112,4.018-0.003
      C35.936,14.298,35.935,16.097,34.824,17.207z"/>
  </g>
  <g id="icon-date">
    <path d="M35.366,15.949c1.309,0,2.368-1.061,2.368-2.368v-5.21c0-1.308-1.06-2.368-2.368-2.368
      c-1.308,0-2.367,1.061-2.367,2.368v5.21C32.999,14.889,34.059,15.949,35.366,15.949z M12.634,15.949
      c1.308,0,2.368-1.061,2.368-2.368v-5.21c0-1.308-1.06-2.368-2.368-2.368s-2.368,1.061-2.368,2.368v5.21
      C10.266,14.889,11.326,15.949,12.634,15.949z M39.155,9.792v4.025c0,2.093-1.696,3.789-3.789,3.789
      c-2.092,0-3.789-1.696-3.789-3.789V9.792H16.422v4.025c0,2.093-1.696,3.789-3.789,3.789s-3.789-1.696-3.789-3.789V9.792
      c-2.092,0-3.789,1.696-3.789,3.789v24.627c0,2.093,1.697,3.788,3.789,3.788h30.31c2.093,0,3.788-1.695,3.788-3.788V13.581
      C42.943,11.489,41.248,9.792,39.155,9.792z M40.576,38.208c0,0-0.475,1.421-1.421,1.421c-0.947,0-29.41,0-30.31,0
      c-0.9,0-1.421-1.421-1.421-1.421V21.159h33.152V38.208z M20.454,33.68c0,2.671,1.032,4.539,4.029,4.539
      c3.014,0,4.029-1.859,4.029-4.539c0-1.323-0.191-2.565-1.298-3.442c0.832-0.82,1.09-2.005,1.09-3.126
      c0-2.403-1.224-4.051-3.821-4.051c-2.589,0-3.846,1.632-3.846,4.051c0,1.121,0.275,2.298,1.099,3.126
      C20.62,31.114,20.454,32.365,20.454,33.68z M24.483,25.293c0.849,0,0.94,1.031,0.94,1.576c0,0.745,0,2.378-0.94,2.378
      c-0.941,0-0.958-1.624-0.958-2.378C23.525,26.308,23.642,25.293,24.483,25.293z M24.483,31.439c1.09,0,1.199,1.51,1.199,2.402
      c0,0.779,0,2.087-1.199,2.087c-1.19,0-1.207-1.299-1.207-2.087C23.276,32.949,23.401,31.439,24.483,31.439z"/>
  </g>
  <g id="icon-author">
    <path d="M19.264,16.466c2.092,0,3.789-0.921,3.789-4.059c0-3.139-1.696-7.307-3.789-7.307s-3.789,4.168-3.789,7.307
      C15.476,15.545,17.172,16.466,19.264,16.466z M31.309,24.003c-1.877-2.165-3.364-3.762-7.309-3.762
      c-3.947,0-5.436,1.599-7.313,3.767c-2.602,3.003-9.737,5.372-9.737,7.806c0,2.131,2.399,9.613,5.925,10.882
      c3.414,1.229,6.492-3.47,11.125-3.47c4.827,0,8.103,4.636,11.548,3.313c3.277-1.259,5.502-8.682,5.502-10.725
      C41.05,29.378,33.912,27.006,31.309,24.003z M9.792,24.044c2.092,0,3.789-0.921,3.789-4.06s-1.697-7.307-3.789-7.307
      c-2.093,0-3.79,4.168-3.79,7.307S7.7,24.044,9.792,24.044z M28.736,16.466c2.092,0,3.788-0.921,3.788-4.059
      c0-3.139-1.696-7.307-3.788-7.307c-2.093,0-3.789,4.168-3.789,7.307C24.947,15.545,26.644,16.466,28.736,16.466z M38.208,24.044
      c2.093,0,3.788-0.921,3.788-4.06s-1.695-7.307-3.788-7.307s-3.789,4.168-3.789,7.307S36.115,24.044,38.208,24.044z"/>
  </g>
  <g id="icon-article">
    <path d="M5.685,42.305l0.01-0.003l-0.007-0.007L5.685,42.305z M41.864,14.173l-8.037-8.037
      c-1.479-1.48-3.878-1.48-5.359,0l-4.018,4.018c-1.479,1.48-1.479,3.879,0,5.358l0.001,0.001l-1.34,1.343l-10.897,2.491
      l-6.001,21.1l10.963-10.963c-0.516-1.073-0.34-2.394,0.549-3.282c1.125-1.125,2.949-1.125,4.074,0s1.125,2.949,0,4.075
      c-0.889,0.889-2.211,1.063-3.284,0.547L7.57,41.77l21.082-5.982l2.491-10.897l1.343-1.34c1.48,1.48,3.879,1.48,5.359,0
      l4.019-4.019C43.344,18.052,43.344,15.653,41.864,14.173z"/>
  </g>
  <g id="icon-print">
    <path d="M39.217,22.121c-3.693,0-3.857,3.726-3.857,3.726v1.958H12.634v-1.958c0,0-0.149-3.732-3.843-3.732
      S5.058,22.12,5.058,22.12v17.05c0,0-0.03,1.878,1.894,1.878c1.924,0,32.171,0,34.064,0c1.895,0,1.925-1.894,1.925-1.894V22.12
      C42.941,22.12,42.911,22.121,39.217,22.121z M33.475,6.951H14.53v18.955h18.944V6.951z"/>
  </g>
  <g id="icon-textdec">
    <path d="M17.224,6.948L4.999,41.052h5.542l3.099-10.671h11.542l3.236,10.671h5.713L21.563,6.948H17.224z
       M15.079,25.866l4.24-11.57l4.324,11.57H15.079z M27.85,12.625v3.759h15.151v-3.759H27.85z"/>
  </g>
  <g id="icon-textinc">
    <path d="M17.224,6.948L4.999,41.052h5.542l3.099-10.671h11.542l3.236,10.671h5.713L21.563,6.948H17.224z
       M15.079,25.866l4.24-11.57l4.324,11.57H15.079z M37.322,12.625V6.953h-3.786v5.672H27.85v3.759h5.687v5.706h3.786v-5.706h5.679
      v-3.759H37.322z"/>
  </g>
  <g id="icon-brightness">
    <path d="M24,41.229c-9.515,0-17.229-7.714-17.229-17.229
      S14.485,6.772,24,6.772c9.515,0,17.229,7.713,17.229,17.228S33.515,41.229,24,41.229z M24.089,9.688
      c-0.015,0-0.029,0.001-0.044,0.001V38.4c0.015,0,0.03,0.001,0.044,0.001c7.928,0,14.356-6.428,14.356-14.356
      S32.018,9.688,24.089,9.688z"/>
  </g>
  <g id="icon-link">
    <path d="M25.34,28.018l-6.698,6.698l-2.846,2.847c-0.647,0.647-1.622,0.722-2.177,0.167l-3.349-3.349
      c-0.555-0.555-0.479-1.529,0.167-2.177l5.693-5.692c0.003-0.003,0.006-0.005,0.009-0.008l3.843-3.843l-0.001-0.001
      c-1.48-1.479-3.878-1.479-5.358,0l-8.037,8.037c-1.48,1.479-1.48,3.879,0,5.358l5.358,5.358c1.479,1.479,3.878,1.479,5.358,0
      l8.038-8.038C26.819,31.896,26.819,29.498,25.34,28.018L25.34,28.018z M41.414,11.944l-5.358-5.358
      c-1.479-1.48-3.879-1.48-5.358,0l-8.037,8.036c-1.479,1.48-1.479,3.879,0,5.359l0.001,0.001l3.843-3.843
      c0.003-0.003,0.005-0.006,0.008-0.009l5.692-5.693c0.648-0.647,1.622-0.722,2.177-0.167l3.349,3.349
      c0.555,0.555,0.48,1.529-0.167,2.177l-2.847,2.846l-6.698,6.698h0.001c1.479,1.479,3.878,1.479,5.357,0l8.038-8.038
      C42.893,15.822,42.893,13.424,41.414,11.944z M19.979,30.696c1.373-1.373,9.344-9.344,10.717-10.717
      c1.373-1.373-1.304-4.048-2.676-2.676c-1.373,1.373-9.411,9.41-10.717,10.717C15.998,29.326,18.607,32.069,19.979,30.696z"/>
  </g>
  <g id="icon-mail">
    <path d="M24,29.225l-7.633-5.152L5.057,35.381c0,0.002,0,0.01,0,0.01s-0.001,1.875,1.894,1.875s32.475,0,34.098,0
      c1.895,0,1.894-1.88,1.894-1.88v-0.005L31.656,24.057L24,29.225z M5.057,16.438c0,4.972,0,13.318,0,17.049l10.179-10.178
      L5.057,16.438z M41.029,10.735H6.936c0,0-1.878,0.014-1.878,1.894c0,0.273,0,0.959,0,1.915l11.31,7.634l0.058-0.058v0.096
      L24,27.33l7.575-5.113v-0.135l0.08,0.081l11.287-7.619c0-0.958,0-1.644,0-1.915C42.942,10.774,41.029,10.735,41.029,10.735z
       M42.942,33.486c0-3.728,0-12.077,0-17.049l-10.158,6.857L42.942,33.486z"/>
  </g>
  <g id="icon-search">
    <path d="M41.663,41.665c1.809-1.81,1.096-3.337,1.096-3.337L29.054,24.627
      c-0.8-0.804-2.006-1.05-3.038-0.828c1.49-1.996,2.413-4.478,2.415-7.019c0.004-3.121-1.207-6.052-3.401-8.255
      c-2.198-2.205-5.123-3.422-8.239-3.426c-3.119-0.004-6.082,1.236-8.286,3.437c-4.55,4.544-4.527,11.915,0.013,16.471
      c4.124,4.134,10.729,4.395,15.292,1.031c-0.23,1.034,0.008,2.204,0.813,3.013l13.697,13.713
      C38.319,42.764,39.855,43.475,41.663,41.665z M16.763,24.899c-2.173-0.002-4.212-0.85-5.744-2.387
      c-3.167-3.175-3.179-8.322-0.006-11.493c3.177-3.168,8.352-3.178,11.516-0.002c3.167,3.175,3.165,8.333-0.008,11.505
      C20.985,24.056,18.938,24.902,16.763,24.899z"/>
  </g>
  <g id="icon-home">
    <path d="M39.174,25.893c0,0,0,11.43,0,13.276s-1.902,1.886-1.902,1.886
      h-9.468v-11.38l-7.573,0.008v11.372l-9.492,0.001c0,0-1.874-0.022-1.874-1.887s0-13.282,0-13.282s-1.754-0.002-1.793-0.002
      c-2.047,0-1.97-1.92-1.97-1.92S23.286,7.439,23.552,7.173c0.267-0.267,0.676-0.335,1.002-0.01s18.346,16.802,18.346,16.802
      s-0.069,1.92-1.959,1.92L39.174,25.893z"/>
  </g>
  <g id="icon-collapse">
      <polygon points="36.018,28.02 40.073,24.011 24.01,23.989 23.981,7.935 20,11.962 13.292,5.254 5.274,13.272 
      11.982,19.98 7.927,23.989 23.99,24.011 24.019,40.065 28,36.038 34.708,42.746 42.726,34.729 		"/>
  </g>
  <g id="icon-expand">
    <path d="M17.658,22.304l-6.708,6.708l-3.981-4.027L6.94,41.061l16.083-0.022l-4.055-4.008l6.708-6.709L17.658,22.304z
       M24.977,6.961l4.055,4.008l-6.709,6.709l8.019,8.018l6.708-6.708l3.98,4.027L41.06,6.939L24.977,6.961z"/>
  </g>
  <g id="icon-hide">
    <path d="M37.997,25.673c3.151-2.75,4.946-5.428,4.946-5.428S35.366,8.84,24,8.84S5.056,20.216,5.056,20.216
      s1.799,2.689,4.955,5.448l-3.843,3.844c0,0-0.469,0.87,0.167,1.505c0.636,0.637,1.507,0.169,1.507,0.169l4.021-4.021
      c1.176,0.873,2.492,1.697,3.921,2.396l-2.795,6.748c0,0-0.072,0.915,0.76,1.26c0.831,0.344,1.428-0.354,1.428-0.354l2.788-6.731
      c1.515,0.54,3.133,0.919,4.851,1.038v6.696c0,0,0.284,0.947,1.184,0.947s1.184-0.947,1.184-0.947v-6.695
      c1.718-0.119,3.336-0.497,4.852-1.036l2.787,6.729c0,0,0.598,0.697,1.429,0.354c0.831-0.345,0.76-1.26,0.76-1.26l-2.793-6.743
      c1.431-0.699,2.748-1.522,3.926-2.395l4.014,4.015c0,0,0.871,0.468,1.507-0.169c0.637-0.635,0.168-1.505,0.168-1.505
      L37.997,25.673z M36.198,23.874l-1.375-1.375c0,0-0.903-0.435-1.507,0.167c-0.603,0.603-0.167,1.506-0.167,1.506l1.205,1.205
      c-0.925,0.687-1.954,1.352-3.07,1.931l-0.952-2.298c0,0-0.641-0.681-1.428-0.354c-0.788,0.327-0.761,1.26-0.761,1.26l0.972,2.347
      c-1.234,0.45-2.548,0.771-3.932,0.891v-3.018c0,0-0.332-0.947-1.184-0.947s-1.184,0.947-1.184,0.947v3.018
      c-1.383-0.119-2.697-0.441-3.932-0.893l0.971-2.345c0,0,0.028-0.934-0.76-1.26c-0.787-0.327-1.428,0.354-1.428,0.354l-0.95,2.295
      c-1.115-0.579-2.144-1.244-3.068-1.932l1.202-1.201c0,0,0.436-0.903-0.167-1.506c-0.603-0.603-1.507-0.167-1.507-0.167
      l-1.372,1.372c-2.182-1.945-3.454-3.678-3.454-3.678s6.555-9,15.648-9c9.093,0,15.629,9.03,15.629,9.03
      S38.367,21.94,36.198,23.874z"/>
  </g>
  <g id="icon-show">
    <path d="M37.988,22.351l3.844-3.843c0,0,0.469-0.871-0.168-1.507c-0.636-0.636-1.507-0.167-1.507-0.167l-4.017,4.017
      c-1.176-0.877-2.49-1.705-3.918-2.409l2.788-6.731c0,0,0.071-0.915-0.76-1.26c-0.831-0.344-1.429,0.354-1.429,0.354l-2.779,6.709
      c-1.518-0.545-3.139-0.927-4.859-1.047V9.802c0,0-0.284-0.947-1.184-0.947s-1.184,0.947-1.184,0.947v6.665
      c-1.721,0.12-3.342,0.501-4.86,1.045l-2.778-6.707c0,0-0.597-0.698-1.428-0.354c-0.832,0.345-0.76,1.26-0.76,1.26l2.787,6.727
      c-1.43,0.703-2.747,1.53-3.924,2.407l-4.01-4.01c0,0-0.871-0.469-1.507,0.167s-0.167,1.507-0.167,1.507l3.835,3.835
      c-3.151,2.765-4.946,5.456-4.946,5.456S12.634,39.146,24,39.146s18.943-11.317,18.943-11.317S41.145,25.125,37.988,22.351z
       M24,36.807c-9.093,0-15.648-9.032-15.648-9.032s6.555-9,15.648-9c9.093,0,15.629,9.03,15.629,9.03S33.093,36.807,24,36.807z
       M24,20.692c-3.925,0-7.107,3.182-7.107,7.107c0,3.925,3.183,7.106,7.107,7.106c3.926,0,7.107-3.182,7.107-7.106
      C31.107,23.874,27.926,20.692,24,20.692z"/>
  </g>
  <g id="icon-down">
    <path d="M12.147,14.117L24,25.97l11.853-11.853c0,0,2.144-2.255,4.428,0.028
      c2.282,2.283,0.027,4.427,0.027,4.427L24.001,34.877L24,34.876l-0.002,0.001L7.692,18.571c0,0-2.256-2.144,0.028-4.427
      C10.003,11.862,12.147,14.117,12.147,14.117z"/>
  </g>
  <g id="icon-up">
    <path d="M35.853,33.884L24,22.031L12.147,33.884c0,0-2.144,2.255-4.426-0.028
      c-2.284-2.283-0.028-4.427-0.028-4.427l16.307-16.306L24,13.125l0.002-0.002l16.305,16.306c0,0,2.255,2.144-0.027,4.427
      C37.997,36.139,35.853,33.884,35.853,33.884z"/>
  </g>
  <g id="icon-right">
    <path d="M14.117,12.147L25.97,24L14.117,35.853c0,0-2.255,2.144,0.028,4.428
      c2.283,2.282,4.427,0.027,4.427,0.027l16.306-16.307L34.876,24l0.001-0.002L18.571,7.692c0,0-2.144-2.256-4.427,0.028
      C11.862,10.003,14.117,12.147,14.117,12.147z"/>
  </g>
  <g id="icon-left">
    <path d="M31.858,12.147L20.005,24l11.853,11.853c0,0,2.256,2.144-0.028,4.428
      c-2.283,2.282-4.426,0.027-4.426,0.027L11.098,24.001L11.099,24l-0.001-0.002L27.404,7.692c0,0,2.143-2.256,4.426,0.028
      C34.114,10.003,31.858,12.147,31.858,12.147z"/>
  </g>
</svg>