<?xml version="1.0" encoding="utf-8"?>
<!-- Generator: Adobe Illustrator 15.0.0, SVG Export Plug-In . SVG Version: 6.00 Build 0)  -->
<!DOCTYPE svg PUBLIC "-//W3C//DTD SVG 1.1//EN" "http://www.w3.org/Graphics/SVG/1.1/DTD/svg11.dtd">
<svg version="1.1" xmlns="http://www.w3.org/2000/svg" xmlns:xlink="http://www.w3.org/1999/xlink" x="0px" y="0px" width="400px"
	 height="480px" viewBox="0 0 400 480" enable-background="new 0 0 400 480" xml:space="preserve">
<g id="Illustration">
	<g id="Corps">
		<radialGradient id="SVGID_1_" cx="192.1885" cy="303.8594" r="111.7227" gradientUnits="userSpaceOnUse">
			<stop  offset="0" style="stop-color:#C08058"/>
			<stop  offset="1" style="stop-color:#A06040"/>
		</radialGradient>
		
			<path fill="url(#SVGID_1_)" stroke="#000000" stroke-width="1.5" stroke-linecap="round" stroke-linejoin="round" stroke-miterlimit="10" d="
			M330.939,349.845c3.886-18.947-13.456-42.048-13.456-42.048c-2.766-9.186-10.289-42.98-33.978-60.434
			c-16.568-12.207-64.591-18.448-84.945-18.011c-19.86,0.427-44.12,7.168-56.038,14.035c-12.504,7.204-21.875,16.911-28.574,27.41
			S101.5,311.611,101.5,311.611s-33.5,3.686-42,12.186s-9.171,23.892,0,35.16c9.5,11.673,117.855,19.682,141.262,19.424
			c24.98-0.274,45.742-8.619,62.905-9.945C320.974,364.006,328.556,361.467,330.939,349.845z"/>
		<g>
			<path d="M263.667,292.338c1.601,3.396,3.427,6.68,5.416,9.847c1.998,3.158,4.184,6.2,6.665,8.941
				c0.279,0.307,0.257,0.781-0.05,1.061c-0.307,0.278-0.781,0.256-1.06-0.05c-0.011-0.013-0.024-0.027-0.034-0.04
				c-2.367-2.996-4.368-6.221-6.168-9.533C266.646,299.244,265.039,295.835,263.667,292.338z"/>
		</g>
		<g>
			<path d="M144.359,298.135c-0.262,1.967-0.552,3.933-0.913,5.893c-0.377,1.963-0.756,3.913-1.493,5.876
				c-0.146,0.389-0.58,0.585-0.968,0.439c-0.389-0.146-0.586-0.58-0.44-0.969c0.011-0.028,0.023-0.057,0.038-0.084l0.009-0.018
				c0.88-1.659,1.52-3.558,2.127-5.427C143.317,301.963,143.853,300.053,144.359,298.135z"/>
		</g>
	</g>
	<g id="Vêtements">
		
			<path fill="#C04080" stroke="#000000" stroke-width="1.5" stroke-linecap="round" stroke-linejoin="round" stroke-miterlimit="10" d="
			M177.875,329.112c-14.21-13.166-37.566-19.815-37.566-19.815l-15.294,16.881c0,0-0.792-0.644-1.178-0.184
			c-2.962,3.498-7.005,12.723-7.005,12.723s-0.853-0.135-0.923,0c-0.884,1.636,0,17.128,0,17.128s8.396,11.54,34.85,16.071
			c20.549,3.516,56.28,0.299,77.317,4.142c48.124,8.789,73.169-13.749,73.169-13.749c4.428-7.802-0.942-23.227-0.942-23.227
			l-1.66-0.475c0.206-1.461-1.811-5.695-5.352-14.683c-0.284-0.718-2.504,0.693-2.949,0c-3.386-5.243-11.624-10.236-15.167-12.313
			c0,0-15.905,1.466-50.248,19.681c-34.341,18.212-20.234,14.604-25.535,14.604C194.088,345.896,189.83,340.192,177.875,329.112z"/>
		
			<path fill="#C04080" stroke="#000000" stroke-width="1.5" stroke-linecap="round" stroke-linejoin="round" stroke-miterlimit="10" d="
			M193.277,339.684c-0.62-3.129-3.409-5.655-8.286-3.799c-7.901,3.008-6.474,12.201-2.011,14.532
			C187.446,352.753,193.897,342.812,193.277,339.684z"/>
		
			<path fill="#C04080" stroke="#000000" stroke-width="1.5" stroke-linecap="round" stroke-linejoin="round" stroke-miterlimit="10" d="
			M217.95,348.874c1.096-4.526-2.198-9.233-6.285-10.872c-4.087-1.635-9.513,1.654-12.297,4.987
			c-2.786,3.334-4.521,10.306,4.474,13.967C211.665,360.142,216.854,353.406,217.95,348.874z"/>
		
			<path fill="#C04080" stroke="#000000" stroke-width="1.5" stroke-linecap="round" stroke-linejoin="round" stroke-miterlimit="10" d="
			M207.645,347.676c1.014,5.514-3.876,13.81-12.449,12.629c-8.572-1.184-10.38-7.402-9.742-11.737
			c0.642-4.331,4.543-11.638,11.67-10.997C204.254,338.212,206.646,342.238,207.645,347.676z"/>
		
			<path fill="none" stroke="#000000" stroke-width="1.5" stroke-linecap="round" stroke-linejoin="round" stroke-miterlimit="10" d="
			M200.762,349.662"/>
		<g>
			<path d="M225.813,343.697c4.788-3.022,9.92-5.477,15.162-7.619c5.249-2.137,10.625-3.953,16.061-5.561
				c5.437-1.604,10.937-2.995,16.473-4.218c5.542-1.215,11.102-2.287,16.738-3.119c0.41-0.061,0.791,0.223,0.852,0.633
				s-0.223,0.791-0.633,0.852c-0.004,0-0.008,0.001-0.013,0.002l-0.018,0.002c-5.577,0.697-11.16,1.645-16.696,2.731
				c-5.54,1.096-11.048,2.36-16.5,3.839c-5.45,1.481-10.848,3.173-16.127,5.188C235.839,338.448,230.667,340.782,225.813,343.697z"
				/>
		</g>
		<g>
			<path d="M218.162,354.666c7.061,1.13,14.214,1.602,21.353,1.6c7.139-0.016,14.278-0.56,21.307-1.744
				c7.026-1.184,13.945-3.019,20.546-5.652c6.596-2.632,12.866-6.08,18.484-10.387c0.329-0.252,0.799-0.189,1.051,0.14
				c0.252,0.328,0.19,0.799-0.139,1.051c-0.002,0.002-0.009,0.007-0.011,0.009c-5.813,4.296-12.252,7.688-18.978,10.236
				c-6.731,2.55-13.745,4.276-20.835,5.345c-7.094,1.067-14.271,1.487-21.429,1.378C232.356,356.518,225.203,355.92,218.162,354.666
				z"/>
		</g>
		<g>
			<path d="M164.881,345.771c-7.45-1.864-14.776-4.28-21.851-7.33c-3.536-1.526-7.009-3.21-10.386-5.081
				c-1.688-0.937-3.354-1.919-4.984-2.963c-0.815-0.523-1.622-1.061-2.417-1.621c-0.941-0.744-1.459-1.533-2.046-2.39
				c-0.234-0.342-0.147-0.809,0.194-1.043c0.342-0.234,0.809-0.146,1.043,0.195c0.007,0.009,0.013,0.019,0.019,0.028l0.021,0.036
				c0.457,0.743,1.034,1.576,1.597,2.037c0.755,0.57,1.53,1.123,2.313,1.663c1.569,1.078,3.181,2.102,4.819,3.082
				c3.279,1.958,6.67,3.74,10.133,5.372C150.27,341.017,157.496,343.665,164.881,345.771z"/>
		</g>
		<g>
			<path d="M116.506,338.265c1.563,1.966,3.605,3.741,5.676,5.337c2.096,1.598,4.323,3.036,6.627,4.34
				c4.614,2.608,9.533,4.685,14.58,6.366c10.112,3.354,20.716,5.145,31.356,5.997c-10.658-0.604-21.321-2.144-31.584-5.282
				c-5.123-1.576-10.142-3.555-14.893-6.095c-2.375-1.271-4.68-2.684-6.87-4.274c-2.186-1.615-4.27-3.308-6.089-5.484
				c-0.266-0.317-0.223-0.791,0.095-1.057s0.791-0.223,1.056,0.095c0.003,0.004,0.006,0.008,0.009,0.012L116.506,338.265z"/>
		</g>
	</g>
	<g id="Tête_1_">
		<radialGradient id="SVGID_2_" cx="207.6309" cy="227.2158" r="63.6017" gradientUnits="userSpaceOnUse">
			<stop  offset="0" style="stop-color:#C08058"/>
			<stop  offset="1" style="stop-color:#A06040"/>
		</radialGradient>
		
			<path fill="url(#SVGID_2_)" stroke="#000000" stroke-width="1.5" stroke-linecap="round" stroke-linejoin="round" stroke-miterlimit="10" d="
			M150.109,246.521C148.5,255.047,154,269.797,165,276.107c9.246,5.304,12.521,20.027,36.5,20.027s25.389-15.106,35.733-18.088
			c2.701-0.778,22.209-17.159,25.427-24.422c6.141-13.859,0.146-26.762,0.146-26.762s5.466-16.403-7.833-41.142
			c-12.344-22.965-34.64-27.425-52.723-27.425s-37.75,11.333-43.417,26.416c-5.772,15.363-4.965,30.973-7.833,40.917
			C148.5,234.297,151.718,237.996,150.109,246.521z"/>
	</g>
	<g id="Muqueuses">
		<g id="Babines_1_">
			
				<path fill="#E0B480" stroke="#000000" stroke-width="1.5" stroke-linecap="round" stroke-linejoin="round" stroke-miterlimit="10" d="
				M243.036,277.761c-10.12,3.453-8.703,14.203-22.639,22.202c-9.085,5.215-15.202,6.584-25.131,4.614
				c-9.17-1.819-17.057-13.813-17.057-13.813c-6.275-1.232-12.709-7.217-13.222-14.082c-0.564-7.551,1.352-11.917,14.476-19.812
				c0,0,7.295-9.98,11.281-12.837c3.985-2.857,10.456-2.002,13.85,1.212c4.41,4.173,10.609,12.475,25.159,9.864
				c8.247-1.479,16.218-2.414,20.08,2.521S253.489,274.308,243.036,277.761z"/>
			
				<path fill="none" stroke="#000000" stroke-width="1.5" stroke-linecap="round" stroke-linejoin="round" stroke-miterlimit="10" d="
				M178.709,290.764c11.791,2.283,13.722-11.257,13.722-11.257s0.853,13.094,13.724,13.094c10.846,0,16.547-7.987,16.547-7.987"/>
		</g>
		<g id="Bouche_1_">
			
				<path fill="#502040" stroke="#000000" stroke-width="1.5" stroke-linecap="round" stroke-linejoin="round" stroke-miterlimit="10" d="
				M242.467,269.251c3.21-1.292,3.226-6.116-0.175-6.783c-6.453-1.266-11.414,1.392-13.867,8.766
				c-4.455,13.387-7.277,15.236-7.277,15.236s5.414-2.621,9.622-9.397C234.977,270.296,239.256,270.543,242.467,269.251z"/>
			<g id="Langue_1_" display="none">
				
					<path display="inline" fill="#CC5252" stroke="#000000" stroke-width="1.5" stroke-linecap="round" stroke-linejoin="round" stroke-miterlimit="10" d="
					M222.801,283.67c0,0,1.136-6.956,10.189-10.355c2.101-4.508,5.225-6.422,8.45-7.561c4.394-1.555,13.929,0.974,18.127,4.401
					c4.687,3.829,12.557,10.764,13.385,15.551c0.648,3.721-4.26,4.489-11.355,4.73c-7.44,0.256-9.994-5.396-16.632-4.597
					C229.818,287.668,222.801,283.67,222.801,283.67z"/>
				<g display="inline">
					<path d="M232.86,272.576c2.345-0.308,4.639-0.38,6.957-0.317c2.31,0.07,4.616,0.305,6.88,0.752
						c4.507,0.886,8.954,2.675,12.328,5.797c-3.542-2.93-7.999-4.43-12.454-5.058c-2.238-0.316-4.502-0.421-6.758-0.366
						c-2.247,0.06-4.526,0.264-6.693,0.669l-0.025,0.005c-0.408,0.076-0.8-0.192-0.876-0.6s0.192-0.8,0.6-0.876
						C232.833,272.58,232.848,272.577,232.86,272.576z"/>
				</g>
			</g>
		</g>
		<g id="Dents_1_">
			<path fill="#FFFFFF" stroke="#000000" stroke-width="1.5" stroke-miterlimit="10" d="M223.357,283.3c0,0,3.918,2.19,4.663,1.159
				c0.744-1.031-1.789-6.959-1.789-6.959L223.357,283.3z"/>
			<path fill="#FFFFFF" stroke="#000000" stroke-width="1.5" stroke-miterlimit="10" d="M229.274,270.133
				c0,0,4.938,5.125,6.093,4.196c1.156-0.93-1.649-8.655-1.649-8.655s-1.118-0.862-2.95,1.393S229.274,270.133,229.274,270.133z"/>
			<path fill="#FFFFFF" stroke="#000000" stroke-width="1.5" stroke-miterlimit="10" d="M236.694,263.463
				c0,0,1.728,4.769,2.684,4.769s2.606-4.936,2.606-4.936s-0.698-1.111-2.729-0.949
				C237.224,262.507,236.694,263.463,236.694,263.463z"/>
		</g>
		<g id="Truffe_1_">
			
				<path fill="#3A2D29" stroke="#000000" stroke-width="1.5" stroke-linecap="round" stroke-linejoin="round" stroke-miterlimit="10" d="
				M176.889,254.869c4.318-2.737,23.127-2.706,28.318-0.868c5.191,1.839,9.417,5.029,7.145,10.559
				c-2.168,5.279-7.255,5.043-10.564,7.856s-3.849,5.77-3.849,5.77s-1.792,1.371-5.507,1.321c-3.715-0.048-5.019-1.428-5.019-1.428
				s-2.361-4.545-4.973-6.674c-2.611-2.128-7.458-2.304-9.584-6.688C170.729,260.33,173.072,257.288,176.889,254.869z"/>
			<path fill="#665448" d="M208.269,260.564c-0.042,3.168-5.13,6.057-16.458,5.797c-11.328-0.259-17.032-2.26-16.597-5.541
				s7.069-5.738,15.538-5.79C199.22,254.977,208.311,257.396,208.269,260.564z"/>
		</g>
		<g id="Oeil_gauche_1_">
			
				<path fill="#FFFFFF" stroke="#000000" stroke-width="1.5" stroke-linecap="round" stroke-linejoin="round" stroke-miterlimit="10" d="
				M223.329,218.057c-5.01-1.105-11.209,1.616-12.598,12.485c-1.064,8.326,1.675,5.685,11.308,5.88
				c9.632,0.196,11.683,2.194,11.032-5.83C232.544,224.088,228.042,219.099,223.329,218.057z"/>
			<g>
				<path d="M212.54,223.644c-0.536-0.282-0.911-0.596-1.294-0.956c-0.371-0.357-0.696-0.754-0.966-1.178
					c-0.544-0.847-0.85-1.802-0.941-2.741c0.335,0.886,0.858,1.669,1.518,2.263c0.328,0.298,0.688,0.552,1.066,0.758
					c0.366,0.201,0.799,0.381,1.135,0.446c0.412,0.081,0.68,0.48,0.599,0.892c-0.081,0.412-0.48,0.68-0.892,0.599
					c-0.073-0.015-0.142-0.039-0.205-0.071L212.54,223.644z"/>
			</g>
			<g>
				<path d="M215.076,219.497c-0.259-0.523-0.456-1.021-0.643-1.543c-0.183-0.517-0.339-1.043-0.462-1.575
					c-0.24-1.06-0.362-2.176-0.14-3.221c0.031,1.063,0.395,2.052,0.847,2.97c0.23,0.46,0.487,0.904,0.766,1.333
					c0.277,0.424,0.583,0.853,0.889,1.218c0.268,0.319,0.227,0.796-0.093,1.064c-0.32,0.268-0.796,0.227-1.064-0.094
					C215.137,219.604,215.102,219.549,215.076,219.497z"/>
			</g>
			<g>
				<path d="M221.851,217.549c0.246-0.545,0.471-1.151,0.67-1.747c0.199-0.602,0.376-1.212,0.524-1.831
					c0.296-1.238,0.488-2.513,0.491-3.81c0.247,1.274,0.307,2.596,0.252,3.912c-0.027,0.659-0.086,1.317-0.169,1.976
					c-0.087,0.663-0.19,1.306-0.349,1.986c-0.094,0.405-0.5,0.657-0.905,0.563c-0.405-0.094-0.658-0.499-0.563-0.905
					c0.011-0.047,0.026-0.092,0.045-0.135L221.851,217.549z"/>
			</g>
			<g>
				<path d="M227.882,219.773c0.422-0.249,0.878-0.594,1.289-0.943c0.415-0.356,0.809-0.744,1.172-1.161
					c0.727-0.835,1.334-1.798,1.724-2.878c-0.145,1.138-0.54,2.264-1.106,3.303c-0.283,0.521-0.606,1.022-0.965,1.502
					c-0.367,0.482-0.737,0.929-1.215,1.379c-0.303,0.286-0.781,0.272-1.067-0.031c-0.286-0.303-0.272-0.781,0.031-1.067
					C227.786,219.838,227.836,219.801,227.882,219.773z"/>
			</g>
			<g>
				<path d="M231.752,224.339c0.379-0.075,0.836-0.244,1.237-0.438c0.409-0.198,0.803-0.439,1.163-0.73
					c0.723-0.577,1.302-1.373,1.611-2.315c-0.06,0.985-0.435,1.989-1.065,2.83c-0.312,0.423-0.68,0.807-1.085,1.153
					c-0.417,0.347-0.827,0.646-1.365,0.916l-0.009,0.005c-0.374,0.187-0.829,0.035-1.016-0.339s-0.036-0.829,0.338-1.017
					C231.622,224.374,231.689,224.352,231.752,224.339z"/>
			</g>
			
				<path fill="#BFBFBF" stroke="#000000" stroke-width="1.5" stroke-linecap="round" stroke-linejoin="round" stroke-miterlimit="10" d="
				M225.247,230.437c-0.145,1.128-1.172,1.925-2.303,1.778c-1.127-0.144-1.925-1.172-1.78-2.3c0.144-1.13,1.175-1.924,2.302-1.78
				C224.596,228.28,225.39,229.309,225.247,230.437z"/>
		</g>
		<g id="Oeil_droit_1_">
			<g>
				<path d="M159.153,224.951c1.062-2.06,3.085-3.635,5.404-4.272c2.344-0.633,4.844-0.278,7.076,0.51
					c2.247,0.803,4.308,2.002,6.212,3.369c1.899,1.379,3.678,2.904,5.332,4.544c0.29,0.287,0.292,0.755,0.004,1.044
					c-0.219,0.221-0.542,0.274-0.812,0.161l-0.014-0.006c-1.638-0.696-3.502-1.164-5.325-1.495
					c-1.842-0.313-3.716-0.462-5.594-0.447c-1.877,0.026-3.759,0.208-5.62,0.561c-1.868,0.331-3.694,0.885-5.501,1.525
					c1.684-0.923,3.49-1.624,5.345-2.18c1.861-0.535,3.787-0.887,5.732-1.011c1.945-0.138,3.909-0.07,5.848,0.207
					c1.951,0.275,3.833,0.718,5.729,1.498l-0.821,1.199c-1.649-1.567-3.34-3.089-5.158-4.431c-1.813-1.34-3.726-2.555-5.792-3.388
					c-2.048-0.838-4.29-1.293-6.47-0.899C162.549,221.8,160.516,223.093,159.153,224.951z"/>
			</g>
			<g>
				<path d="M163.934,233.047c1.603,1.128,3.274,2.087,5.015,2.759c1.738,0.655,3.572,0.991,5.31,0.673
					c1.747-0.271,3.338-1.223,4.713-2.462c1.376-1.256,2.544-2.792,3.691-4.387c-0.59,1.874-1.515,3.67-2.854,5.205
					c-1.319,1.532-3.18,2.765-5.296,3.121c-2.114,0.354-4.255-0.146-6.041-1.086C166.676,235.932,165.113,234.628,163.934,233.047z"
					/>
			</g>
		</g>
	</g>
	<g id="Pupitre">
		<linearGradient id="SVGID_3_" gradientUnits="userSpaceOnUse" x1="20" y1="433.332" x2="380" y2="433.332">
			<stop  offset="0" style="stop-color:#909090"/>
			<stop  offset="1" style="stop-color:#707070"/>
		</linearGradient>
		
			<rect x="20" y="406.665" fill="url(#SVGID_3_)" stroke="#000000" stroke-width="1.5" stroke-linecap="round" stroke-linejoin="round" stroke-miterlimit="10" width="360" height="53.335"/>
		<linearGradient id="SVGID_4_" gradientUnits="userSpaceOnUse" x1="20.0078" y1="377.8545" x2="380" y2="377.8545">
			<stop  offset="0" style="stop-color:#C0C0C0"/>
			<stop  offset="1" style="stop-color:#909090"/>
		</linearGradient>
		
			<polygon fill="url(#SVGID_4_)" stroke="#000000" stroke-width="1.5" stroke-linecap="round" stroke-linejoin="round" stroke-miterlimit="10" points="
			20.008,406.665 80.25,349.044 320,349.044 380,406.665 		"/>
	</g>
	<g id="Feuille">
		<linearGradient id="SVGID_5_" gradientUnits="userSpaceOnUse" x1="208.0811" y1="417.6016" x2="208.0811" y2="345.2969">
			<stop  offset="0" style="stop-color:#F4F4F4"/>
			<stop  offset="1" style="stop-color:#C0C0C0"/>
		</linearGradient>
		
			<polygon fill="url(#SVGID_5_)" stroke="#000000" stroke-width="1.5" stroke-linecap="round" stroke-linejoin="round" stroke-miterlimit="10" points="
			165.853,345.297 252.489,345.297 285.475,392.113 291.646,406.805 289.927,417.602 127.15,417.602 124.517,406.805 
			129.539,392.113 		"/>
	</g>
	<g id="Plume">
		
			<path fill="#FFFFCC" stroke="#000000" stroke-width="1.5" stroke-linecap="round" stroke-linejoin="round" stroke-miterlimit="10" d="
			M96.453,382.653l4.429-18.759c0,0-3.753-5.216-6.234-10.931c-2.479-5.714-17.538-59.795-17.538-59.795s11.163-5.181,14.67-18.612
			c8.686-2.698,9.799-8.042,9.799-8.042s-3.16,3.173-8.914,3.259c2.273-9.22-1.168-17.313-1.168-17.313
			c2.627-3.749,3.468-6.361,3.468-6.361s-8.756,1.709-12.041,7.437c0.868-6.743,5.324-11.901,5.324-11.901
			c-0.403-9.354-5.107-15.944-5.106-15.942c0,0-4.117,6.739-9.973,12.353c7.957-13.865,7.9-20.822,7.9-20.822l-3.339-5.929
			c0,0-3.35,5.882-8.606,9.354c4.176-8.251,3.793-14.092,3.793-14.092l-2.003-7.385c0,0-1.943,4.558-5.726,9.582
			c3.443-5.966,4.292-13.184,4.292-13.184s0.337-3.845-1.827-12.509c0,0-0.429,2.956-5.128,8.576c0,0,3.377-6.338,3.766-13.05
			l-1.877-9.255c0,0-1.29,3.371-5.267,7.562c3.127-6.529,3.911-10.503,3.911-10.503s-1.692-5.893-2.035-9.363
			c0,0-1.681,6.384-5.505,10.565c2.644-4.086,3.75-14.466,3.75-14.466c-0.496-13.714-2.82-26.484-11.412-34.602
			c7.956,15.378-4.009,36.495-2.594,109.692c0.083,4.311,0.518,8.394,1.036,12.263c-2.534-1.535-4.435-0.957-4.435-0.957
			s4.881,5.041,5.732,8.716c3.304,14.257,6.605,26.021,11.281,33.747c5.956,9.839,12.368,12.323,12.368,12.323L96.453,382.653z"/>
		<g>
			<path d="M67.181,282.492c-2.546-5.571-4.911-11.228-7.024-16.985c-2.162-5.741-3.991-11.612-5.515-17.567
				c-3.129-11.925-4.196-24.228-5.134-36.421c-0.468-6.118-0.641-12.255-0.543-18.383c0.083-6.132,0.487-12.246,0.81-18.355
				c0.678-12.223,1.411-24.441,2.173-36.659l-1.752,36.681c-0.667,12.221-0.854,24.471,0.224,36.642
				c0.258,3.038,0.673,6.077,1.031,9.112c0.386,3.033,0.712,6.069,1.15,9.089c0.845,6.044,2.003,12.026,3.414,17.954
				c1.429,5.925,3.234,11.757,5.106,17.571C63.039,270.971,65.101,276.73,67.181,282.492z"/>
		</g>
		<g>
			<path d="M50.982,176.837c-0.275,2.369-0.284,4.758-0.287,7.139c0.003,2.382,0.072,4.764,0.179,7.144
				c0.211,4.76,0.589,9.511,1.014,14.256c0.21,2.373,0.442,4.744,0.692,7.113c0.249,2.36,0.63,4.704,1.035,7.048
				c0.85,4.679,1.73,9.354,2.774,13.997c2.114,9.277,4.434,18.514,7.263,27.6c2.768,9.104,5.951,18.086,9.728,26.85
				c-4.438-8.458-7.936-17.394-10.954-26.46c-2.934-9.098-5.466-18.331-7.39-27.696c-0.966-4.681-1.897-9.372-2.535-14.115
				c-0.685-4.742-1.015-9.523-1.389-14.273c-0.34-4.762-0.569-9.531-0.666-14.305C50.383,186.365,50.336,181.569,50.982,176.837z"/>
		</g>
	</g>
	<g id="Pattes">
		
			<radialGradient id="SVGID_6_" cx="299.0059" cy="772.0371" r="32.7038" gradientTransform="matrix(0.2636 0.9646 -0.9646 0.2636 978.3571 -141.4705)" gradientUnits="userSpaceOnUse">
			<stop  offset="0" style="stop-color:#C08058"/>
			<stop  offset="1" style="stop-color:#A06040"/>
		</radialGradient>
		
			<path fill="url(#SVGID_6_)" stroke="#000000" stroke-width="1.5" stroke-linecap="round" stroke-linejoin="round" stroke-miterlimit="10" d="
			M302.305,371.237c-5.647,0.021-8.499-7.703-8.499-7.703s-3.889,5.014-8.536,4.376c-5.596-0.768-8.857-8.294-9.693-11.92
			c-0.899-3.895-2.906-9.852,1.681-16.739c5.076-7.62,12.846-6.442,12.846-6.442s5.563-6.845,16.051-9.287
			c10.083-2.348,17.931,3.733,17.931,3.733s11.612-1.642,18.248,4.293c6.637,5.933,7,12.333,6.861,21.034
			c-0.144,9.017-5.528,19.633-11.879,19.539c-5.56-0.082-7.187-5.454-7.187-5.454s-3.067,7.125-9.518,6.993
			c-6.201-0.125-9.574-7.352-9.574-7.352S308.333,371.215,302.305,371.237z"/>
		
			<radialGradient id="SVGID_7_" cx="77.0918" cy="337.7188" r="31.4523" gradientTransform="matrix(0.9962 -0.0872 0.0872 0.9962 -34.9763 7.3942)" gradientUnits="userSpaceOnUse">
			<stop  offset="0" style="stop-color:#C08058"/>
			<stop  offset="1" style="stop-color:#A06040"/>
		</radialGradient>
		
			<path fill="url(#SVGID_7_)" stroke="#000000" stroke-width="1.5" stroke-linecap="round" stroke-linejoin="round" stroke-miterlimit="10" d="
			M81.832,352.242c-0.228,4.73-4.365,6.531-4.365,6.531s6.006,3.946,2.254,8.166c-5.792,6.515-19.579,7.577-26.098,2.479
			c-6.52-5.099-4.58-14.726-4.58-14.726s-4.916-3.477-5.221-16.244c-0.261-10.887,4.968-15.379,4.968-15.379
			s0.707-9.738,7.729-15.208c7.023-5.472,16.933-7.638,25.362-4.308c8.388,3.314,16.175,10.068,15.439,16.914
			c-0.669,6.23-7.439,6.77-7.439,6.77s5.4,3.441,3.805,10.212c-1.422,6.036-15.2,6.851-15.2,6.851S82.059,347.511,81.832,352.242z"
			/>
	</g>
	<g id="Encre">
		
			<path fill="#485890" stroke="#000000" stroke-width="1.5" stroke-linecap="round" stroke-linejoin="round" stroke-miterlimit="10" d="
			M326.999,335.348v5.521c8.896,1.835,11.023,11.961,11.023,11.961v35.247c0,0-0.754,6.639-21.021,6.639
			c-20.29,0-21.023-6.639-21.023-6.639V352.83c0,0,1.442-10.667,11.022-12.435v-5.048H326.999z"/>
		
			<path fill="#F4F4F4" stroke="#000000" stroke-width="1.5" stroke-linecap="round" stroke-linejoin="round" stroke-miterlimit="10" d="
			M294.851,379.629c0,0,2.98,5.401,22.151,5.401s22.285-5.401,22.285-5.401v-22.493c0,0-5.879,5.401-22.285,5.401
			c-16.406,0-22.151-5.401-22.151-5.401V379.629z"/>
		
			<path fill="#485890" stroke="#000000" stroke-width="1.5" stroke-linecap="round" stroke-linejoin="round" stroke-miterlimit="10" d="
			M328.872,329.031v6.318c0,2.141-5.284,3.873-11.802,3.873c-6.517,0-11.801-1.732-11.801-3.873v-6.318H328.872z"/>
		
			<ellipse fill="#6070B4" stroke="#000000" stroke-width="1.5" stroke-linecap="round" stroke-linejoin="round" stroke-miterlimit="10" cx="317.07" cy="329.031" rx="11.802" ry="3.872"/>
		
			<path fill="#202850" stroke="#000000" stroke-width="1.5" stroke-linecap="round" stroke-linejoin="round" stroke-miterlimit="10" d="
			M324.965,330.492c0,1.204-3.563,2.18-7.964,2.18c-4.4,0-7.964-0.976-7.964-2.18c0-1.203,3.564-2.176,7.964-2.176
			C321.403,328.316,324.965,329.289,324.965,330.492z"/>
	</g>
	<g id="Lunettes">
		<g>
			<path fill="#707070" d="M170.489,252.199c-1.445,0-2.905-0.138-4.337-0.409c-6.066-1.15-11.323-4.596-14.803-9.702
				c-3.479-5.106-4.761-11.259-3.611-17.325c2.069-10.918,11.617-18.843,22.703-18.843c1.442,0,2.898,0.138,4.327,0.408
				c9.822,1.862,17.227,9.64,18.617,19.462l6.036-0.018c0.055-0.592,0.147-1.227,0.285-1.95
				c2.067-10.906,11.613-18.821,22.698-18.821c1.442,0,2.897,0.137,4.326,0.407c7.303,1.386,13.474,6.184,16.651,12.9l33.553-15.977
				c0.103-0.049,0.212-0.073,0.322-0.073c0.157,0,0.312,0.049,0.443,0.145c0.223,0.163,0.338,0.435,0.3,0.708l-0.403,2.92
				c-0.035,0.25-0.192,0.466-0.419,0.574l-32.402,15.496c0.917,3.378,1.047,6.852,0.388,10.335
				c-2.069,10.917-11.621,18.842-22.712,18.842c0,0,0,0,0,0c-1.446-0.001-2.905-0.138-4.337-0.409
				c-10.324-1.956-18.112-10.835-18.769-21.264l-5.783,0.023c-0.052,0.971-0.166,2.696-0.365,3.75
				C191.13,244.284,181.58,252.199,170.489,252.199z M170.441,209.663c-9.294,0-17.299,6.64-19.033,15.786
				c-1.991,10.509,4.938,20.679,15.444,22.669c1.201,0.229,2.423,0.344,3.635,0.344c9.295,0,17.3-6.641,19.034-15.789
				c1.992-10.506-4.937-20.675-15.444-22.666C172.875,209.778,171.652,209.663,170.441,209.663z M222.409,208.737
				c-9.294,0-17.299,6.641-19.034,15.789c-0.965,5.09,0.11,10.251,3.027,14.532s7.327,7.171,12.417,8.135
				c1.2,0.228,2.423,0.343,3.634,0.343c9.296,0,17.302-6.64,19.036-15.787c0.964-5.09-0.111-10.251-3.029-14.533
				s-7.328-7.171-12.417-8.135C224.843,208.854,223.62,208.737,222.409,208.737z"/>
			<path d="M277.257,203.009h0.005 M277.257,203.009l-0.403,2.92l-32.974,15.77c1.003,3.333,1.239,6.94,0.546,10.599
				c-2.037,10.747-11.428,18.231-21.976,18.231c-1.384,0-2.788-0.129-4.197-0.396c-10.495-1.988-17.877-11.015-18.193-21.279
				l-7.214,0.029c0,0-0.11,2.898-0.386,4.357c-2.033,10.728-11.424,18.21-21.972,18.21c-1.384,0-2.788-0.129-4.197-0.396
				c-12.137-2.3-20.117-14.016-17.817-26.15c2.037-10.748,11.429-18.232,21.966-18.232c1.38,0,2.782,0.129,4.188,0.396
				c9.889,1.874,17.025,9.973,18.096,19.477l7.398-0.021c0.035-0.852,0.159-1.708,0.321-2.559
				c2.033-10.729,11.425-18.212,21.961-18.211c1.38,0,2.781,0.128,4.187,0.395c7.603,1.442,13.566,6.573,16.423,13.169
				L277.257,203.009 M222.454,248.286c9.488,0,17.941-6.733,19.773-16.397c2.071-10.93-5.112-21.475-16.043-23.545
				c-1.268-0.24-2.53-0.356-3.774-0.356c-9.489,0.001-17.938,6.735-19.771,16.399c-2.072,10.931,5.108,21.473,16.042,23.544
				C219.948,248.171,221.209,248.286,222.454,248.286 M170.487,249.212c9.487,0,17.939-6.734,19.771-16.399
				c2.072-10.932-5.111-21.471-16.042-23.543c-1.269-0.24-2.53-0.356-3.775-0.356c-9.487,0.001-17.938,6.733-19.77,16.396
				c-2.071,10.933,5.11,21.475,16.042,23.546C167.98,249.096,169.242,249.212,170.487,249.212 M277.257,201.509
				c-0.015,0-0.029,0-0.043,0.001c0,0,0,0-0.001,0c-0.001,0-0.002,0-0.003,0c-0.225,0.007-0.437,0.063-0.625,0.158l-32.856,15.646
				c-3.366-6.579-9.565-11.258-16.857-12.642c-1.475-0.279-2.978-0.421-4.466-0.421c-11.445-0.001-21.301,8.172-23.435,19.432
				c-0.091,0.479-0.164,0.923-0.219,1.342l-4.724,0.014c-1.662-9.835-9.195-17.565-19.119-19.446
				c-1.475-0.279-2.978-0.422-4.467-0.422c-11.446,0-21.304,8.181-23.44,19.453c-1.188,6.263,0.137,12.615,3.729,17.887
				c3.592,5.272,9.02,8.83,15.283,10.017c1.478,0.28,2.984,0.423,4.477,0.423c11.452,0,21.312-8.172,23.445-19.431
				c0.164-0.865,0.271-2.152,0.335-3.143l4.382-0.018c0.977,10.46,8.897,19.272,19.323,21.247c1.478,0.28,2.984,0.423,4.477,0.423
				c11.451,0,21.313-8.181,23.449-19.452c0.642-3.388,0.559-6.768-0.245-10.064l31.846-15.229c0.455-0.218,0.77-0.649,0.839-1.148
				l0.391-2.832c0.019-0.095,0.029-0.192,0.029-0.293c0-0.828-0.669-1.5-1.498-1.5h0
				C277.26,201.509,277.259,201.509,277.257,201.509L277.257,201.509z M222.454,246.786c-1.164,0-2.34-0.11-3.494-0.329
				c-4.894-0.928-9.133-3.705-11.938-7.82c-2.804-4.116-3.837-9.077-2.91-13.971c1.667-8.795,9.362-15.178,18.297-15.179
				c1.165,0,2.34,0.111,3.495,0.33c4.893,0.927,9.132,3.704,11.937,7.821c2.805,4.116,3.839,9.078,2.912,13.971
				C239.086,240.403,231.39,246.786,222.454,246.786L222.454,246.786z M170.487,247.712c-1.165,0-2.34-0.111-3.495-0.33
				c-10.101-1.914-16.761-11.69-14.847-21.793c1.667-8.793,9.362-15.175,18.296-15.176c1.165,0,2.34,0.111,3.496,0.33
				c10.101,1.915,16.762,11.69,14.847,21.79C187.117,241.328,179.422,247.712,170.487,247.712L170.487,247.712z"/>
		</g>
	</g>
	<g id="Cheveux">
		<radialGradient id="SVGID_8_" cx="206.4785" cy="190.8486" r="61.2053" gradientUnits="userSpaceOnUse">
			<stop  offset="0" style="stop-color:#E0CC80"/>
			<stop  offset="1" style="stop-color:#C8B050"/>
		</radialGradient>
		
			<path fill="url(#SVGID_8_)" stroke="#000000" stroke-width="1.5" stroke-linecap="round" stroke-linejoin="round" stroke-miterlimit="10" d="
			M138.529,213.3c0,0-7.357-10.437,0.526-28.425c7.53-17.185,26.449-24.874,26.449-24.874s-10.257-1.052-19.129,3.153
			c0,0,17.216-17.361,40.15-13.665c0,0,1.408-2.458-4.205-5.948c0,0,6.139-2.102,15.515,2.44c0,0,5.861-4.206,14.609-4.542
			c0,0-4.184,3.238-4.668,7.358c0,0,18.437-9.461,33.804,0.335c0,0-5.742-0.904-11.962,3.469c0,0,24.323,1.579,35.86,19.822
			c16.755,26.493,12.217,32.381,8.903,47.591c1.229-11.062-3.915-18.624-3.893-18.624c2.458,12.291,2.611,24.854-2.792,32.912
			c0.948-14.271-12.856-25.936-12.856-25.936c7.462,17.176,0.42,31.891,0.42,31.891c-2.128-9.749-1.46-17.855-7.771-24.596
			c-7.38-7.883-25.625-14.558-30.876-18.481c-12.485-9.329-11.959-14.582-11.959-14.582c-11.561,1.575-11.866,19.252-11.866,19.252
			c-5.423-5.59-4.179-16.624-4.179-16.624c-12.632,14.907-10.494,32.598-10.494,32.598c-9.417-6.603-4.837-25.223-4.837-25.223
			s-1.633,6.671-13.723,15.221c-15.793,11.168-13.786,16.291-14.663,21.546C140.339,223.938,138.529,213.3,138.529,213.3z"/>
		<g>
			<path d="M137.782,213.229c0.796-8.266,3.364-16.437,7.836-23.434c2.225-3.498,4.888-6.708,7.903-9.531
				c3.025-2.802,6.362-5.304,10.056-7.126c-3.635,1.933-6.879,4.525-9.795,7.396c-2.906,2.891-5.439,6.144-7.525,9.653
				c-2.085,3.511-3.711,7.282-4.864,11.185c-1.163,3.905-1.835,7.928-2.118,11.997c-0.029,0.413-0.387,0.726-0.8,0.696
				c-0.413-0.028-0.725-0.387-0.696-0.8c0-0.006,0.001-0.012,0.001-0.017L137.782,213.229z"/>
		</g>
		
			<path fill="none" stroke="#000000" stroke-width="1.5" stroke-linecap="round" stroke-linejoin="round" stroke-miterlimit="10" d="
			M164.979,171.021"/>
		<g>
			<path d="M235.103,166.044c3.21,1.025,6.282,2.479,9.207,4.167c2.935,1.681,5.714,3.631,8.336,5.776
				c2.603,2.167,5.044,4.537,7.213,7.14c2.187,2.584,4.083,5.411,5.619,8.405c-4.064-5.359-8.658-10.172-13.788-14.39
				c-2.549-2.124-5.233-4.086-7.996-5.941C240.916,169.372,238.082,167.602,235.103,166.044z"/>
		</g>
		<g>
			<path d="M227.186,178.066c1.702,3.007,3.634,5.876,5.676,8.654c2.05,2.773,4.236,5.442,6.567,7.974
				c4.657,5.055,9.904,9.6,15.8,13.031c0.358,0.207,0.481,0.666,0.274,1.024c-0.208,0.359-0.667,0.481-1.025,0.274
				c-0.007-0.004-0.019-0.011-0.025-0.016c-5.932-3.748-11.074-8.554-15.585-13.816c-2.257-2.636-4.356-5.398-6.312-8.255
				C230.609,184.076,228.778,181.134,227.186,178.066z"/>
		</g>
		<g id="Mèches">
			<linearGradient id="SVGID_9_" gradientUnits="userSpaceOnUse" x1="157.4946" y1="179.0518" x2="171.4781" y2="202.3242">
				<stop  offset="0" style="stop-color:#E0CC80"/>
				<stop  offset="1" style="stop-color:#E0CC80;stop-opacity:0"/>
			</linearGradient>
			<path fill="url(#SVGID_9_)" d="M164.57,194.314c-7.991,8.132-18.364,10.818-22.091,25.434
				c-3.331-11.381,3.068-26.461,11.398-35.922c13.885-15.769,35.271-17.782,35.271-17.782S173.526,185.2,164.57,194.314z"/>
			<linearGradient id="SVGID_10_" gradientUnits="userSpaceOnUse" x1="157.9136" y1="166.4551" x2="165.7407" y2="179.4817">
				<stop  offset="0" style="stop-color:#E0CC80"/>
				<stop  offset="1" style="stop-color:#E0CC80;stop-opacity:0"/>
			</linearGradient>
			<path fill="url(#SVGID_10_)" d="M170.979,160.644c-8.802,2.194-30.104,12.495-33.163,35.617c0,0,11.98-23.441,33.875-31.462
				c7.042-2.58,20.128-5.167,20.128-5.167S179.782,158.45,170.979,160.644z"/>
			<linearGradient id="SVGID_11_" gradientUnits="userSpaceOnUse" x1="184.9839" y1="172.8193" x2="198.2808" y2="194.9492">
				<stop  offset="0" style="stop-color:#E0CC80"/>
				<stop  offset="1" style="stop-color:#E0CC80;stop-opacity:0"/>
			</linearGradient>
			<path fill="url(#SVGID_11_)" d="M209.5,162c-11.5,8.25-15.437,20.567-18.109,30.463c0,0-1.353-8.937,0.25-13.675
				c-13.972,6.115-16.149,29.854-16.149,29.854C168.29,181.248,196,162,209.5,162z"/>
			<linearGradient id="SVGID_12_" gradientUnits="userSpaceOnUse" x1="170.6763" y1="148.5537" x2="182.4708" y2="168.1832">
				<stop  offset="0" style="stop-color:#E0CC80"/>
				<stop  offset="1" style="stop-color:#E0CC80;stop-opacity:0"/>
			</linearGradient>
			<path fill="url(#SVGID_12_)" d="M200.25,157.5c-21-17.25-47.307,1.813-47.307,1.813s13.334-2.926,22.833-3.222
				C186.75,155.75,200.25,157.5,200.25,157.5z"/>
			<linearGradient id="SVGID_13_" gradientUnits="userSpaceOnUse" x1="226.6636" y1="159.5986" x2="257.4708" y2="210.8705">
				<stop  offset="0" style="stop-color:#E0CC80"/>
				<stop  offset="1" style="stop-color:#E0CC80;stop-opacity:0"/>
			</linearGradient>
			<path fill="url(#SVGID_13_)" d="M222.25,162.25c0,0,28.5,9,38.75,46.5C232.5,190.5,222.25,166.678,222.25,162.25z"/>
			<linearGradient id="SVGID_14_" gradientUnits="userSpaceOnUse" x1="207.9473" y1="163.8613" x2="235.6673" y2="209.9952">
				<stop  offset="0" style="stop-color:#E0CC80"/>
				<stop  offset="1" style="stop-color:#E0CC80;stop-opacity:0"/>
			</linearGradient>
			<path fill="url(#SVGID_14_)" d="M211.09,161.974c0,0-5.964,9.939-3.34,18.526c2.75,9,11.266,18.202,36.011,24.633
				C222.279,184.417,211.09,161.974,211.09,161.974z"/>
			<linearGradient id="SVGID_15_" gradientUnits="userSpaceOnUse" x1="218.8223" y1="144.2207" x2="224.5299" y2="153.7199">
				<stop  offset="0" style="stop-color:#E0CC80"/>
				<stop  offset="1" style="stop-color:#E0CC80;stop-opacity:0"/>
			</linearGradient>
			<path fill="url(#SVGID_15_)" d="M235.103,147.367c0,0-13.095-3.563-26.853,3.206c0,0,10.33,2.323,13.427,4.189
				C223.882,151.998,227.976,147.724,235.103,147.367z"/>
			<linearGradient id="SVGID_16_" gradientUnits="userSpaceOnUse" x1="189.3193" y1="142.2734" x2="194.5462" y2="150.9724">
				<stop  offset="0" style="stop-color:#E0CC80"/>
				<stop  offset="1" style="stop-color:#E0CC80;stop-opacity:0"/>
			</linearGradient>
			<path fill="url(#SVGID_16_)" d="M185.585,144.518c0,0,6.769-0.527,12.469,3.833l-5.001,3.52
				C193.052,151.87,191.641,147.724,185.585,144.518z"/>
			<linearGradient id="SVGID_17_" gradientUnits="userSpaceOnUse" x1="203.6729" y1="144.3447" x2="206.5201" y2="149.0834">
				<stop  offset="0" style="stop-color:#E0CC80"/>
				<stop  offset="1" style="stop-color:#E0CC80;stop-opacity:0"/>
			</linearGradient>
			<path fill="url(#SVGID_17_)" d="M208.921,142.558c0,0-8.196,1.812-9.265,5.626c0,0,3.715,0.397,5.599,1.66
				C205.255,149.844,205.896,145.586,208.921,142.558z"/>
		</g>
	</g>
	<g id="Oreille">
		
			<radialGradient id="SVGID_18_" cx="396.7505" cy="383.5713" r="17.5569" gradientTransform="matrix(-0.9823 0.1872 0.1872 0.9823 741.0167 -87.7998)" gradientUnits="userSpaceOnUse">
			<stop  offset="0" style="stop-color:#C08058"/>
			<stop  offset="1" style="stop-color:#A06040"/>
		</radialGradient>
		
			<path display="none" fill="url(#SVGID_18_)" stroke="#000000" stroke-width="1.5" stroke-linecap="round" stroke-linejoin="round" stroke-miterlimit="10" d="
			M439.5,351.297c-6.333-8.334-21.805-6.367-28.5,1.333c-6.667,7.667-8.167,22.333,1.5,29.667c0,0,0.014-9.509,10.013-20.172
			C432.667,351.297,439.5,351.297,439.5,351.297z"/>
		
			<radialGradient id="SVGID_19_" cx="212.3506" cy="227.1465" r="18.798" gradientTransform="matrix(0.9823 0.1872 -0.1872 0.9823 85.7871 -87.7998)" gradientUnits="userSpaceOnUse">
			<stop  offset="0" style="stop-color:#C08058"/>
			<stop  offset="1" style="stop-color:#A06040"/>
		</radialGradient>
		
			<path fill="url(#SVGID_19_)" stroke="#000000" stroke-width="1.5" stroke-linecap="round" stroke-linejoin="round" stroke-miterlimit="10" d="
			M235.005,165.068c0,0,7.864-8.064,14.991-8.937c5.029-0.641,10.208,0.487,15.303,6.273c6.861,7.793,6.458,27.165-5.288,33.732
			C251,178.297,250.333,177.964,235.005,165.068z"/>
		<g>
			<path d="M243.503,171.823c1.64-1.824,3.478-3.367,5.57-4.598c2.073-1.202,4.507-2.052,6.974-1.777
				c2.477,0.25,4.62,1.719,6.135,3.519c1.544,1.81,2.641,3.921,3.54,6.08c-1.011-2.107-2.219-4.148-3.817-5.828
				c-1.574-1.679-3.667-2.921-5.92-3.023c-2.249-0.129-4.437,0.757-6.323,1.989c-1.888,1.242-3.597,2.85-4.997,4.586l-0.02,0.025
				c-0.26,0.322-0.732,0.373-1.055,0.113s-0.374-0.732-0.113-1.056C243.485,171.844,243.495,171.832,243.503,171.823z"/>
		</g>
		<g>
			<path d="M247.901,167.858c2.177-0.288,4.292-0.004,6.249,0.841c1.949,0.84,3.564,2.355,4.591,4.145
				c1.043,1.791,1.583,3.79,1.853,5.783c0.266,1.999,0.267,4.013,0.132,6.006c0.01-1.998-0.119-3.999-0.502-5.944
				c-0.385-1.939-1.039-3.838-2.118-5.446c-1.068-1.61-2.604-2.863-4.379-3.501c-1.751-0.648-3.765-0.763-5.526-0.412
				L247.901,167.858z"/>
		</g>
		<g>
			<path d="M235.146,165.977c-1.076-0.639-2.244-1.234-3.404-1.794c-1.167-0.561-2.354-1.086-3.554-1.584
				c-2.401-0.993-4.859-1.868-7.355-2.635c2.558,0.524,5.099,1.163,7.608,1.929c1.254,0.386,2.501,0.799,3.738,1.254
				c1.24,0.459,2.454,0.935,3.685,1.514c0.375,0.176,0.537,0.624,0.36,0.999c-0.176,0.376-0.624,0.537-1,0.36
				c-0.021-0.011-0.042-0.021-0.063-0.033L235.146,165.977z"/>
		</g>
		<g>
			<path d="M260.711,195.868c0.292,0.967,0.513,1.896,0.729,2.847c0.211,0.946,0.402,1.894,0.576,2.843
				c0.349,1.898,0.634,3.803,0.874,5.709c-0.485-1.859-1.014-3.705-1.601-5.526c-0.293-0.91-0.602-1.814-0.928-2.709
				c-0.327-0.889-0.673-1.793-1.048-2.624l-0.006-0.012c-0.171-0.379-0.002-0.824,0.376-0.995s0.824-0.003,0.995,0.376
				C260.689,195.805,260.702,195.839,260.711,195.868z"/>
		</g>
	</g>
</g>
<g id="Encre_1_">
	<g>
		<path fill="#202850" d="M15.195,101.12c0.872,0.702,2.657,2.097,3.564,2.782c-0.799,0.43-5.118-0.823-8.512-1.516
			c-2.517,0.046-0.737,2.612,1.011,2.95c3.494,1.226,7.875,2.212,11.783,2.727c3.91,0.522,7.337,0.588,8.965,0.196
			c1.721,0.155-3.844-2.47-9.049-4.289c-1.699-0.232-3.396-0.481-5.097-0.758"/>
		<path fill="#202850" d="M338.857,84.982l-3.217-1.305c-8.774,0.355-16.729,0.162-25.049-0.047
			c-8.313-0.201-16.998-0.424-27.073,0.14c-2.168,0.055-4.064-1.282-7.459-1.767c-3.15,0.434-6.006,0.854-6.655,0.703
			c-17.708,0.734-35.117,3.568-51.886,8.301c-4.193,1.184-8.348,2.479-12.453,3.902c-4.126,1.413-8.124,3.013-12.207,4.427
			c-8.16,2.869-16.51,5.423-25.053,7.622c-1.317,0.532-3.042,0.911-1.941,0.491c0,0-2.287,0.736-5.034,1.376
			c-2.746,0.639-5.948,1.171-7.699,0.896c5.579-0.746,9.982-1.756,15.915-3.514c-0.022,0.039-0.062,0.078-0.099,0.117l20.523-7.466
			c3.518-1.297,7.009-2.626,10.623-4.004c3.677-1.37,7.416-2.619,11.241-3.765c15.293-4.59,31.641-7.361,47.666-8.759
			c-12.326,0.674-24.934,2.069-37.639,4.761c-6.345,1.356-12.716,3.019-19.036,5.101c-1.563,0.516-3.215,1.077-4.718,1.628
			l-4.568,1.631l-9.286,3.232c-7.224,2.778-15.814,5.131-22.896,6.57c-5.487,0.866-10.244,1.902-14.977,2.755
			c-4.73,0.85-9.44,1.515-14.743,1.522c-5.307-0.003-9.378-0.838-13.87-1.57c-4.499-0.744-9.409-1.367-16.511-1.261
			c-4.368,0.168-5.538,1.435-9.949,1.49c-4.428,0.053-9.675-2.116-11.326-1.97c-8.722-0.284-15.886,0.609-24.519,0.645
			c-3.387,0.016-7.758-0.639-8.472-0.129c-1.448,1.012,0.519,2.207-5.606,1.37c1.943,1.206,7.397,2.457,6.681,2.967
			c-2.968,0.308-7.441-0.332-9.987-0.229c2.903,0.906,5.888,1.702,8.801,2.443c1.149,0.239,2.217,0.498,3.146,0.799
			c1.829,0.465,3.592,0.918,5.236,1.384l1.006-0.003c2.498,0.952,4.625,1.662,6.815,2.222c2.839,0.011,7.676,1.309,9.788,0.698
			c-0.322,0.277-0.336,0.517-0.147,0.74c1.632,0.109,3.449,0.183,5.51,0.215l4.424,1.767c1.774-0.164,5.291-0.555,5.289-0.561
			c2.195,0.445,3.107,1.026,3.836,1.634c1.791-0.023,3.742-0.144,5.631-0.418c1.337,0.673,3.603,1.161,6.266,1.473
			c2.73-0.016,5.291-0.008,7.462,0.146c1.982-0.058,3.912-0.154,5.705-0.368l2.179-0.348c5.106-1.206,7.684-2.785,15.567-4.387
			c-2.348-0.501-4.147-1.719-1.291-1.902c7.611-0.152,12.838-0.024,18.594-0.417c3.634-1.306,6.737-2.64,10.274-3.454l2.809,0.337
			l2.488-0.675c4.767-2.077,9.176-3.495,14.579-4.199c4.471-1.355,8.954-2.778,13.428-4.279l4.356-2.262
			c1.535-1.311,4.886-1.53,6.718-1.521c1.288-0.426,2.577-0.821,3.876-1.221c3.777-1.705,7.961-3.506,11.946-4.78
			c1.247-0.721,2.398-1.487,3.452-2.366c-0.288,0.565-0.579,1.129-2.012,1.922c3.945-1.146,7.594-1.688,10.193-1.059l3.154-1.19
			l1.995,0.265c6.263-1.842,12.812-3.979,18.702-4.866c1.623-0.498-6.5,1.972-1.432,2.133c5.047,0.158,11.049-0.965,16.611-1.253
			c1.917-0.102,3.7-0.089,5.406-0.039c1.837-0.082,3.711-0.188,5.666-0.381c32.674-3.456,67.675-1.416,100.324,4.712
			C369.289,88.742,355.512,86.667,338.857,84.982z"/>
	</g>
</g>
<g id="Typographie_2_">
	<path fill="#FFFFFF" stroke="#000000" stroke-width="1.5" stroke-miterlimit="10" d="M339.88,112.241l-4.8,3.68
		c-3.92,2.96-7.04,5.36-12.16,4.48c5.12-3.12,10.4-8,10.4-14.561c0-3.52-1.2-6.24-1.52-9.28c-0.24-2.239-0.72-2.96-3.12-2.96
		c-2.88,0-4.4,2.561-4.56,5.2l-17.36,15.92c-0.45,0.45-1.22,1.141-1.63,1.87c-3.06,2.03-6.34,3.65-9.33,3.65
		c-2.56,0-5.2-1.04-4.96-4.08l0.16-1.76c15.36-5.04,19.28-10.96,19.28-14.881c0-3.199-3.2-3.84-5.76-3.84
		c-8.59-0.069-18,7.23-20.83,15.681c-9.51,6.479-10.39,6.479-12.05,6.88c-0.96,0.24-2-1.04-1.92-2c0.08-1.84,0.56-3.12,6.8-10
		c0.88-0.96,2.48-2.721,2.48-4.08c0-1.12-0.88-2.32-1.44-3.2c-0.24-0.32-1.04-2.24-1.68-2.24c-0.96,0-2.96,1.601-3.76,2.24
		l-17.76,14l-0.16-0.16c1.76-3.12,7.44-9.6,7.44-13.12c0-2.08-1.12-3.68-3.28-3.68c-5.2,0-19.44,14.24-23.36,18.32
		c-0.24,0.239-1.2,1.279-1.6,1.279c-0.32,0-0.56-0.56-0.56-0.72c0-1.68,1.44-2.96,2.32-4.16c1.2-1.76,2.96-3.2,4.4-4.88
		c0.96-1.12,3.2-3.52,3.2-5.12c0-1.68-2.4-1.68-3.6-1.84c-3.82-0.51-9.98,6.19-12.37,12.9c-2.76,2.21-8.95,7.1-11.79,7.1
		c-1.28,0-2-0.479-2-1.76c0-3.601,5.68-9.92,8.24-12.24c1.28-1.12,3.44-2.96,3.28-4.88c-0.32-4.16-1.2-4.4-1.84-4.4
		c-2,0-9.84,7.601-11.52,9.12l-7.92,7.12c-3.76,3.36-8.16,5.68-9.6,5.68c-0.56,0-0.64-0.8-0.64-1.199c0-3.36,1.92-5.12,4.4-6.88
		c3.12-2.24,3.6-2.96,6.08-5.761c0.88-0.72,3.04-2.96,3.2-4.239c0.32-2.4-3.76-1.681-4.88-1.681c-1.36,0-2.4,0.16-3.52,0.88
		c-3.94,2.58-8.39,7.91-10.24,13.761c-3.34,2.939-8.95,7.359-13.04,7.359c-2.16,0-3.28-1.6-4-3.439c-0.4-1.92-0.16-4.16,0.56-5.521
		c17.36-16.8,19.44-23.84,20-31.439c0.08-1.04-0.24-2.96-1.6-2.96c-2.56,0-10.16,7.439-17.2,16.159
		c-4.12,5.08-7.24,11.811-8.35,18.57c-8.46,7.28-10.08,8.55-16.93,8.07c8.96-7.92,12.96-13.44,12.96-17.84
		c0-2.08-1.2-3.761-3.36-3.761c-4.32,0-12.4,5.28-15.84,7.761l-0.16-0.16c1.6-3.601,4.08-6.561,6.8-9.44
		c1.28-1.359,5.44-5.2,5.44-6.96c0-1.52-2.56-1.92-3.68-1.92c-3.04,0-4.48,2.32-6.4,4.4l-21.2,22.8l0.32,3.76l12.64-12.08l0.16,0.16
		c-5.2,8.8-9.2,15.36-12.88,20.561c-3.28,4.64-5.04,8.64-4.96,12.64c0,1.439,0.48,3.6,2.32,3.6c1.52,0,2.96-2.16,3.6-3.359
		l7.52-14.721c1.04,0.24,2.08,0.48,3.2,0.48c1.28,0,2.48-0.24,3.68-0.48c1.92,0.96,3.52,1.601,5.68,1.601
		c8.11,0,14.95-5.07,20.65-10.46c-0.01,0.21-0.01,0.41-0.01,0.62c0,4.72,1.28,10.399,7.12,10.399c5.63,0,11.68-5.41,16.11-9.87
		c-0.02,0.28-0.03,0.551-0.03,0.83c0,3.44,2.16,7.92,6.08,7.92c4.4,0,9.76-7.199,12.88-9.92l0.16,0.16
		c-0.8,2.08-1.68,4.32-1.68,6.72c0,2.801,1.76,5.28,4.72,5.28c5.07,0,12.03-6.76,16.48-11.16v0.04c0,2.88,1.12,9.12,4.96,9.12
		c1.44,0,2.56-1.2,3.44-2.24c3.76-4.64,8.24-9.439,12.4-13.84c0.56-0.56,2.32-2.479,3.12-2.479c0.32,0,0.56,0.239,0.56,0.56
		c0,0.24-0.32,0.88-0.48,1.04c-5.2,7.92-7.12,11.6-7.04,13.92c0.08,1.92,1.6,3.36,3.52,3.36c2.72,0,5.6-3.28,7.44-5.04l12.72-11.681
		l0.16,0.16c-2,3.28-5.92,8.96-5.92,12.96c0,2.32,1.68,4.641,4.08,4.641c3.93,0,13.3-7.28,18.07-11.061c0,0.2,0,0.391,0.01,0.58
		c0.16,5.28,2.88,10.48,8.72,10.48c5.72,0,11.89-3.92,16.72-8.23c1.85,5.16,7.37,7.84,12.4,8.07c6.4,0.32,15.12-6.96,20-11.84
		L339.88,112.241z M302.28,100.321c0.56-0.16,0.96,0.319,0.96,0.88c0.08,1.359-4.72,6.88-11.76,9.28
		C293.64,105.201,298.28,101.361,302.28,100.321z M185.4,85.921c-1.44,4.561-6.4,12.24-12.08,17.521l-0.16-0.16
		C176.92,95.041,181.48,87.841,185.4,85.921z M142.92,117.761c-2.16-0.72-4.4-0.96-6.72-0.8c2.16-2.88,4.4-5.6,7.36-7.76
		c1.04-0.72,4.88-3.2,6.16-3.2c0.64,0,0.88,0.56,0.88,1.12c0,1.439-1.12,2.8-2,3.92L142.92,117.761z M318.92,118.641
		c-1.44-1.97-3.1-4.3-5.79-4.67c-0.14-0.029-0.3-0.04-0.45-0.05l0.36-0.34l11.16-10.46c0.48,2.72,0.8,4.88,1.04,6.56
		C325,114.321,323.72,115.681,318.92,118.641z"/>
	<path fill="#FFFFFF" stroke="#000000" stroke-width="1.5" stroke-miterlimit="10" d="M370.96,52.241l-4.8,3.68
		c-3.92,2.96-7.04,5.36-12.16,4.48c5.12-3.12,10.4-8,10.4-14.561c0-3.52-1.2-6.24-1.52-9.28c-0.24-2.239-0.72-2.96-3.12-2.96
		c-2.88,0-4.4,2.561-4.56,5.2l-17.36,15.92c-0.45,0.45-1.22,1.141-1.63,1.87c-3.06,2.03-6.34,3.65-9.33,3.65
		c-2.56,0-5.2-1.04-4.96-4.08l0.16-1.76c15.36-5.04,19.28-10.96,19.28-14.881c0-3.199-3.2-3.84-5.76-3.84
		c-9.45-0.069-19.448,5.591-21.038,15.07l-5.683,5.17c-3.92,2.96-7.04,5.36-12.16,4.48c5.12-3.12,10.4-8,10.4-14.561
		c0-3.52-1.2-6.24-1.52-9.28c-0.24-2.239-0.72-2.96-3.12-2.96c-2.88,0-4.4,2.561-4.56,5.2l-17.36,15.92
		c-0.62,0.62-1.83,1.681-1.91,2.69c-1.19,0.689-2.35,1.149-3.37,1.149c-1.2,0-2.48-0.96-2.48-2.239c0-3.2,3.92-7.12,6.24-9.12
		c1.84-1.521,3.36-2.72,3.36-5.2c-0.16-1.44-0.72-2.72-1.92-4.24c-0.8-0.96-5.2,0-12.72,1.04c0.32-0.72,0.56-1.439,0.56-2.24
		c0-0.72-0.64-1.359-1.44-1.359c-1.92,0-10.08,5.76-10.08,11.52c0,1.681,0.48,2.32,2.16,2.48c-1.52,2.16-3.412,4.255-5.28,5.84
		s-5.63,3.84-7.36,3.84c-1.28,0-2-0.479-2-1.76c0-3.601,5.68-9.92,8.24-12.24c1.28-1.12,3.44-2.96,3.28-4.88
		c-0.32-4.16-1.2-4.4-1.84-4.4c-2,0-9.84,7.601-11.52,9.12l-7.92,7.12c-3.76,3.36-8.16,5.68-9.6,5.68c-0.56,0-0.64-0.8-0.64-1.199
		c0-3.36,1.92-5.12,4.4-6.88c3.12-2.24,3.6-2.96,6.08-5.761c0.88-0.72,3.04-2.96,3.2-4.239c0.32-2.4-3.76-1.681-4.88-1.681
		c-1.36,0-2.4,0.16-3.52,0.88c-5.12,3.36-11.12,11.36-11.12,19.12c0,3.44,2.16,7.92,6.08,7.92c4.4,0,9.76-7.199,12.88-9.92
		l0.16,0.16c-0.8,2.08-1.68,4.32-1.68,6.72c0,2.801,1.76,5.28,4.72,5.28c5.92,0,16.663-10.945,18.48-13.12s3.07-3.95,4.48-6.16
		l8.32-1.84l0.16,0.16c-3.2,3.84-7.36,8.08-7.36,13.521c0,3.039,2.08,6.159,5.44,6.159c3,0,8.02-3.85,11.96-7.47
		c1.9,5.08,7.37,7.73,12.36,7.95c6.17,0.31,14.49-6.44,19.45-11.3c-0.02,0.33-0.02,0.66-0.01,0.979c0.16,5.28,2.88,10.48,8.72,10.48
		c5.72,0,11.89-3.92,16.72-8.23c1.85,5.16,7.37,7.84,12.4,8.07c6.4,0.32,15.12-6.96,20-11.84L370.96,52.241z M333.36,40.321
		c0.56-0.16,0.96,0.319,0.96,0.88c0.08,1.359-4.72,6.88-11.76,9.28C324.72,45.201,329.36,41.361,333.36,40.321z M292.72,58.641
		c-1.45-1.979-3.11-4.33-5.83-4.67c-0.13-0.029-0.27-0.04-0.41-0.05l0.34-0.32L298,43.121c0.48,2.72,0.8,4.88,1.04,6.56
		C298.8,54.321,297.52,55.681,292.72,58.641z M350,58.641c-1.44-1.97-3.1-4.3-5.79-4.67c-0.14-0.029-0.3-0.04-0.45-0.05l0.36-0.34
		l11.16-10.46c0.48,2.72,0.8,4.88,1.04,6.56C356.08,54.321,354.8,55.681,350,58.641z"/>
	<path fill="#FFFFFF" stroke="#000000" stroke-width="1.5" stroke-miterlimit="10" d="M220.16,22.801c-1.6-1.2-4-1.6-7.2-0.72
		l-0.08-0.08c1.12-0.64,2.24-1.28,3.52-1.76c1.2-0.4,3.92-1.12,3.92-2.8c0-1.28-4-6.96-7.76-6.4
		c-15.44,2.16-42.08,21.76-41.12,39.04c0.72,12.4,7.92,16.24,14.24,16.32c18.32,0.159,37.36-21.36,36.96-37.28
		C222.56,26.241,221.76,24.081,220.16,22.801z M198.56,54.321c-3.36,2.88-10.32,6.239-14.8,6.239c-3.04,0-4.24-2.399-4.24-5.199
		c0-6.561,4.4-12.96,8.88-17.44c0.08,0.72,0.08,2.24,1.12,2.24c0.96,0,2-1.521,2.48-2.16c3.76-5.68,13.44-12.32,20.48-12.32
		c2.08,0,3.2,2,3.12,3.92C215.36,35.441,209.28,45.201,198.56,54.321z"/>
	<path fill="#FFFFFF" stroke="#000000" stroke-width="1.5" stroke-miterlimit="10" d="M98.123,112.561c-3.44,2.32-8,6.4-11.36,6.4
		c-1.28,0-2.48-0.561-2.48-1.92c0-3.761,6.96-9.36,6.96-11.921c0-1.76-0.8-2.64-2.32-3.279c0.72-0.24,2.8-1.04,2.8-2
		c0-0.961-1.52-3.921-5.2-3.841c-9.28,0.24-30.081,10.48-29.761,20.48c0.16,4.16,4.8,9.44,7.04,9.44c1.84,0,6.96-4.16,8.48-5.36
		l7.36-5.92l0.16,0.16c-1.04,2.16-2.96,6.4-2.96,8.96c0,2.32,1.2,4.24,3.84,4.24c3.92,0,14.641-8.561,18.081-12.48L98.123,112.561z
		 M64.202,120.081c-1.2,0.24-1.52-1.2-1.6-1.601c0-3.92,2.32-8.8,21.361-14.64l0.16,0.159
		C68.282,120.001,65.802,119.761,64.202,120.081z"/>
	<path fill="#FFFFFF" stroke="#000000" stroke-width="1.5" stroke-miterlimit="10" d="M77.403,86.08c2.4,0.72,7.68,2.16,9.68,3.44
		c0.96,0.64,2.24,2.08,2.24,3.279c0,0.641-0.56,0.721-1.12,0.721c-0.8,0-1.84-0.32-2.64-0.641c-2.08-0.8-5.36-1.359-7.601-1.68
		c-2.96-0.4-3.92-0.48-6.8-0.32c-3.28,0.24-3.04,0-2.8-3.279c0.16-1.681-0.16-3.44,1.84-3.44c0.88,0,1.68,0.24,2.48,0.479
		L77.403,86.08z"/>
	<path fill="#FFFFFF" stroke="#000000" stroke-width="1.5" stroke-miterlimit="10" d="M32.482,64.48
		c-1.92,0.641-4.16,1.921-6.32,1.921c-1.12,0-2.48-0.24-2.48-1.681c0-1.84,3.76-6.32,4.96-7.92c0.72-0.96,1.28-1.92,2.48-2.24
		c3.36-0.8,6.96-0.88,10.32-1.52L64.723,25.36C67.603,21.92,79.363,10,83.604,10c2.72,0,4,2.88,4,5.2c0,5.12-6.56,14.479-9.12,19.04
		c0.64,0.08,1.44,0.24,1.44,1.12c0,1.44-3.36,3.84-4.48,4.64c-1.36,0.96-5.44,4.16-6.96,4.16c-1.44,0-1.84-1.2-1.84-2.399
		c0-6,6.88-14.721,10.72-19.041c0.64-0.72,0.72-1.52,0.16-1.52c-1.04,0-4.48,3.2-13.36,13.36l-16,18.32
		c13.28,2.56,20.161,3.92,32.161,6.8l-4.24,4.24c-5.12,5.12-4.8,5.28-20.48,2c-7.04-1.52-14.16-2.48-21.36-2.24L32.482,64.48z"/>
	<path fill="#FFFFFF" stroke="#000000" stroke-width="1.5" stroke-miterlimit="10" d="M140.56,52.241l-4.8,3.68
		c-3.92,2.96-7.04,5.36-12.16,4.48c5.12-3.12,10.4-8,10.4-14.561c0-3.52-1.2-6.24-1.52-9.28c-0.24-2.239-0.72-2.96-3.12-2.96
		c-2.88,0-4.4,2.561-4.56,5.2l-17.36,15.92c-0.45,0.45-1.22,1.141-1.63,1.87c-3.06,2.03-6.34,3.65-9.33,3.65
		c-2.56,0-5.2-1.04-4.96-4.08l0.16-1.76c15.36-5.04,19.28-10.96,19.28-14.881c0-3.199-3.2-3.84-5.76-3.84
		c-10.4-0.08-22,10.641-21.68,21.12c0.16,5.28,2.88,10.48,8.72,10.48c5.72,0,11.89-3.92,16.72-8.23c1.85,5.16,7.37,7.84,12.4,8.07
		c6.4,0.32,15.12-6.96,20-11.84L140.56,52.241z M102.96,40.321c0.56-0.16,0.96,0.319,0.96,0.88c0.08,1.359-4.72,6.88-11.76,9.28
		C94.32,45.201,98.96,41.361,102.96,40.321z M119.6,58.641c-1.44-1.97-3.1-4.3-5.79-4.67c-0.14-0.029-0.3-0.04-0.45-0.05l0.36-0.34
		l11.16-10.46c0.48,2.72,0.8,4.88,1.04,6.56C125.68,54.321,124.4,55.681,119.6,58.641z"/>
</g>
</svg>
