<?xml version="1.0" encoding="utf-8"?>
<!-- Generator: Adobe Illustrator 15.0.0, SVG Export Plug-In . SVG Version: 6.00 Build 0)  -->
<!DOCTYPE svg PUBLIC "-//W3C//DTD SVG 1.1//EN" "http://www.w3.org/Graphics/SVG/1.1/DTD/svg11.dtd">
<svg version="1.1" id="Ourse_1_" xmlns="http://www.w3.org/2000/svg" xmlns:xlink="http://www.w3.org/1999/xlink" x="0px" y="0px"
	 width="400px" height="400px" viewBox="0 0 400 400" enable-background="new 0 0 400 400" xml:space="preserve">
<path fill-rule="evenodd" clip-rule="evenodd" fill="#330033" d="M350,238.966c0,0.171,0,0.347,0,0.518
	c-3.797,15.484-45.86,17.692-63.238,10.885c-5.56-2.177-9.994-6.886-15.55-8.293c-5.526-1.4-11.46-0.879-17.105-2.073
	c-5.188-1.098-10.599-2.126-15.033-3.627c-5.681-1.927-11.064-5.983-15.55-6.739c-5.251-0.885-11.835,0.525-18.66,0
	c-8.782-0.678-17.412-5.756-22.805-2.592c-4.328,2.54-4.426,15.438-3.111,22.807c2.377,13.322,10.532,26.091,17.107,36.802
	c7.012,11.428,14.242,22.613,20.215,33.175c3.465,6.124,8.84,9.795,9.846,18.141c-7.735,1.568-15.617-1.845-22.807-4.146
	c-20.73-6.641-40.561-17.972-55.979-30.582c-25.96-21.228-46.636-51.448-51.832-92.265c0-14.342,0-28.681,0-43.021
	c4.095-26.105,18.97-50.241,34.727-67.384c15.675-17.052,37.508-33.708,62.2-39.394c14.428-3.322,29.621,1.36,43.022,4.147
	c8.11,1.686,16.593,2.232,24.36,4.663c7.458,2.332,15.313,6.896,21.773,7.257c12.078,0.673,25.813-12.131,37.837-6.221
	c2.911,1.432,5.708,6.388,5.701,9.85c-0.01,9.12-13.753,14.369-13.995,23.324c-0.168,6.276,7.259,17.179,9.85,24.364
	c3.033,8.407,6.01,19.537,6.221,28.506c0.188,7.979-2.718,15.125-2.075,22.81c0.852,10.114,7.815,20.201,11.922,29.545
	C341.518,219.595,348.389,229.302,350,238.966z"/>
<linearGradient id="Fond_1_" gradientUnits="userSpaceOnUse" x1="0" y1="231.5156" x2="234.9795" y2="231.5156">
	<stop  offset="0" style="stop-color:#CC33BB"/>
	<stop  offset="1" style="stop-color:#880066"/>
</linearGradient>
<path id="Fond_2_" fill-rule="evenodd" clip-rule="evenodd" fill="url(#Fond_1_)" d="M62.072,126.89
	c10.021,4.232,13.477,9.158,13.477,9.158s4.838-1.556,15.636,4.361c10.981,6.018,16.09,14.188,16.09,14.188s5.94,2.185,8.682,5.314
	c3.607,1.101,8.402,5.162,11.273,9.264c3.608,1.944,6.543,6.005,7.711,7.775c2.463,0.735,7.335,3.497,9.226,5.574
	c2.226,2.448,4.725,5.787,6.738,8.293c3.43,1.641,4.723,2.661,6.738,4.535c1.967,1.832,3.776,3.672,5.054,5.699
	c7.361,2.982,11.206,9.569,13.971,13.024c3.951,3.954,6.993,10.09,7.042,10.173c0,0,0.02-1.555,0.215-2.547
	c6.608,6.564,9.373,14.902,12.076,22.505c2.307-2.333,3.473-2.658,4.535-2.722c3.836,12.374,3.666,32.72,1.572,44.88
	c0.41-2.442,0.93-6.461,3.5-8.509c1.799-1.434,2.203,5.397,2.203,5.397s4.686-9.503,5.183-17.406
	c5.077,11.079-1.144,24.878-1.144,24.878s3.949,0.39,4.471,2.269c0.16,0.584-0.818,2.355-2.809,3.651
	c1.967-0.021,6.48-0.154,6.631,2.633c-1.34,3.117-4.146,6.61-11.184,7.128c2.91,7.603,19.971,26.954,26.021,33.563
	c-2.445-1.295-7.777-1.966-11.208-1.62c-2.917-7.062-13.109-21.748-18.123-25.723c-3.674-0.82-5.094,5.356-9.675,5.356
	c0.194-0.822-0.063-1.534-0.063-1.534s-5.404,0.271-7.019-2.093c1.21,0,0.604,0.776,4.838-1.299
	c-2.593,0.435-10.624-0.343-13.738-4.017c2.591-0.646,8.9-0.302,8.9-0.302s-2.679-0.432-4.19-1.649
	c-1.054-0.849-1.547-1.713-4.795-2.021c0.951-2.505,8.295-2.98,8.295-2.98s-7.49,1.235-14.083-1.037
	c-7.15-2.466-7.906-4.317-13.953-5.053c0.346-1.122,3.801-1.341,3.801-1.341s-3.932,0.088-8.337-3.022
	c-4.407-3.11-3.902-6.111-7.836-7.518c-15.488-5.526-20.152-18.573-20.152-18.573s3.021,2.507,8.982,2.076
	c-6.132-2.767-13.009-9.774-15.784-16.677c5.612,1.643,15.005,4.411,22.394,4.277c-4.56-1.297-11.016-2.592-19.438-8.163
	c-8.422-5.572-12.568-12.83-12.568-12.83s-12-3.506-17.105-11.014c5.455,1.212,12.116,3.045,17.753,1.813
	c-8.423-0.389-23.844-5.313-27.342-17.968c11.75,6.91,14.125,6.175,16.845,5.916c2.851-3.759,8.036-5.27,8.036-5.27
	s-6.775,1.352-11.404,0.69c-6.652-0.947-13.39-3.671-15.896-10.407c-5.615-3.63-7.775-9.072-7.775-9.072s-3.784-0.66-7.43-3.629
	c-1.651-1.344-5.01-5.011-6.047-7.773c-14.86-5.271-17.699-11.365-24.511-19.872c-5.985-2.877-12.141-7.773-14.796-13.908
	c-3.22-0.864-4.942-1.945-7.948-4.061c-2.332-1.642-6.997-6.996-6.997-6.996S1.857,131.382,0,128.402
	c16.544-3.932,27.601-1.513,36.672,1.685c-1.666-1.383-4.881-2.419-9.114-4.491c7.646-0.52,13.174,2.071,16.804,2.765
	c-1.902-1.47-3.629-2.896-4.665-3.588c4.491-0.084,9.07,2.809,9.07,2.809s-0.994-1.726-6.066-4.405
	C46.867,122.657,54.931,123.875,62.072,126.89z M86.346,156.522c-3.109-8.727-4.449-17.236-10.496-20
	C78.313,139.503,83.669,148.921,86.346,156.522z M85.439,169.048c-11.274-8.164-19.438-5.961-25.269-6.066
	c-4.405-0.08-8.035-0.672-11.447-1.405c1.691,1.249,7.454,3.889,12.397,3.498C67.168,164.599,74.425,164.511,85.439,169.048z
	 M113.905,197.04c-8.121-6.049-22.807-2.981-27.472-2.981C96.972,197.169,102.156,194.792,113.905,197.04z M158.524,225.418
	c-1.036-5.443-8.167-29.975-11.404-32.267C150.749,205.591,151.268,212.977,158.524,225.418z M171.701,230.299
	c0.604-14.772-3.585-19.784-6.265-23.414C165.696,214.575,168.505,220.968,171.701,230.299z M174.378,288.267
	c-6.738,0.258-16.847-0.432-22.16-1.943C156.839,289.218,167.64,291.723,174.378,288.267z"/>
<g id="Ailettes">
	<g>
		<path fill="#CC33BB" d="M121.012,251.29c3.343,2.178,6.869,3.912,10.45,5.481c3.596,1.534,7.266,2.872,11.016,3.957
			c3.736,1.132,7.552,2.003,11.402,2.775c3.857,0.75,7.757,1.341,11.709,1.953c-3.979,0.428-8,0.377-11.993-0.023
			c-2-0.181-3.983-0.514-5.962-0.874c-1.973-0.395-3.927-0.883-5.865-1.436c-3.856-1.167-7.627-2.659-11.16-4.606
			C127.092,256.574,123.704,254.276,121.012,251.29z"/>
	</g>
	<g>
		<path fill="#CC33BB" d="M134.465,262.695c1.079,0.756,2.24,1.292,3.419,1.776c1.171,0.495,2.375,0.897,3.58,1.287
			c2.418,0.758,4.886,1.352,7.371,1.906c2.489,0.542,4.998,1.047,7.529,1.533c2.532,0.488,5.08,0.964,7.647,1.616
			c-2.621,0.388-5.253,0.451-7.879,0.32c-2.626-0.132-5.252-0.453-7.836-1.029c-2.583-0.572-5.132-1.39-7.547-2.54
			c-1.209-0.57-2.372-1.25-3.464-2.03C136.221,264.728,135.157,263.849,134.465,262.695z"/>
	</g>
	<g>
		<path fill="#CC33BB" d="M129.108,203.257c3.905,3.583,7.59,7.372,11.184,11.241c3.604,3.861,7.07,7.847,10.47,11.891
			c3.363,4.073,6.663,8.206,9.757,12.5c3.089,4.288,6.086,8.69,8.459,13.439c-3.246-4.181-6.634-8.193-9.999-12.241l-10.138-12.1
			c-3.35-4.061-6.724-8.104-10.02-12.217C135.513,211.667,132.242,207.528,129.108,203.257z"/>
	</g>
	<g>
		<path fill="#CC33BB" d="M173.191,261.313c1.917,1.771,3.633,3.686,5.28,5.651c1.646,1.966,3.222,3.982,4.717,6.057
			c1.503,2.069,2.919,4.201,4.27,6.381c1.349,2.181,2.625,4.413,3.701,6.791c-1.919-1.769-3.637-3.683-5.283-5.648
			c-1.645-1.968-3.223-3.982-4.714-6.06c-1.499-2.072-2.918-4.202-4.267-6.383C175.547,265.921,174.269,263.688,173.191,261.313z"/>
	</g>
	<g>
		<path fill="#BB22AA" d="M193.643,290.08c1.331,0.973,2.449,2.096,3.519,3.255c1.057,1.168,2.033,2.393,2.941,3.666
			c0.908,1.273,1.745,2.597,2.503,3.978c0.745,1.389,1.439,2.814,1.92,4.393c-1.334-0.971-2.453-2.094-3.521-3.253
			c-1.056-1.168-2.033-2.393-2.938-3.668c-0.906-1.275-1.743-2.599-2.5-3.979C194.821,293.081,194.125,291.656,193.643,290.08z"/>
	</g>
	<g>
		<path fill="none" d="M202.219,288.524"/>
	</g>
	<g>
		<path fill="none" d="M213.364,272.455"/>
	</g>
	<g>
		<path fill="#CC33BB" d="M176.992,222.609c1.684,3.135,2.916,6.479,3.937,9.873c1.03,3.397,1.769,6.88,2.302,10.396
			c0.487,3.522,0.767,7.082,0.679,10.644c-0.076,3.557-0.468,7.121-1.389,10.555c-0.114-3.549-0.274-7.027-0.561-10.495
			c-0.307-3.463-0.683-6.912-1.201-10.345c-0.472-3.44-1.089-6.862-1.717-10.294C178.389,229.513,177.699,226.085,176.992,222.609z"
			/>
	</g>
	<g>
		<path fill="#CC33BB" d="M165.392,206.369c2.426,1.282,4.583,3.185,6.156,5.564c1.59,2.37,2.528,5.183,2.881,7.973
			c0.38,2.8,0.236,5.561,0.109,8.229c-0.107,2.676-0.274,5.275,0.357,7.952c-1.618-2.284-2.066-5.224-2.308-7.91
			c-0.235-2.726-0.299-5.382-0.637-7.941c-0.334-2.558-0.964-5.022-2.088-7.332C168.75,210.588,167.172,208.461,165.392,206.369z"/>
	</g>
	<g>
		<path fill="#CC33BB" d="M112.394,234.616c4.328,2.706,8.95,4.756,13.691,6.3c4.733,1.556,9.695,2.248,14.728,3.3
			c2.505,0.551,5.035,1.156,7.487,2.032c2.452,0.869,4.847,1.918,7.099,3.207c4.525,2.545,8.551,5.823,12.067,9.524
			c-4.175-2.939-8.421-5.703-12.943-7.826c-4.519-2.141-9.282-3.529-14.219-4.505c-2.465-0.507-4.966-0.993-7.477-1.552
			c-2.5-0.576-5.026-1.307-7.426-2.28c-2.409-0.963-4.727-2.132-6.921-3.487C116.302,237.951,114.197,236.443,112.394,234.616z"/>
	</g>
	<g>
		<path fill="none" d="M128.614,193.583"/>
	</g>
	<g>
		<path fill="none" d="M115.826,161.447"/>
	</g>
	<g>
		<path fill="none" d="M200.146,242.005"/>
	</g>
	<g>
		<path fill="#CC33BB" d="M200.018,242.005c1.102,4.021,1.719,8.13,2.176,12.253c0.403,4.116,0.595,8.308,0.42,12.457
			c-0.069,2.071-0.155,4.135-0.3,6.192c-0.119,2.059-0.267,4.111-0.418,6.162c-0.127,2.051-0.297,4.099-0.384,6.147
			c-0.09,2.05-0.17,4.097,0.035,6.159c-0.691-1.969-0.955-4.066-1.169-6.132c-0.188-2.073-0.3-4.149-0.327-6.221
			c-0.049-2.071-0.042-4.139-0.007-6.201c0.008-2.063,0.078-4.118,0.111-6.169c0.083-4.095,0.023-8.154-0.065-12.27
			C200.045,250.277,199.938,246.167,200.018,242.005z"/>
	</g>
	<g>
		<path fill="#CC33BB" d="M176.667,214.144c3.143,4.176,5.623,8.822,7.759,13.597c2.138,4.782,3.829,9.765,5.141,14.845
			c1.267,5.091,2.16,10.284,2.5,15.519c0.362,5.229,0.225,10.494-0.584,15.649c-0.231-5.21-0.641-10.352-1.356-15.447
			c-0.379-2.544-0.766-5.083-1.287-7.598c-0.49-2.52-1.043-5.026-1.694-7.51c-1.236-4.981-2.788-9.885-4.522-14.732
			C180.856,223.628,178.916,218.842,176.667,214.144z"/>
	</g>
	<g>
		<path fill="#BB22AA" d="M203.488,292.283c-0.504-1.224-0.693-2.479-0.772-3.727c-0.067-1.248,0.007-2.496,0.212-3.728
			c0.206-1.229,0.549-2.443,1.048-3.604c0.508-1.154,1.156-2.273,2.104-3.197c0.017,1.318-0.086,2.514-0.205,3.704
			c-0.127,1.186-0.284,2.351-0.482,3.514c-0.197,1.164-0.434,2.325-0.727,3.494C204.364,289.909,204.02,291.079,203.488,292.283z"/>
	</g>
	<g>
		<path fill="#BB22AA" d="M206.859,293.966c0.933-0.764,1.476-1.797,1.948-2.827c0.477-1.033,0.817-2.125,1.135-3.22
			c0.607-2.203,1.005-4.474,1.362-6.763c0.348-2.291,0.652-4.606,0.952-6.942c0.302-2.336,0.595-4.689,1.081-7.07
			c0.555,2.365,0.807,4.763,0.867,7.168c0.06,2.405-0.053,4.825-0.431,7.227c-0.37,2.398-0.99,4.79-2.009,7.051
			c-0.507,1.13-1.141,2.217-1.923,3.198C209.04,292.723,208.084,293.684,206.859,293.966z"/>
	</g>
	<g>
		<path fill="#BB22AA" d="M207.379,295.523c0.721-0.554,1.42-0.891,2.119-1.174c0.697-0.273,1.389-0.474,2.078-0.624
			c0.69-0.151,1.376-0.249,2.074-0.318c0.707-0.081,1.389-0.081,2.279-0.218c-0.188,0.923-0.894,1.585-1.574,2.053
			c-0.705,0.465-1.474,0.76-2.25,0.927c-0.778,0.166-1.569,0.209-2.361,0.124C208.953,296.197,208.157,296.003,207.379,295.523z"/>
	</g>
	<g>
		<path fill="#BB22AA" d="M208.414,301.742c0.492-1.019,1.237-1.803,2.058-2.472c0.83-0.659,1.768-1.186,2.782-1.548
			c1.012-0.362,2.112-0.552,3.221-0.493c1.102,0.068,2.233,0.396,3.086,1.145c-1.093,0.271-1.986,0.522-2.871,0.81
			c-0.879,0.285-1.729,0.588-2.601,0.895c-0.869,0.308-1.754,0.618-2.681,0.913C210.476,301.281,209.519,301.559,208.414,301.742z"
			/>
	</g>
	<g>
		<path fill="#BB22AA" d="M180.553,309.259c1.637-0.209,3.206-0.241,4.766-0.262c1.567-0.003,3.071,0.021,4.646,0.082
			c1.575,0.08,3.029,0.227,4.502,0.198c1.477-0.005,2.978-0.206,4.62-0.408c-1.19,1.148-2.71,1.93-4.346,2.355
			c-1.641,0.423-3.344,0.435-4.899,0.352c-1.563-0.063-3.193-0.267-4.745-0.633C183.537,310.563,181.997,310.074,180.553,309.259z"
			/>
	</g>
	<g>
		<path fill="#BB22AA" d="M190.012,314.701c1.343-0.229,2.505-0.672,3.645-1.165c1.11-0.491,2.283-1.051,3.224-1.658
			c1.012-0.627,2.183-1.417,3.569-1.845c1.379-0.427,2.87-0.476,4.207,0.003c-1.264,0.66-2.355,1.208-3.349,1.876
			c-0.999,0.647-1.946,1.412-3.182,2.106c-0.313,0.174-0.623,0.317-0.985,0.473c-0.313,0.112-0.667,0.25-0.987,0.344
			c-0.664,0.203-1.346,0.359-2.042,0.441C192.735,315.417,191.249,315.387,190.012,314.701z"/>
	</g>
	<g>
		<path fill="#BB22AA" d="M180.424,304.852c0.7-0.721,1.656-1.119,2.58-1.467c0.942-0.315,1.912-0.543,2.888-0.678
			c0.976-0.134,1.957-0.2,2.933-0.201c1.081-0.008,2.037,0.165,2.984,0.317c1.887,0.33,3.711,0.776,5.53,1.246
			c1.825,0.47,3.598,0.994,5.501,1.431c-1.888,0.627-3.894,0.618-5.808,0.525c-1.925-0.113-3.818-0.406-5.66-0.744
			c-0.918-0.162-1.831-0.355-2.645-0.431c-0.917-0.079-1.832-0.161-2.749-0.209c-0.917-0.052-1.837-0.101-2.759-0.077
			C182.294,304.579,181.367,304.615,180.424,304.852z"/>
	</g>
	<g>
		<path fill="#CC33BB" d="M135.158,268.051c3.011,2.523,6.426,4.345,9.921,5.873c3.519,1.486,7.172,2.623,10.91,3.41
			c1.864,0.42,3.751,0.743,5.652,0.998c1.896,0.295,3.813,0.453,5.734,0.629c3.849,0.304,7.73,0.398,11.668,0.493
			c-3.827,0.94-7.769,1.398-11.729,1.456c-3.963,0.078-7.946-0.315-11.854-1.135c-3.893-0.87-7.718-2.177-11.23-4.104
			c-1.761-0.946-3.431-2.063-4.985-3.311C137.717,271.086,136.252,269.704,135.158,268.051z"/>
	</g>
	<g>
		<path fill="#CC33BB" d="M128.978,266.755c2.148,2.939,4.836,5.299,7.668,7.386c2.864,2.053,5.931,3.8,9.154,5.228
			c1.599,0.742,3.244,1.392,4.913,1.984c1.658,0.63,3.363,1.128,5.068,1.654c3.425,1.005,6.923,1.821,10.476,2.667
			c-3.649,0.19-7.317-0.096-10.928-0.769c-3.616-0.656-7.167-1.754-10.556-3.26c-3.366-1.545-6.579-3.503-9.347-5.993
			c-1.393-1.229-2.658-2.603-3.779-4.076C130.559,270.084,129.557,268.501,128.978,266.755z"/>
	</g>
	<g>
		<path fill="#CC33BB" d="M151.957,286.755c1.854,0.841,3.649,1.563,5.467,2.143c1.812,0.584,3.633,1.014,5.469,1.247
			c1.837,0.231,3.688,0.266,5.562,0.082c1.88-0.169,3.76-0.582,5.75-1.054c-2.999,2.791-7.449,4.008-11.627,3.451
			c-2.091-0.268-4.113-0.94-5.933-1.929C154.841,289.689,153.17,288.419,151.957,286.755z"/>
	</g>
	<g>
		<path fill="#CC33BB" d="M160.898,295.826c1.165-0.676,2.547-0.828,3.861-0.959c1.33-0.084,2.664-0.056,3.979,0.077
			c2.631,0.253,5.224,0.808,7.718,1.541c2.426,0.698,4.837,1.314,7.292,1.586c1.223,0.124,2.456,0.188,3.677,0.057
			c1.216-0.124,2.458-0.388,3.535-1.137c-0.692,1.166-1.995,1.858-3.259,2.333c-1.298,0.445-2.665,0.658-4.019,0.697
			c-2.712,0.084-5.391-0.393-7.916-1.135c-2.458-0.718-4.882-1.429-7.345-2.025c-1.231-0.287-2.465-0.574-3.715-0.774
			C163.458,295.884,162.197,295.69,160.898,295.826z"/>
	</g>
	<g>
		<path fill="#CC33BB" d="M169.194,285.328c2-0.791,4.141-1.09,6.282-1.153c2.144-0.041,4.316,0.214,6.414,0.824
			c2.094,0.606,4.118,1.583,5.842,2.956c1.715,1.373,3.13,3.138,3.88,5.149c-1.612-1.407-3.227-2.589-4.971-3.515
			c-1.733-0.935-3.561-1.637-5.451-2.191C177.394,286.291,173.408,285.811,169.194,285.328z"/>
	</g>
	<g>
		<path fill="#CC33BB" d="M184.225,222.481c1.52,1.521,2.819,3.249,3.983,5.052c1.167,1.804,2.203,3.697,3.094,5.658
			c0.912,1.953,1.646,3.988,2.276,6.053c0.604,2.092,1.06,4.172,1.522,6.23c0.931,4.128,1.804,8.364,1.974,12.676
			c0.186,4.304-0.233,8.552-0.842,12.751c-0.119-4.244-0.188-8.48-0.713-12.619c-0.516-4.137-1.588-8.174-2.653-12.264
			c-1.043-4.14-2.181-8.038-3.673-11.949C187.727,230.172,186.064,226.343,184.225,222.481z"/>
	</g>
	<g>
		<path fill="#DD44CC" d="M136.884,178.896c2.945,3.234,5.442,6.867,7.545,10.741c1.054,1.938,1.975,3.96,2.726,6.064
			c0.375,1.052,0.721,2.122,0.972,3.225l0.766,3.146c1.051,4.167,2.202,8.303,3.647,12.324c1.49,3.993,3.123,7.977,5.943,11.323
			c-1.821-1.238-3.285-2.967-4.564-4.771c-1.261-1.827-2.322-3.781-3.242-5.79c-1.836-4.022-3.157-8.237-4.187-12.497l-0.715-3.197
			c-0.229-1.016-0.489-2.032-0.793-3.042c-0.621-2.016-1.392-4.003-2.23-5.972C141.044,186.521,139.037,182.69,136.884,178.896z"/>
	</g>
	<g>
		<path fill="#DD44CC" d="M122.025,202.092c-0.232-0.421-0.629-0.698-1.019-0.94c-0.393-0.244-0.814-0.44-1.245-0.607
			c-0.864-0.332-1.76-0.579-2.672-0.761c-1.818-0.39-3.682-0.58-5.545-0.734c-3.749-0.272-7.474-0.304-11.304-0.293
			c-3.871-0.103-7.774-0.479-11.547-1.612c-1.881-0.56-3.724-1.324-5.399-2.392c-0.825-0.55-1.617-1.161-2.288-1.894
			c-0.664-0.729-1.248-1.571-1.483-2.515c1.025,1.631,2.692,2.59,4.355,3.33c1.682,0.743,3.478,1.209,5.287,1.578
			c1.82,0.334,3.658,0.605,5.518,0.736c1.854,0.161,3.729,0.258,5.595,0.269c1.865,0.046,3.833,0.051,5.746,0.183
			c1.924,0.153,3.854,0.322,5.764,0.68c1.913,0.329,3.815,0.798,5.652,1.492c0.91,0.368,1.813,0.774,2.641,1.321
			C120.879,200.478,121.737,201.141,122.025,202.092z"/>
	</g>
	<g>
		<path fill="#DD44CC" d="M85.353,208.011c0.882,1.54,2.055,2.831,3.319,3.988c1.257,1.166,2.646,2.169,4.082,3.082
			c2.896,1.796,6.028,3.199,9.277,4.304c1.615,0.582,3.269,1.068,4.938,1.512c1.663,0.478,3.358,0.836,5.054,1.232
			c3.403,0.743,6.855,1.345,10.346,2.035c-3.542,0.35-7.113,0.286-10.662-0.109c-3.551-0.382-7.077-1.148-10.496-2.31
			c-3.396-1.206-6.71-2.811-9.579-5.076c-1.438-1.118-2.749-2.41-3.864-3.848C86.69,211.368,85.726,209.771,85.353,208.011z"/>
	</g>
	<g>
		<path fill="#DD44CC" d="M82.459,197.945c1.633,1.865,3.686,3.065,5.772,4.094c2.111,1,4.343,1.72,6.62,2.316
			c2.281,0.585,4.613,1.05,6.985,1.44c2.373,0.392,4.778,0.717,7.23,1.179c-2.428,0.579-4.911,0.8-7.401,0.765
			c-2.489-0.036-4.998-0.324-7.443-0.965c-2.442-0.635-4.833-1.619-6.959-3.052c-1.064-0.711-2.044-1.556-2.897-2.509
			C83.543,200.242,82.786,199.17,82.459,197.945z"/>
	</g>
	<g>
		<path fill="#DD44CC" d="M62.935,179.07c0.87,0.704,1.862,1.225,2.864,1.691c1.003,0.468,2.042,0.853,3.097,1.175
			c2.106,0.659,4.28,1.064,6.464,1.319c2.185,0.263,4.389,0.339,6.588,0.311c2.176,0.012,4.446-0.303,6.709-0.284
			c4.515-0.063,9.131,0.328,13.544,1.749c4.402,1.394,8.488,4.048,11.186,7.688c-1.841-1.312-3.728-2.464-5.694-3.393
			c-1.97-0.925-4.017-1.608-6.109-2.141c-4.198-1.017-8.565-1.404-12.969-1.644c-2.205-0.112-4.401-0.198-6.692-0.236
			c-2.267-0.096-4.529-0.343-6.761-0.757c-2.229-0.424-4.426-1.043-6.522-1.905C66.564,181.757,64.525,180.665,62.935,179.07z"/>
	</g>
	<g>
		<path fill="#DD44CC" d="M42.892,163.864c4.449,3.539,9.289,6.227,14.402,8.206c5.125,1.946,10.505,3.161,16.101,3.609
			c5.657,0.219,11.331,0.636,16.901,1.77c2.777,0.581,5.527,1.36,8.134,2.493s5.023,2.668,7.182,4.483
			c-2.244-1.713-4.712-3.116-7.334-4.114c-2.615-1.017-5.354-1.678-8.118-2.144c-5.536-0.925-11.172-1.159-16.791-1.207
			c-2.83,0.11-5.756,0.176-8.611-0.307c-1.434-0.202-2.854-0.512-4.251-0.902c-1.403-0.372-2.778-0.85-4.117-1.41
			c-1.346-0.543-2.656-1.177-3.912-1.902c-1.268-0.703-2.475-1.511-3.629-2.38C46.563,168.303,44.435,166.288,42.892,163.864z"/>
	</g>
	<g>
		<path fill="#DD44CC" d="M107.858,156.091c1.04,3.576,2.095,7.105,3.238,10.6c0.569,1.746,1.17,3.479,1.776,5.205
			c0.63,1.718,1.269,3.429,1.945,5.122c1.421,3.378,2.772,6.79,4.331,10.079c1.516,3.319,3.268,6.519,5.125,9.769
			c-2.773-2.521-5.055-5.564-6.973-8.796c-1.888-3.26-3.431-6.67-4.762-10.155c-0.678-1.749-1.284-3.522-1.804-5.32
			c-0.542-1.79-0.998-3.604-1.395-5.428C108.56,163.518,107.979,159.822,107.858,156.091z"/>
	</g>
	<g>
		<path fill="#DD44CC" d="M115.826,161.316c1.467,4.415,2.833,8.808,4.384,13.117c1.514,4.318,3.189,8.557,5.356,12.481
			c1.112,1.957,2.338,3.85,3.674,5.678c1.352,1.816,2.789,3.587,4.277,5.347c1.478,1.766,2.995,3.546,4.318,5.494
			c1.321,1.939,2.408,4.104,2.85,6.391c-1.797-4.33-5.271-7.373-8.498-10.675c-3.267-3.277-6.389-6.9-8.74-11.023
			c-0.601-1.035-1.154-2.063-1.675-3.137c-0.499-1.074-0.957-2.161-1.388-3.255c-0.878-2.182-1.551-4.428-2.19-6.671
			C117.01,170.551,116.122,165.97,115.826,161.316z"/>
	</g>
	<g>
		<path fill="#DD44CC" d="M127.208,173.368c0.792,2.391,1.558,4.713,2.394,6.988c0.842,2.26,1.779,4.493,2.899,6.541
			c1.137,2.09,2.451,4.164,3.632,6.371c1.181,2.195,2.225,4.559,2.652,7.054c-1.387-2.106-2.822-4.047-4.291-6.015
			c-1.461-1.966-2.961-3.963-4.188-6.216c-1.268-2.283-2.053-4.715-2.586-7.195C127.205,178.421,126.96,175.888,127.208,173.368z"/>
	</g>
	<g>
		<path fill="#DD44CC" d="M107.167,182.18c-3.855-2.748-7.157-6.191-10.233-9.774c-3.065-3.606-5.836-7.484-8.117-11.706
			c-1.098-2.131-2.116-4.335-2.768-6.715c-0.585-2.262-1.261-4.453-2.009-6.637c-0.778-2.164-1.634-4.307-2.771-6.289
			c-0.559-0.997-1.203-1.942-1.959-2.794c-0.379-0.425-0.795-0.817-1.257-1.151c-0.459-0.332-0.969-0.638-1.554-0.72
			c1.208-0.039,2.334,0.646,3.273,1.376c0.956,0.754,1.757,1.673,2.498,2.624c1.446,1.934,2.592,4.059,3.555,6.242
			c0.986,2.172,1.76,4.444,2.47,6.687c0.686,2.117,1.628,4.198,2.725,6.205c1.066,2.024,2.263,3.998,3.529,5.931
			c1.232,1.958,2.59,3.838,3.929,5.738C101.224,174.947,104.033,178.67,107.167,182.18z"/>
	</g>
	<g>
		<path fill="#DD44CC" d="M110.967,178.896c-3.246-2.431-5.752-5.876-7.458-9.617c-1.724-3.749-2.713-7.74-3.908-11.488
			c-0.59-1.875-1.293-3.686-2.201-5.314c-0.928-1.7-2.032-3.281-3.222-4.821c-2.413-3.056-5.251-5.813-8.438-8.325
			c1.938,0.653,3.749,1.659,5.441,2.826c0.854,0.577,1.667,1.214,2.446,1.895c0.788,0.672,1.538,1.392,2.236,2.162
			c1.424,1.515,2.655,3.229,3.698,5.034c1.07,1.878,1.751,3.87,2.349,5.83c1.152,3.938,1.88,7.841,3.21,11.547
			C106.392,172.344,108.322,175.83,110.967,178.896z"/>
	</g>
	<g>
		<path fill="#EE55DD" d="M48.508,162.31c2.902,1.894,6.132,2.982,9.381,3.42c1.631,0.186,3.268,0.261,4.896,0.108
			c0.765-0.076,1.75-0.151,2.624-0.166c0.893-0.016,1.782-0.001,2.665,0.045c3.528,0.245,6.971,0.886,10.324,1.807
			c3.352,0.917,6.637,2.063,9.762,3.597l-10.173-1.689c-1.688-0.245-3.361-0.54-5.044-0.728c-1.676-0.222-3.352-0.41-5.021-0.492
			c-0.833-0.063-1.664-0.095-2.49-0.099c-0.847-0.012-1.576,0.057-2.527,0.083c-1.805,0.026-3.624-0.113-5.374-0.556
			C54.045,166.799,50.742,165.007,48.508,162.31z"/>
	</g>
	<g>
		<path fill="#EE55DD" d="M22.333,144.037c2.016,1.909,4.091,3.634,6.237,5.231c2.153,1.586,4.402,2.993,6.742,4.207
			c2.345,1.204,4.784,2.219,7.332,2.979c2.548,0.767,5.187,1.282,7.938,1.709c-5.453,1.219-11.391,0.131-16.417-2.467
			c-2.522-1.303-4.832-2.991-6.853-4.946C25.303,148.791,23.521,146.57,22.333,144.037z"/>
	</g>
	<g>
		<path fill="#EE55DD" d="M8.207,132.634c3.438-0.275,6.885-0.054,10.292,0.38c3.413,0.427,6.785,1.153,10.104,2.077
			c3.306,0.969,6.563,2.14,9.671,3.639c3.111,1.483,6.099,3.254,8.764,5.438c-3.192-1.286-6.331-2.519-9.509-3.635
			c-3.182-1.1-6.376-2.135-9.613-3.039c-3.225-0.948-6.49-1.761-9.77-2.568C14.86,134.141,11.56,133.39,8.207,132.634z"/>
	</g>
	<g>
		<path fill="#EE55DD" d="M20.258,139.502c1.73,1.088,3.426,2.035,5.159,2.885c1.726,0.852,3.48,1.588,5.272,2.216
			c1.793,0.625,3.624,1.139,5.507,1.558c1.884,0.437,3.813,0.736,5.833,1.117c-1.947,0.665-4.013,0.895-6.076,0.834
			c-2.063-0.072-4.129-0.46-6.089-1.15c-1.961-0.688-3.821-1.668-5.477-2.908C22.75,142.799,21.245,141.323,20.258,139.502z"/>
	</g>
	<g>
		<path fill="#EE55DD" d="M1.728,128.747c3.304-0.979,6.752-1.431,10.204-1.668c3.458-0.197,6.943-0.116,10.401,0.297
			c3.462,0.382,6.885,1.134,10.233,2.139c3.341,1.032,6.585,2.388,9.688,4.013c3.082,1.665,6.021,3.597,8.742,5.794
			c2.702,2.22,5.232,4.645,7.478,7.307c0.564,0.662,1.117,1.334,1.653,2.018l1.534,2.069c1.024,1.341,2.123,2.63,3.283,3.86
			c2.316,2.45,4.88,4.748,8.014,6.181c-3.347-0.921-6.257-3.039-8.862-5.308c-1.298-1.159-2.521-2.399-3.686-3.695
			c-0.29-0.325-0.581-0.651-0.859-0.988l-0.416-0.512l-0.175-0.221l-0.21-0.237c-0.559-0.635-1.132-1.256-1.716-1.866
			c-4.666-4.878-10.012-9.073-15.952-12.194c-5.91-3.176-12.375-5.278-19.025-6.432C15.398,128.193,8.543,127.917,1.728,128.747z"/>
	</g>
	<g>
		<path fill="#EE55DD" d="M40.474,124.989c1.377,0.204,2.7,0.693,3.993,1.207c1.297,0.516,2.55,1.134,3.789,1.778
			c2.462,1.317,4.836,2.815,7.07,4.507c4.491,3.352,8.496,7.38,11.877,11.876c1.707,2.217,3.217,4.666,4.575,7.041
			c1.398,2.313,2.858,4.608,4.51,6.757c1.62,2.175,3.394,4.237,5.314,6.166c1.93,1.918,3.994,3.732,6.343,5.202
			c-2.634-0.926-5.008-2.499-7.221-4.211c-2.208-1.737-4.214-3.726-6.058-5.851c-1.813-2.15-3.499-4.406-4.964-6.813
			c-1.414-2.4-2.869-4.619-4.476-6.82c-3.216-4.359-6.947-8.334-11.064-11.897c-2.073-1.764-4.224-3.449-6.496-4.975
			c-1.128-0.775-2.296-1.489-3.481-2.182C42.988,126.111,41.787,125.424,40.474,124.989z"/>
	</g>
	<g>
		<path fill="#EE55DD" d="M29.2,125.896c2.984,0.043,5.929,0.637,8.786,1.475c2.865,0.834,5.633,2.005,8.277,3.419
			c2.621,1.454,5.123,3.158,7.328,5.204c2.208,2.029,4.153,4.37,5.543,7.007c-2.21-1.992-4.434-3.825-6.773-5.493
			c-2.348-1.649-4.769-3.172-7.293-4.524c-2.502-1.394-5.107-2.609-7.748-3.786C34.667,128.044,31.975,126.954,29.2,125.896z"/>
	</g>
	<g>
		<path fill="#EE55DD" d="M43.843,123.433c3.087,0.114,6.143,0.691,9.14,1.485c1.494,0.418,2.974,0.896,4.434,1.446
			c1.45,0.57,2.882,1.2,4.282,1.907c2.774,1.456,5.439,3.204,7.748,5.401c1.173,1.074,2.216,2.295,3.161,3.581
			c0.921,1.293,1.798,2.563,2.597,3.902c1.612,2.661,2.993,5.438,4.283,8.222c1.29,2.785,2.481,5.588,3.86,8.285
			c1.366,2.702,2.905,5.314,4.732,7.736c1.812,2.431,3.882,4.683,6.129,6.759c-2.436-1.851-4.703-3.948-6.72-6.284
			c-2.01-2.34-3.768-4.906-5.299-7.584c-3.065-5.365-5.422-11.017-8.74-16.032c-0.828-1.247-1.67-2.509-2.592-3.653
			c-0.93-1.127-1.969-2.16-3.052-3.147c-2.193-1.946-4.645-3.63-7.244-5.078C55.361,127.46,49.702,125.276,43.843,123.433z"/>
	</g>
	<g>
		<path fill="#CC33BB" d="M150.964,192.33c3.395,3.994,6.262,8.428,8.677,13.112c1.198,2.348,2.271,4.772,3.159,7.281
			c0.854,2.541,1.556,5.031,2.24,7.55c1.344,5.021,2.816,9.933,4.661,14.759c1.834,4.827,3.988,9.553,6.146,14.317
			c-3.02-4.271-5.67-8.81-7.89-13.58c-2.252-4.757-3.909-9.808-5.305-14.831c-0.725-2.494-1.35-5.044-2.134-7.447
			c-0.775-2.428-1.702-4.821-2.713-7.188C155.77,201.571,153.443,196.937,150.964,192.33z"/>
	</g>
	<g>
		<path fill="#DD44CC" d="M95.202,223.776c2.485,1.544,5.047,2.783,7.649,3.898c2.608,1.1,5.277,2.001,7.989,2.761
			c2.715,0.748,5.473,1.357,8.279,1.826c2.808,0.47,5.652,0.805,8.564,1.188c-2.864,0.656-5.816,0.869-8.762,0.752
			c-2.946-0.118-5.896-0.558-8.752-1.359c-2.857-0.795-5.624-1.942-8.188-3.43C99.434,227.919,97.014,226.111,95.202,223.776z"/>
	</g>
	<g>
		<path fill="#CC33BB" d="M114.855,228.397c4.628-0.899,9.343-0.911,14.012-0.425c2.336,0.248,4.662,0.674,6.95,1.295l1.704,0.498
			c0.564,0.177,1.163,0.365,1.713,0.571c1.121,0.407,2.226,0.85,3.292,1.366c4.284,2.032,8.206,4.672,11.797,7.667
			c3.562,3.02,6.887,6.357,9.516,10.193c-3.099-3.45-6.614-6.458-10.324-9.156c-3.719-2.68-7.663-5.054-11.833-6.814
			c-1.043-0.437-2.094-0.846-3.161-1.193c-0.54-0.184-1.05-0.328-1.595-0.483l-0.84-0.219l-0.814-0.164
			c-2.216-0.456-4.461-0.809-6.716-1.151C124.04,229.709,119.485,229.193,114.855,228.397z"/>
	</g>
	<g>
		<path fill="#DD44CC" d="M103.452,212.588c1.799-1.021,3.793-1.62,5.807-2.044c1.011-0.197,2.034-0.36,3.064-0.432
			c1.03-0.095,2.066-0.127,3.102-0.086c4.143,0.134,8.243,1.115,12.077,2.666c3.828,1.573,7.34,3.815,10.431,6.467
			c3.105,2.644,5.824,5.661,8.281,8.85c-2.942-2.75-5.926-5.432-9.151-7.737c-3.224-2.302-6.677-4.233-10.347-5.557
			c-3.655-1.346-7.519-2.035-11.4-2.249C111.427,212.225,107.53,212.319,103.452,212.588z"/>
	</g>
	<path fill="none" stroke="#DD44CC" stroke-width="2.5" stroke-miterlimit="10" d="M87.815,141.749"/>
</g>
</svg>
